<?xml version="1.0" encoding="UTF-8" standalone="no"?>
<!-- Created with Inkscape (http://www.inkscape.org/) -->

<svg
   width="70.247871mm"
   height="57.797718mm"
   viewBox="0 0 70.247871 57.797718"
   version="1.1"
   id="svg1"
   xml:space="preserve"
   xmlns="http://www.w3.org/2000/svg"
   xmlns:svg="http://www.w3.org/2000/svg"><defs
     id="defs1" /><g
     id="layer1"
     transform="translate(274.59074,-246.81225)"><path
       style="fill:none;stroke:none;stroke-width:0.00963211px;stroke-linecap:round;stroke-linejoin:round;stroke-miterlimit:4;stroke-dasharray:none;stroke-opacity:1"
       d="m -237.65153,276.4314 h 2.44656"
       id="path1-0" /><path
       style="fill:none;stroke:none;stroke-width:0.00963211px;stroke-linecap:round;stroke-linejoin:round;stroke-miterlimit:4;stroke-dasharray:none;stroke-opacity:1"
       d="m -233.80832,277.51666 -0.0482,-0.14406 -0.0578,-0.14407 -0.0867,-0.13445 -0.0963,-0.13446 -0.10595,-0.11525 -0.11559,-0.10564 -0.13485,-0.0864 -0.13485,-0.0768 -0.14448,-0.0576 -0.15411,-0.0384 -0.16375,-0.0288 -0.15411,-0.01"
       id="path2-4" /><path
       style="fill:none;stroke:none;stroke-width:0.00963211px;stroke-linecap:round;stroke-linejoin:round;stroke-miterlimit:4;stroke-dasharray:none;stroke-opacity:1"
       d="m -233.79868,277.51666 0.10595,0.37455 0.12522,0.35535 0.14448,0.35535 0.16374,0.35535 0.18301,0.33614 0.20228,0.32654 0.21191,0.31694 0.2408,0.30733 0.2408,0.29772 0.2697,0.27852"
       id="path3-8" /><path
       style="fill:none;stroke:none;stroke-width:0.00963211px;stroke-linecap:round;stroke-linejoin:round;stroke-miterlimit:4;stroke-dasharray:none;stroke-opacity:1"
       d="m -231.91079,280.82045 0.27933,0.25931 0.28896,0.2497 0.30823,0.2401 0.31786,0.21129 0.32749,0.20169 0.34676,0.18247 0.34675,0.16327 0.35639,0.14406 0.36602,0.12486 0.36602,0.10564"
       id="path4-0" /><path
       style="fill:none;stroke:none;stroke-width:0.00963211px;stroke-linecap:round;stroke-linejoin:round;stroke-miterlimit:4;stroke-dasharray:none;stroke-opacity:1"
       d="m -227.51855,284.10503 -0.01,-0.15366 -0.0289,-0.16327 -0.0385,-0.15367 -0.0578,-0.14406 -0.0771,-0.13445 -0.0867,-0.13446 -0.10595,-0.11525 -0.11559,-0.10564 -0.13485,-0.096 -0.13485,-0.0864 -0.14448,-0.0576 -0.15411,-0.048"
       id="path5-5" /><path
       style="fill:none;stroke:none;stroke-width:0.00963211px;stroke-linecap:round;stroke-linejoin:round;stroke-miterlimit:4;stroke-dasharray:none;stroke-opacity:1"
       d="m -227.51855,284.10503 v 2.44903"
       id="path6-6" /><path
       style="fill:none;stroke:none;stroke-width:0.00963211px;stroke-linecap:round;stroke-linejoin:round;stroke-miterlimit:4;stroke-dasharray:none;stroke-opacity:1"
       d="m -223.90651,275.7111 -0.01,-0.25931 -0.0385,-0.25931 -0.0578,-0.24971 -0.0771,-0.2401 -0.10595,-0.2401 -0.11559,-0.2305 -0.14448,-0.21129 -0.16374,-0.20168 -0.18301,-0.19208 -0.19265,-0.17287 -0.2119,-0.14407 -0.22154,-0.13445 -0.23117,-0.11525 -0.2408,-0.0864 -0.25044,-0.0672 -0.26007,-0.048 -0.26006,-0.0288 h -0.25044 l -0.26006,0.0288 -0.26007,0.048 -0.25044,0.0672 -0.2408,0.0864 -0.23117,0.11525 -0.22154,0.13445 -0.2119,0.14407 -0.19265,0.17287 -0.18301,0.19208 -0.16374,0.20168 -0.14448,0.21129 -0.11559,0.2305 -0.10595,0.2401 -0.0771,0.2401 -0.0578,0.24971 -0.0385,0.25931 -0.01,0.25931 0.01,0.2593 0.0385,0.25931 0.0578,0.24971 0.0771,0.2401 0.10595,0.2401 0.11559,0.2305 0.14448,0.21129 0.16374,0.20168 0.18301,0.19208 0.19265,0.17288 0.2119,0.14406 0.22154,0.13445 0.23117,0.11525 0.2408,0.0864 0.25044,0.0672 0.26007,0.048 0.26006,0.0288 h 0.25044 l 0.26006,-0.0288 0.26007,-0.048 0.25044,-0.0672 0.2408,-0.0864 0.23117,-0.11525 0.22154,-0.13445 0.2119,-0.14406 0.19265,-0.17288 0.18301,-0.19208 0.16374,-0.20168 0.14448,-0.21129 0.11559,-0.2305 0.10595,-0.2401 0.0771,-0.2401 0.0578,-0.24971 0.0385,-0.25931 z"
       id="path7-9" /><path
       style="fill:none;stroke:none;stroke-width:0.00963211px;stroke-linecap:round;stroke-linejoin:round;stroke-miterlimit:4;stroke-dasharray:none;stroke-opacity:1"
       d="m -222.45206,275.7111 -0.01,-0.31694 -0.0385,-0.31693 -0.0578,-0.30733 -0.0771,-0.30733 -0.10595,-0.29772 -0.12522,-0.28813 -0.14448,-0.28812 -0.16375,-0.26891 -0.18301,-0.25931 -0.20227,-0.2401 -0.22154,-0.2305 -0.2408,-0.21129 -0.25044,-0.19208 -0.26007,-0.17287 -0.27933,-0.15367 -0.28896,-0.13445 -0.28896,-0.11525 -0.30823,-0.0864 -0.30823,-0.0672 -0.31786,-0.048 -0.31786,-0.0288 h -0.30823 l -0.31785,0.0288 -0.31786,0.048 -0.30823,0.0672 -0.30823,0.0864 -0.28896,0.11525 -0.28897,0.13445 -0.27933,0.15367 -0.26006,0.17287 -0.25044,0.19208 -0.2408,0.21129 -0.22154,0.2305 -0.20227,0.2401 -0.18301,0.25931 -0.16375,0.26891 -0.14448,0.28812 -0.12522,0.28813 -0.10595,0.29772 -0.0771,0.30733 -0.0578,0.30733 -0.0385,0.31693 -0.01,0.31694 0.01,0.31693 0.0385,0.31693 0.0578,0.30733 0.0771,0.30733 0.10595,0.29773 0.12522,0.28812 0.14448,0.28812 0.16375,0.26891 0.18301,0.25931 0.20227,0.2401 0.22154,0.2305 0.2408,0.21129 0.25044,0.19208 0.26006,0.17287 0.27933,0.15367 0.28897,0.13445 0.28896,0.11525 0.30823,0.0864 0.30823,0.0672 0.31786,0.048 0.31785,0.0288 h 0.30823 l 0.31786,-0.0288 0.31786,-0.048 0.30823,-0.0672 0.30823,-0.0864 0.28896,-0.11525 0.28896,-0.13445 0.27933,-0.15367 0.26007,-0.17287 0.25044,-0.19208 0.2408,-0.21129 0.22154,-0.2305 0.20227,-0.2401 0.18301,-0.25931 0.16375,-0.26891 0.14448,-0.28812 0.12522,-0.28812 0.10595,-0.29773 0.0771,-0.30733 0.0578,-0.30733 0.0385,-0.31693 z"
       id="path8-7" /><path
       style="fill:none;stroke:none;stroke-width:0.00963211px;stroke-linecap:round;stroke-linejoin:round;stroke-miterlimit:4;stroke-dasharray:none;stroke-opacity:1"
       d="m -237.65153,274.99079 h 2.44656"
       id="path9-9" /><path
       style="fill:none;stroke:none;stroke-width:0.00963211px;stroke-linecap:round;stroke-linejoin:round;stroke-miterlimit:4;stroke-dasharray:none;stroke-opacity:1"
       d="m -232.41166,277.16131 -0.0674,-0.2305 -0.0867,-0.22089 -0.10596,-0.21129 -0.11558,-0.20169 -0.14448,-0.19208 -0.15412,-0.18248 -0.16374,-0.16326 -0.18301,-0.15367 -0.19264,-0.13445 -0.21191,-0.12486 -0.21191,-0.10564 -0.22154,-0.0864 -0.23117,-0.0672 -0.23117,-0.048 -0.23117,-0.0288 -0.2408,-0.01"
       id="path10-5" /><path
       style="fill:none;stroke:none;stroke-width:0.00963211px;stroke-linecap:round;stroke-linejoin:round;stroke-miterlimit:4;stroke-dasharray:none;stroke-opacity:1"
       d="m -232.40203,277.1517 0.0963,0.34575 0.12522,0.33614 0.14448,0.32654 0.16375,0.31693 0.17337,0.30733 0.20228,0.29773 0.22154,0.28812 0.23117,0.26891 0.25043,0.2497 0.2697,0.24011 0.27933,0.22089 0.2986,0.20168 0.30823,0.18248 0.31786,0.17287 0.31786,0.14406 0.33712,0.12486 0.34675,0.10564 0.34676,0.0768 0.35639,0.0672 0.35639,0.0384 0.35638,0.0192 0.35639,-0.01 0.35639,-0.0192 0.35639,-0.048 0.34676,-0.0768 0.34675,-0.0864 0.33712,-0.11525 0.33713,-0.13446 0.31786,-0.15366 0.31786,-0.17287 0.29859,-0.19208 0.28897,-0.21129 0.27933,-0.2305 0.26006,-0.2401 0.24081,-0.25931 0.23117,-0.27852 0.2119,-0.28812 0.19265,-0.29773 0.17337,-0.31693 0.15412,-0.31693 0.13485,-0.33614 0.11558,-0.33615 0.0867,-0.34574 0.0771,-0.34575 0.0482,-0.35534 0.0193,-0.35536 0.01,-0.35534 -0.0193,-0.35535 -0.0385,-0.35535 -0.0674,-0.35535 -0.0771,-0.34575 -0.10595,-0.34574 -0.12522,-0.33615 -0.14448,-0.31693 -0.17338,-0.31693 -0.18301,-0.30733 -0.20227,-0.29773 -0.22154,-0.27852 -0.2408,-0.26891 -0.25044,-0.2497 -0.26969,-0.2305 -0.28897,-0.22089 -0.29859,-0.20169 -0.30823,-0.17287 -0.31786,-0.16327 -0.32749,-0.14406 -0.33713,-0.12485 -0.34675,-0.096"
       id="path11-3" /><path
       style="fill:none;stroke:none;stroke-width:0.00963211px;stroke-linecap:round;stroke-linejoin:round;stroke-miterlimit:4;stroke-dasharray:none;stroke-opacity:1"
       d="m -227.50892,267.31716 0.01,0.2401 0.0289,0.2305 0.0482,0.2305 0.0674,0.23049 0.0867,0.2209 0.10595,0.21128 0.12522,0.21129 0.13485,0.19208 0.15412,0.18248 0.16374,0.16327 0.18301,0.15366 0.19264,0.14407 0.20228,0.11524 0.2119,0.10565 0.22154,0.0864 0.23117,0.0672"
       id="path12-3" /><path
       style="fill:none;stroke:none;stroke-width:0.00963211px;stroke-linecap:round;stroke-linejoin:round;stroke-miterlimit:4;stroke-dasharray:none;stroke-opacity:1"
       d="m -227.51855,267.31716 v -2.44903"
       id="path13-8" /><path
       style="fill:none;stroke:none;stroke-width:0.00963211px;stroke-linecap:round;stroke-linejoin:round;stroke-miterlimit:4;stroke-dasharray:none;stroke-opacity:1"
       d="m -215.93113,274.99079 h -2.44655"
       id="path14-0" /><path
       style="fill:none;stroke:none;stroke-width:0.00963211px;stroke-linecap:round;stroke-linejoin:round;stroke-miterlimit:4;stroke-dasharray:none;stroke-opacity:1"
       d="m -219.77434,273.89593 0.0482,0.15367 0.0578,0.14406 0.0867,0.13445 0.0963,0.13446 0.10596,0.11525 0.11558,0.10564 0.13485,0.0864 0.13485,0.0768 0.14448,0.0576 0.15412,0.0384 0.16374,0.0288 0.15412,0.01"
       id="path15-4" /><path
       style="fill:none;stroke:none;stroke-width:0.00963211px;stroke-linecap:round;stroke-linejoin:round;stroke-miterlimit:4;stroke-dasharray:none;stroke-opacity:1"
       d="m -219.7936,273.90553 -0.10595,-0.37455 -0.12522,-0.35535 -0.14448,-0.35535 -0.16375,-0.35535 -0.18301,-0.33614 -0.20227,-0.32654 -0.21191,-0.31693 -0.2408,-0.30733 -0.2408,-0.29773 -0.2697,-0.27852"
       id="path16-4" /><path
       style="fill:none;stroke:none;stroke-width:0.00963211px;stroke-linecap:round;stroke-linejoin:round;stroke-miterlimit:4;stroke-dasharray:none;stroke-opacity:1"
       d="m -221.68149,270.60174 -0.27933,-0.25931 -0.28897,-0.2497 -0.30822,-0.2401 -0.31786,-0.21129 -0.32749,-0.20169 -0.34676,-0.18247 -0.34676,-0.16327 -0.35639,-0.14406 -0.36602,-0.12486 -0.36601,-0.10564"
       id="path17-9" /><path
       style="fill:none;stroke:none;stroke-width:0.00963211px;stroke-linecap:round;stroke-linejoin:round;stroke-miterlimit:4;stroke-dasharray:none;stroke-opacity:1"
       d="m -226.0641,267.31716 0.01,0.15366 0.0289,0.16327 0.0385,0.15367 0.0578,0.14406 0.0771,0.13446 0.0867,0.13445 0.10595,0.11525 0.11559,0.10564 0.13485,0.096 0.13485,0.0864 0.14448,0.0576 0.15411,0.048"
       id="path18-3" /><path
       style="fill:none;stroke:none;stroke-width:0.00963211px;stroke-linecap:round;stroke-linejoin:round;stroke-miterlimit:4;stroke-dasharray:none;stroke-opacity:1"
       d="m -226.0641,267.31716 v -2.44903"
       id="path19-4" /><path
       style="fill:none;stroke:none;stroke-width:0.00963211px;stroke-linecap:round;stroke-linejoin:round;stroke-miterlimit:4;stroke-dasharray:none;stroke-opacity:1"
       d="m -215.93113,276.4314 h -2.44655"
       id="path20-7" /><path
       style="fill:none;stroke:none;stroke-width:0.00963211px;stroke-linecap:round;stroke-linejoin:round;stroke-miterlimit:4;stroke-dasharray:none;stroke-opacity:1"
       d="m -218.37768,276.441 -0.15411,0.01 -0.16375,0.0288 -0.15411,0.0384 -0.14448,0.0576 -0.13485,0.0768 -0.13485,0.0864 -0.11559,0.10565 -0.10595,0.11525 -0.0963,0.13445 -0.0867,0.13446 -0.0578,0.14406 -0.0482,0.14406"
       id="path21-7" /><path
       style="fill:none;stroke:none;stroke-width:0.00963211px;stroke-linecap:round;stroke-linejoin:round;stroke-miterlimit:4;stroke-dasharray:none;stroke-opacity:1"
       d="m -221.68149,280.82045 0.2697,-0.27852 0.2408,-0.29772 0.2408,-0.30733 0.21191,-0.31694 0.20227,-0.32654 0.18301,-0.33614 0.16375,-0.35535 0.14448,-0.35535 0.12522,-0.35535 0.10595,-0.37455"
       id="path22-3" /><path
       style="fill:none;stroke:none;stroke-width:0.00963211px;stroke-linecap:round;stroke-linejoin:round;stroke-miterlimit:4;stroke-dasharray:none;stroke-opacity:1"
       d="m -224.9853,282.70284 0.36601,-0.10564 0.36602,-0.12486 0.35639,-0.14406 0.34676,-0.16327 0.34676,-0.18247 0.32749,-0.20169 0.31786,-0.21129 0.30822,-0.2401 0.28897,-0.2497 0.27933,-0.25931"
       id="path23-6" /><path
       style="fill:none;stroke:none;stroke-width:0.00963211px;stroke-linecap:round;stroke-linejoin:round;stroke-miterlimit:4;stroke-dasharray:none;stroke-opacity:1"
       d="m -224.97567,282.71245 -0.15412,0.048 -0.14448,0.0576 -0.13485,0.0864 -0.13485,0.096 -0.11558,0.10564 -0.10596,0.11525 -0.0867,0.13446 -0.0771,0.13445 -0.0578,0.14406 -0.0385,0.15367 -0.0289,0.16327 -0.01,0.15366"
       id="path24-0" /><path
       style="fill:none;stroke:none;stroke-width:0.00963211px;stroke-linecap:round;stroke-linejoin:round;stroke-miterlimit:4;stroke-dasharray:none;stroke-opacity:1"
       d="m -226.0641,284.10503 v 2.44903"
       id="path25-4" /><path
       style="fill:none;stroke:none;stroke-width:0.00963211px;stroke-linecap:round;stroke-linejoin:round;stroke-miterlimit:4;stroke-dasharray:none;stroke-opacity:1"
       d="m -223.90651,254.03476 -0.01,-0.2593 -0.0385,-0.25931 -0.0578,-0.24971 -0.0771,-0.2401 -0.10595,-0.2401 -0.11559,-0.2305 -0.14448,-0.21129 -0.16375,-0.20168 -0.183,-0.19208 -0.19265,-0.17288 -0.2119,-0.14406 -0.22154,-0.13445 -0.23117,-0.11525 -0.24081,-0.0864 -0.25043,-0.0672 -0.26007,-0.048 -0.26007,-0.0288 h -0.25043 l -0.26007,0.0288 -0.26006,0.048 -0.25044,0.0672 -0.2408,0.0864 -0.23117,0.11525 -0.22154,0.13445 -0.21191,0.14406 -0.19264,0.17288 -0.18301,0.19208 -0.16374,0.20168 -0.14448,0.21129 -0.11559,0.2305 -0.10595,0.2401 -0.0771,0.2401 -0.0578,0.24971 -0.0385,0.25931 -0.01,0.2593 0.01,0.25931 0.0385,0.25931 0.0578,0.24971 0.0771,0.2401 0.10595,0.2401 0.11559,0.2305 0.14448,0.21129 0.16374,0.20168 0.18301,0.19208 0.19264,0.17288 0.21191,0.14406 0.22154,0.13445 0.23117,0.11525 0.2408,0.0864 0.25044,0.0672 0.26006,0.048 0.26007,0.0288 h 0.25043 l 0.26007,-0.0288 0.26007,-0.048 0.25043,-0.0672 0.24081,-0.0864 0.23117,-0.11525 0.22154,-0.13445 0.2119,-0.14406 0.19265,-0.17288 0.183,-0.19208 0.16375,-0.20168 0.14448,-0.21129 0.11559,-0.2305 0.10595,-0.2401 0.0771,-0.2401 0.0578,-0.24971 0.0385,-0.25931 z"
       id="path26-9" /><path
       style="fill:none;stroke:none;stroke-width:0.00963211px;stroke-linecap:round;stroke-linejoin:round;stroke-miterlimit:4;stroke-dasharray:none;stroke-opacity:1"
       d="m -222.45206,254.03476 -0.01,-0.31693 -0.0385,-0.31693 -0.0578,-0.30733 -0.0771,-0.30733 -0.10595,-0.29773 -0.12522,-0.28812 -0.14448,-0.28812 -0.16375,-0.26891 -0.18301,-0.25931 -0.20227,-0.2401 -0.22154,-0.2305 -0.2408,-0.21129 -0.25044,-0.19208 -0.26007,-0.17287 -0.27933,-0.15367 -0.28896,-0.13445 -0.28896,-0.11525 -0.30823,-0.0864 -0.30823,-0.0672 -0.31786,-0.048 -0.31786,-0.0288 h -0.30823 l -0.31785,0.0288 -0.31786,0.048 -0.30823,0.0672 -0.30823,0.0864 -0.28896,0.11525 -0.28897,0.13445 -0.27933,0.15367 -0.26006,0.17287 -0.25044,0.19208 -0.2408,0.21129 -0.22154,0.2305 -0.20227,0.2401 -0.18301,0.25931 -0.16375,0.26891 -0.14448,0.28812 -0.12522,0.28812 -0.10595,0.29773 -0.0771,0.30733 -0.0578,0.30733 -0.0385,0.31693 -0.01,0.31693 0.01,0.31694 0.0385,0.31693 0.0578,0.30733 0.0771,0.30733 0.10595,0.29773 0.12522,0.28812 0.14448,0.28812 0.16375,0.26891 0.18301,0.25931 0.20227,0.2401 0.22154,0.2305 0.2408,0.21129 0.25044,0.19208 0.26006,0.17287 0.27933,0.15367 0.28897,0.13445 0.28896,0.11525 0.30823,0.0864 0.30823,0.0672 0.31786,0.048 0.31785,0.0288 h 0.30823 l 0.31786,-0.0288 0.31786,-0.048 0.30823,-0.0672 0.30823,-0.0864 0.28896,-0.11525 0.28896,-0.13445 0.27933,-0.15367 0.26007,-0.17287 0.25044,-0.19208 0.2408,-0.21129 0.22154,-0.2305 0.20227,-0.2401 0.18301,-0.25931 0.16375,-0.26891 0.14448,-0.28812 0.12522,-0.28812 0.10595,-0.29773 0.0771,-0.30733 0.0578,-0.30733 0.0385,-0.31693 z"
       id="path27-6" /><path
       style="fill:none;stroke:none;stroke-width:0.00963211px;stroke-linecap:round;stroke-linejoin:round;stroke-miterlimit:4;stroke-dasharray:none;stroke-opacity:1"
       d="M -226.0641,264.86813 V 260.5367"
       id="path28-9" /><path
       style="fill:none;stroke:none;stroke-width:0.00963211px;stroke-linecap:round;stroke-linejoin:round;stroke-miterlimit:4;stroke-dasharray:none;stroke-opacity:1"
       d="m -226.07373,260.5367 -0.01,-0.12485 -0.0385,-0.12485 -0.0482,-0.11525 -0.0771,-0.096 -0.0867,-0.0864 -0.0963,-0.0768 -0.11559,-0.048 -0.12522,-0.0384 -0.12521,-0.01 -0.12522,0.01 -0.12522,0.0384 -0.10595,0.048 -0.10595,0.0768 -0.0867,0.0864 -0.0771,0.096 -0.0482,0.11525 -0.0385,0.12485 -0.01,0.12485"
       id="path29-7" /><path
       style="fill:none;stroke:none;stroke-width:0.00963211px;stroke-linecap:round;stroke-linejoin:round;stroke-miterlimit:4;stroke-dasharray:none;stroke-opacity:1"
       d="m -227.51855,260.5367 v 4.33143"
       id="path30-1" /><path
       style="fill:none;stroke:none;stroke-width:0.00963211px;stroke-linecap:round;stroke-linejoin:round;stroke-miterlimit:4;stroke-dasharray:none;stroke-opacity:1"
       d="m -215.93113,276.4314 h 7.24335"
       id="path31-6" /><path
       style="fill:none;stroke:none;stroke-width:0.00963211px;stroke-linecap:round;stroke-linejoin:round;stroke-miterlimit:4;stroke-dasharray:none;stroke-opacity:1"
       d="m -205.79815,279.32222 -0.01,-0.24971 -0.0385,-0.2497 -0.0482,-0.24971 -0.0771,-0.2401 -0.0963,-0.2305 -0.11558,-0.22089 -0.13485,-0.21129 -0.15412,-0.20168 -0.17337,-0.18248 -0.18301,-0.17287 -0.20228,-0.15367 -0.2119,-0.13446 -0.22154,-0.11524 -0.23117,-0.096 -0.24081,-0.0768 -0.25043,-0.048 -0.25044,-0.0384 -0.25043,-0.01"
       id="path32-8" /><path
       style="fill:none;stroke:none;stroke-width:0.00963211px;stroke-linecap:round;stroke-linejoin:round;stroke-miterlimit:4;stroke-dasharray:none;stroke-opacity:1"
       d="m -205.78851,279.32222 v 0.66268"
       id="path33-5" /><path
       style="fill:none;stroke:none;stroke-width:0.00963211px;stroke-linecap:round;stroke-linejoin:round;stroke-miterlimit:4;stroke-dasharray:none;stroke-opacity:1"
       d="m -205.78851,279.9849 0.01,0.12485 0.0385,0.12485 0.0482,0.10565 0.0771,0.10564 0.0867,0.0864 0.10595,0.0768 0.10595,0.048 0.12522,0.0384 0.12522,0.01 0.12521,-0.01 0.12522,-0.0384 0.11559,-0.048 0.0963,-0.0768 0.0867,-0.0864 0.0771,-0.10564 0.0482,-0.10565 0.0385,-0.12485 0.01,-0.12485"
       id="path34-3" /><path
       style="fill:none;stroke:none;stroke-width:0.00963211px;stroke-linecap:round;stroke-linejoin:round;stroke-miterlimit:4;stroke-dasharray:none;stroke-opacity:1"
       d="m -204.3437,279.9849 v -8.5476"
       id="path35-4" /><path
       style="fill:none;stroke:none;stroke-width:0.00963211px;stroke-linecap:round;stroke-linejoin:round;stroke-miterlimit:4;stroke-dasharray:none;stroke-opacity:1"
       d="m -204.3437,271.4373 -0.01,-0.12486 -0.0385,-0.12485 -0.0482,-0.11525 -0.0771,-0.096 -0.0867,-0.0864 -0.0963,-0.0768 -0.11558,-0.048 -0.12522,-0.0384 -0.12522,-0.01 -0.12522,0.01 -0.12521,0.0384 -0.10596,0.048 -0.10595,0.0768 -0.0867,0.0864 -0.0771,0.096 -0.0482,0.11525 -0.0385,0.12485 -0.01,0.12486"
       id="path36-4" /><path
       style="fill:none;stroke:none;stroke-width:0.00963211px;stroke-linecap:round;stroke-linejoin:round;stroke-miterlimit:4;stroke-dasharray:none;stroke-opacity:1"
       d="m -205.78851,271.4373 v 0.66267"
       id="path37-4" /><path
       style="fill:none;stroke:none;stroke-width:0.00963211px;stroke-linecap:round;stroke-linejoin:round;stroke-miterlimit:4;stroke-dasharray:none;stroke-opacity:1"
       d="m -208.68778,274.98119 0.25044,-0.01 0.25043,-0.0384 0.25043,-0.048 0.24081,-0.0768 0.23117,-0.096 0.22154,-0.11525 0.2119,-0.13446 0.20228,-0.15366 0.18301,-0.17288 0.17337,-0.18247 0.15412,-0.20169 0.13485,-0.21129 0.11559,-0.22089 0.0963,-0.2305 0.0771,-0.2401 0.0482,-0.2497 0.0385,-0.24971 0.01,-0.2497"
       id="path38-7" /><path
       style="fill:none;stroke:none;stroke-width:0.00963211px;stroke-linecap:round;stroke-linejoin:round;stroke-miterlimit:4;stroke-dasharray:none;stroke-opacity:1"
       d="m -208.68778,274.99079 h -7.24335"
       id="path39-3" /><path
       style="fill:none;stroke:none;stroke-width:0.00963211px;stroke-linecap:round;stroke-linejoin:round;stroke-miterlimit:4;stroke-dasharray:none;stroke-opacity:1"
       d="m -237.65153,275.0004 -0.50087,0.01 -0.5105,0.0384 -0.50087,0.048 -0.50087,0.0768 -0.49124,0.10564 -0.49123,0.11525 -0.49124,0.14406 -0.47197,0.16327 -0.47198,0.18247 -0.46234,0.20169 -0.45271,0.22089 -0.44307,0.2401 -0.43345,0.25931 -0.42381,0.28813 -0.40455,0.29772 -0.39492,0.30733 -0.38528,0.33614 -0.36602,0.34575 -0.34676,0.36495 -0.33712,0.38416 -0.30823,0.39377 -0.29859,0.40337 -0.28897,0.42257 -0.26006,0.42258 -0.24081,0.45139 -0.22154,0.45139 -0.20227,0.461 -0.18301,0.4706 -0.16374,0.47059 -0.14449,0.48981 -0.11558,0.48981 -0.10595,0.4898 -0.0771,0.49941 -0.0482,0.49941 -0.0385,0.50902 -0.01,0.49941"
       id="path40-7" /><path
       style="fill:none;stroke:none;stroke-width:0.00963211px;stroke-linecap:round;stroke-linejoin:round;stroke-miterlimit:4;stroke-dasharray:none;stroke-opacity:1"
       d="m -237.65153,276.441 -0.47197,0.01 -0.46234,0.0288 -0.46234,0.0576 -0.46234,0.0768 -0.46235,0.096 -0.4527,0.11525 -0.44308,0.14406 -0.44308,0.15366 -0.43344,0.18248 -0.42382,0.19208 -0.41418,0.2209 -0.40455,0.2401 -0.39491,0.2497 -0.37565,0.27852 -0.36602,0.28812 -0.35639,0.30733 -0.33712,0.31693 -0.31786,0.34575 -0.30823,0.34575 -0.2986,0.36495 -0.2697,0.38416 -0.25043,0.39377 -0.2408,0.40337 -0.22154,0.41297 -0.19264,0.42258 -0.18301,0.43218 -0.15412,0.43218 -0.14448,0.45139 -0.11559,0.45139 -0.0963,0.461 -0.0771,0.46099 -0.0578,0.461 -0.0289,0.46099 -0.01,0.4706"
       id="path41-2" /><path
       style="fill:none;stroke:none;stroke-width:0.00963211px;stroke-linecap:round;stroke-linejoin:round;stroke-miterlimit:4;stroke-dasharray:none;stroke-opacity:1"
       d="m -245.62691,275.7111 -0.01,-0.25931 -0.0385,-0.25931 -0.0578,-0.24971 -0.0771,-0.2401 -0.10596,-0.2401 -0.11558,-0.2305 -0.14448,-0.21129 -0.16375,-0.20168 -0.18301,-0.19208 -0.19264,-0.17287 -0.21191,-0.14407 -0.22154,-0.13445 -0.23117,-0.11525 -0.2408,-0.0864 -0.25043,-0.0672 -0.26007,-0.048 -0.26007,-0.0288 h -0.25043 l -0.26007,0.0288 -0.26007,0.048 -0.25043,0.0672 -0.2408,0.0864 -0.23117,0.11525 -0.22154,0.13445 -0.21191,0.14407 -0.19264,0.17287 -0.18301,0.19208 -0.16375,0.20168 -0.14448,0.21129 -0.11558,0.2305 -0.10596,0.2401 -0.0771,0.2401 -0.0578,0.24971 -0.0385,0.25931 -0.01,0.25931 0.01,0.2593 0.0385,0.25931 0.0578,0.24971 0.0771,0.2401 0.10596,0.2401 0.11558,0.2305 0.14448,0.21129 0.16375,0.20168 0.18301,0.19208 0.19264,0.17288 0.21191,0.14406 0.22154,0.13445 0.23117,0.11525 0.2408,0.0864 0.25043,0.0672 0.26007,0.048 0.26007,0.0288 h 0.25043 l 0.26007,-0.0288 0.26007,-0.048 0.25043,-0.0672 0.2408,-0.0864 0.23117,-0.11525 0.22154,-0.13445 0.21191,-0.14406 0.19264,-0.17288 0.18301,-0.19208 0.16375,-0.20168 0.14448,-0.21129 0.11558,-0.2305 0.10596,-0.2401 0.0771,-0.2401 0.0578,-0.24971 0.0385,-0.25931 z"
       id="path42-0" /><path
       style="fill:none;stroke:none;stroke-width:0.00963211px;stroke-linecap:round;stroke-linejoin:round;stroke-miterlimit:4;stroke-dasharray:none;stroke-opacity:1"
       d="m -259.38156,276.42179 0.50087,-0.01 0.5105,-0.0384 0.50087,-0.048 0.50087,-0.0768 0.49124,-0.10564 0.49123,-0.11525 0.49124,-0.14406 0.47197,-0.16327 0.47198,-0.18248 0.46234,-0.20168 0.45271,-0.2209 0.45271,-0.2401 0.42381,-0.25931 0.42381,-0.28812 0.40455,-0.29772 0.39492,-0.30733 0.38528,-0.33614 0.36602,-0.34575 0.34676,-0.36495 0.33712,-0.38416 0.30823,-0.39377 0.29859,-0.40337 0.28897,-0.42258 0.26006,-0.43218 0.24081,-0.44179 0.22154,-0.45139 0.20227,-0.46099 0.18301,-0.4706 0.16375,-0.4706 0.14448,-0.4898 0.11558,-0.48981 0.10595,-0.48981 0.0771,-0.49941 0.0482,-0.49941 0.0385,-0.50901 0.01,-0.49941"
       id="path43-3" /><path
       style="fill:none;stroke:none;stroke-width:0.00963211px;stroke-linecap:round;stroke-linejoin:round;stroke-miterlimit:4;stroke-dasharray:none;stroke-opacity:1"
       d="m -259.38156,274.98119 0.47197,-0.01 0.46234,-0.0288 0.46234,-0.0576 0.46234,-0.0768 0.46235,-0.096 0.45271,-0.11525 0.44307,-0.14406 0.44308,-0.15367 0.43344,-0.18248 0.42382,-0.19208 0.41418,-0.22089 0.40455,-0.2401 0.39491,-0.24971 0.37565,-0.27851 0.36602,-0.28812 0.35639,-0.30733 0.33713,-0.31694 0.31786,-0.34574 0.30822,-0.34575 0.2986,-0.36495 0.2697,-0.38416 0.25043,-0.39377 0.24081,-0.40337 0.22153,-0.41297 0.19265,-0.42258 0.18301,-0.43218 0.15411,-0.43219 0.14448,-0.45139 0.11559,-0.45139 0.0963,-0.46099 0.0771,-0.46099 0.0578,-0.461 0.0289,-0.46099 0.01,-0.4706"
       id="path44-3" /><path
       style="fill:none;stroke:none;stroke-width:0.00963211px;stroke-linecap:round;stroke-linejoin:round;stroke-miterlimit:4;stroke-dasharray:none;stroke-opacity:1"
       d="m -259.38156,276.4314 h -7.96576"
       id="path45-7" /><path
       style="fill:none;stroke:none;stroke-width:0.00963211px;stroke-linecap:round;stroke-linejoin:round;stroke-miterlimit:4;stroke-dasharray:none;stroke-opacity:1"
       d="m -270.95936,272.82028 0.01,0.28812 0.0385,0.27852 0.0482,0.27851 0.0771,0.26892 0.10595,0.26891 0.11559,0.25931 0.13485,0.2401 0.16374,0.2401 0.17338,0.2209 0.19264,0.21128 0.20228,0.19208 0.23117,0.17288 0.23117,0.16327 0.25043,0.13445 0.25044,0.11525 0.2697,0.10564 0.2697,0.0768 0.27933,0.048 0.28896,0.0384 0.27933,0.01"
       id="path46-5" /><path
       style="fill:none;stroke:none;stroke-width:0.00963211px;stroke-linecap:round;stroke-linejoin:round;stroke-miterlimit:4;stroke-dasharray:none;stroke-opacity:1"
       d="m -270.96899,272.82028 v -7.95215"
       id="path47-8" /><path
       style="fill:none;stroke:none;stroke-width:0.00963211px;stroke-linecap:round;stroke-linejoin:round;stroke-miterlimit:4;stroke-dasharray:none;stroke-opacity:1"
       d="m -259.38156,274.99079 h -7.96576"
       id="path48-9" /><path
       style="fill:none;stroke:none;stroke-width:0.00963211px;stroke-linecap:round;stroke-linejoin:round;stroke-miterlimit:4;stroke-dasharray:none;stroke-opacity:1"
       d="m -269.51454,272.82028 0.01,0.21129 0.0289,0.21129 0.0578,0.20168 0.0674,0.20168 0.0963,0.19209 0.10595,0.18247 0.12522,0.17288 0.14448,0.15366 0.15411,0.14406 0.17338,0.12485 0.18301,0.10565 0.19264,0.096 0.20228,0.0672 0.20227,0.0576 0.21191,0.0288 0.2119,0.01"
       id="path49-7" /><path
       style="fill:none;stroke:none;stroke-width:0.00963211px;stroke-linecap:round;stroke-linejoin:round;stroke-miterlimit:4;stroke-dasharray:none;stroke-opacity:1"
       d="m -269.52417,272.82028 v -7.95215"
       id="path50-0" /><path
       style="fill:none;stroke:none;stroke-width:0.00963211px;stroke-linecap:round;stroke-linejoin:round;stroke-miterlimit:4;stroke-dasharray:none;stroke-opacity:1"
       d="m -259.38156,254.75507 h 2.44655"
       id="path51-3" /><path
       style="fill:none;stroke:none;stroke-width:0.00963211px;stroke-linecap:round;stroke-linejoin:round;stroke-miterlimit:4;stroke-dasharray:none;stroke-opacity:1"
       d="m -256.93501,254.74546 0.24081,-0.01 0.23117,-0.0288 0.23117,-0.048 0.23117,-0.0672 0.22154,-0.0864 0.2119,-0.10565 0.21191,-0.12485 0.19264,-0.13446 0.18301,-0.15366 0.16375,-0.16327 0.15411,-0.18248 0.14448,-0.19208 0.11559,-0.20168 0.10595,-0.21129 0.0867,-0.22089 0.0674,-0.2305"
       id="path52-1" /><path
       style="fill:none;stroke:none;stroke-width:0.00963211px;stroke-linecap:round;stroke-linejoin:round;stroke-miterlimit:4;stroke-dasharray:none;stroke-opacity:1"
       d="m -248.51654,248.26273 -0.34676,0.01 -0.34676,0.0288 -0.33712,0.0576 -0.34676,0.0672 -0.32749,0.096 -0.32749,0.10565 -0.32749,0.13445 -0.30823,0.15367 -0.30823,0.16327 -0.28896,0.19208 -0.27933,0.20168 -0.2697,0.2209 -0.25043,0.23049 -0.24081,0.24971 -0.22153,0.26891 -0.21191,0.27852 -0.19264,0.28812 -0.17338,0.29773 -0.15412,0.30733 -0.13484,0.31693 -0.11559,0.32654 -0.0963,0.33614"
       id="path53-7" /><path
       style="fill:none;stroke:none;stroke-width:0.00963211px;stroke-linecap:round;stroke-linejoin:round;stroke-miterlimit:4;stroke-dasharray:none;stroke-opacity:1"
       d="m -242.72765,254.03476 -0.01,-0.34574 -0.0289,-0.34575 -0.0578,-0.34574 -0.0674,-0.34575 -0.0963,-0.33614 -0.11558,-0.32654 -0.13485,-0.32653 -0.15411,-0.30733 -0.17338,-0.30733 -0.18301,-0.28812 -0.21191,-0.28813 -0.22154,-0.26891 -0.2408,-0.2497 -0.25043,-0.24011 -0.2697,-0.22089 -0.28897,-0.21129 -0.28896,-0.18247 -0.30823,-0.17288 -0.30822,-0.15366 -0.32749,-0.13446 -0.3275,-0.11525 -0.33712,-0.096 -0.34676,-0.0672 -0.34675,-0.0576 -0.34676,-0.0288 -0.34675,-0.01"
       id="path54-0" /><path
       style="fill:none;stroke:none;stroke-width:0.00963211px;stroke-linecap:round;stroke-linejoin:round;stroke-miterlimit:4;stroke-dasharray:none;stroke-opacity:1"
       d="m -247.07173,259.62432 0.33713,-0.096 0.32749,-0.11525 0.31786,-0.13446 0.30822,-0.15366 0.2986,-0.17287 0.28896,-0.19209 0.27933,-0.21128 0.2697,-0.2209 0.25044,-0.2401 0.23117,-0.2497 0.22154,-0.26892 0.20227,-0.27851 0.19264,-0.28813 0.16375,-0.30732 0.15411,-0.30733 0.13485,-0.32654 0.10595,-0.32654 0.0963,-0.32654 0.0674,-0.34574 0.0578,-0.33614 0.0289,-0.34575 0.01,-0.34575"
       id="path55-3" /><path
       style="fill:none;stroke:none;stroke-width:0.00963211px;stroke-linecap:round;stroke-linejoin:round;stroke-miterlimit:4;stroke-dasharray:none;stroke-opacity:1"
       d="m -247.07173,259.64353 -0.23117,0.0672 -0.22154,0.0864 -0.2119,0.10564 -0.20228,0.11525 -0.19264,0.14406 -0.18301,0.15367 -0.16375,0.16326 -0.15411,0.18248 -0.13485,0.19208 -0.12522,0.21129 -0.10595,0.21129 -0.0867,0.22089 -0.0674,0.2305 -0.0482,0.2305 -0.0289,0.2305 -0.01,0.2401"
       id="path56-0" /><path
       style="fill:none;stroke:none;stroke-width:0.00963211px;stroke-linecap:round;stroke-linejoin:round;stroke-miterlimit:4;stroke-dasharray:none;stroke-opacity:1"
       d="m -249.23895,262.4287 v 2.43943"
       id="path57-6" /><path
       style="fill:none;stroke:none;stroke-width:0.00963211px;stroke-linecap:round;stroke-linejoin:round;stroke-miterlimit:4;stroke-dasharray:none;stroke-opacity:1"
       d="m -259.38156,253.31446 h 2.44655"
       id="path58-2" /><path
       style="fill:none;stroke:none;stroke-width:0.00963211px;stroke-linecap:round;stroke-linejoin:round;stroke-miterlimit:4;stroke-dasharray:none;stroke-opacity:1"
       d="m -256.93501,253.30486 0.15412,-0.01 0.16374,-0.0288 0.15412,-0.0384 0.14448,-0.0576 0.13485,-0.0768 0.13485,-0.0864 0.11558,-0.10565 0.10596,-0.11525 0.0963,-0.13445 0.0867,-0.13446 0.0578,-0.14406 0.0482,-0.15366"
       id="path59-3" /><path
       style="fill:none;stroke:none;stroke-width:0.00963211px;stroke-linecap:round;stroke-linejoin:round;stroke-miterlimit:4;stroke-dasharray:none;stroke-opacity:1"
       d="m -248.51654,246.81252 -0.39492,0.01 -0.39492,0.0384 -0.39491,0.048 -0.39492,0.0768 -0.38528,0.096 -0.37566,0.11524 -0.37565,0.14406 -0.35639,0.15367 -0.35638,0.18248 -0.34676,0.20168 -0.33712,0.21129 -0.31786,0.2305 -0.30823,0.25931 -0.28896,0.26891 -0.27934,0.27852 -0.26006,0.29772 -0.25044,0.31694 -0.22154,0.31693 -0.2119,0.34575 -0.19264,0.34574 -0.17338,0.35535 -0.14448,0.36495 -0.13485,0.37456 -0.10596,0.38416"
       id="path60-0" /><path
       style="fill:none;stroke:none;stroke-width:0.00963211px;stroke-linecap:round;stroke-linejoin:round;stroke-miterlimit:4;stroke-dasharray:none;stroke-opacity:1"
       d="m -241.28283,254.03476 -0.01,-0.40337 -0.0385,-0.40337 -0.0578,-0.40337 -0.077,-0.39376 -0.0963,-0.39377 -0.12522,-0.38416 -0.14448,-0.38416 -0.16375,-0.36495 -0.19264,-0.36496 -0.20227,-0.34574 -0.23117,-0.33615 -0.24081,-0.32653 -0.26006,-0.30733 -0.27933,-0.29773 -0.2986,-0.27851 -0.30823,-0.25931 -0.31786,-0.24011 -0.33712,-0.23049 -0.35639,-0.20169 -0.35639,-0.19208 -0.37565,-0.16327 -0.37565,-0.14406 -0.38529,-0.12485 -0.39491,-0.096 -0.39492,-0.0768 -0.40455,-0.0576 -0.40455,-0.0384 -0.40454,-0.01"
       id="path61-0" /><path
       style="fill:none;stroke:none;stroke-width:0.00963211px;stroke-linecap:round;stroke-linejoin:round;stroke-miterlimit:4;stroke-dasharray:none;stroke-opacity:1"
       d="m -246.70571,261.02651 0.37565,-0.10564 0.37566,-0.13446 0.36602,-0.15367 0.36602,-0.16326 0.34675,-0.19209 0.33713,-0.21128 0.32749,-0.2305 0.30823,-0.2401 0.29859,-0.25931 0.28896,-0.27852 0.2697,-0.29773 0.25044,-0.29772 0.23117,-0.32654 0.22154,-0.32654 0.19264,-0.34574 0.18301,-0.35535 0.15411,-0.36495 0.14448,-0.37456 0.11559,-0.37456 0.0963,-0.38416 0.0771,-0.39377 0.0482,-0.39376 0.0385,-0.39377 0.01,-0.39377"
       id="path62-3" /><path
       style="fill:none;stroke:none;stroke-width:0.00963211px;stroke-linecap:round;stroke-linejoin:round;stroke-miterlimit:4;stroke-dasharray:none;stroke-opacity:1"
       d="m -246.70571,261.03611 -0.15411,0.048 -0.14448,0.0576 -0.13485,0.0864 -0.13485,0.096 -0.11559,0.10565 -0.10595,0.11525 -0.0867,0.13445 -0.0771,0.13446 -0.0578,0.14406 -0.0385,0.15366 -0.0289,0.16327 -0.01,0.15367"
       id="path63-6" /><path
       style="fill:none;stroke:none;stroke-width:0.00963211px;stroke-linecap:round;stroke-linejoin:round;stroke-miterlimit:4;stroke-dasharray:none;stroke-opacity:1"
       d="m -247.79414,262.4287 v 2.43943"
       id="path64-0" /><path
       style="fill:none;stroke:none;stroke-width:0.00963211px;stroke-linecap:round;stroke-linejoin:round;stroke-miterlimit:4;stroke-dasharray:none;stroke-opacity:1"
       d="m -245.62691,254.03476 -0.01,-0.2593 -0.0385,-0.25931 -0.0578,-0.24971 -0.0771,-0.2401 -0.10596,-0.2401 -0.11558,-0.2305 -0.14448,-0.21129 -0.16375,-0.20168 -0.18301,-0.19208 -0.19264,-0.17288 -0.21191,-0.14406 -0.22154,-0.13445 -0.23117,-0.11525 -0.2408,-0.0864 -0.25043,-0.0672 -0.26007,-0.048 -0.26007,-0.0288 h -0.25043 l -0.26007,0.0288 -0.26007,0.048 -0.25043,0.0672 -0.2408,0.0864 -0.23117,0.11525 -0.22154,0.13445 -0.21191,0.14406 -0.19264,0.17288 -0.18301,0.19208 -0.16375,0.20168 -0.14448,0.21129 -0.11558,0.2305 -0.10596,0.2401 -0.0771,0.2401 -0.0578,0.24971 -0.0385,0.25931 -0.01,0.2593 0.01,0.25931 0.0385,0.25931 0.0578,0.24971 0.0771,0.2401 0.10596,0.2401 0.11558,0.2305 0.14448,0.21129 0.16375,0.20168 0.18301,0.19208 0.19264,0.17288 0.21191,0.14406 0.22154,0.13445 0.23117,0.11525 0.2408,0.0864 0.25043,0.0672 0.26007,0.048 0.26007,0.0288 h 0.25043 l 0.26007,-0.0288 0.26007,-0.048 0.25043,-0.0672 0.2408,-0.0864 0.23117,-0.11525 0.22154,-0.13445 0.21191,-0.14406 0.19264,-0.17288 0.18301,-0.19208 0.16375,-0.20168 0.14448,-0.21129 0.11558,-0.2305 0.10596,-0.2401 0.0771,-0.2401 0.0578,-0.24971 0.0385,-0.25931 z"
       id="path65-4" /><path
       style="fill:none;stroke:none;stroke-width:0.00963211px;stroke-linecap:round;stroke-linejoin:round;stroke-miterlimit:4;stroke-dasharray:none;stroke-opacity:1"
       d="m -244.17246,254.03476 -0.01,-0.31693 -0.0385,-0.31693 -0.0578,-0.30733 -0.077,-0.30733 -0.10596,-0.29773 -0.12522,-0.28812 -0.14448,-0.28812 -0.16374,-0.26891 -0.18301,-0.25931 -0.20228,-0.2401 -0.22153,-0.2305 -0.24081,-0.21129 -0.25043,-0.19208 -0.26007,-0.17287 -0.27933,-0.15367 -0.28896,-0.13445 -0.28897,-0.11525 -0.30822,-0.0864 -0.30823,-0.0672 -0.31786,-0.048 -0.31786,-0.0288 h -0.30823 l -0.31786,0.0288 -0.31786,0.048 -0.30822,0.0672 -0.30823,0.0864 -0.28897,0.11524 -0.28896,0.13446 -0.27933,0.15367 -0.26007,0.17287 -0.25043,0.19208 -0.2408,0.21129 -0.22154,0.2305 -0.20228,0.2401 -0.18301,0.25931 -0.16374,0.26891 -0.14448,0.28812 -0.12522,0.28812 -0.10595,0.29773 -0.0771,0.30733 -0.0578,0.30733 -0.0385,0.31693 -0.01,0.31693 0.01,0.31694 0.0385,0.31693 0.0578,0.30733 0.0771,0.30733 0.10595,0.29772 0.12522,0.28813 0.14448,0.28812 0.16374,0.26891 0.18301,0.25931 0.20228,0.2401 0.22154,0.2305 0.2408,0.21129 0.25043,0.19208 0.26007,0.17287 0.27933,0.15367 0.28896,0.13445 0.28897,0.11525 0.30823,0.0864 0.30822,0.0672 0.31786,0.048 0.31786,0.0288 h 0.30823 l 0.31786,-0.0288 0.31786,-0.048 0.30823,-0.0672 0.30822,-0.0864 0.28897,-0.11525 0.28896,-0.13445 0.27933,-0.15367 0.26007,-0.17287 0.25043,-0.19208 0.24081,-0.21129 0.22153,-0.2305 0.20228,-0.2401 0.18301,-0.25931 0.16374,-0.26891 0.14448,-0.28812 0.12522,-0.28813 0.10596,-0.29772 0.0771,-0.30733 0.0578,-0.30733 0.0385,-0.31693 z"
       id="path66-1" /><path
       style="fill:none;stroke:none;stroke-width:0.00963211px;stroke-linecap:round;stroke-linejoin:round;stroke-miterlimit:4;stroke-dasharray:none;stroke-opacity:1"
       d="m -270.95936,264.85852 v -4.83083"
       id="path67-8" /><path
       style="fill:none;stroke:none;stroke-width:0.00963211px;stroke-linecap:round;stroke-linejoin:round;stroke-miterlimit:4;stroke-dasharray:none;stroke-opacity:1"
       d="m -270.96899,260.02769 -0.01,-0.20169 -0.0193,-0.20168 -0.0482,-0.20169 -0.0578,-0.19208 -0.077,-0.19208 -0.0867,-0.18247 -0.10596,-0.17288 -0.11558,-0.16327 -0.13485,-0.15366 -0.14448,-0.14406 -0.15412,-0.13446 -0.16374,-0.11525"
       id="path68-3" /><path
       style="fill:none;stroke:none;stroke-width:0.00963211px;stroke-linecap:round;stroke-linejoin:round;stroke-miterlimit:4;stroke-dasharray:none;stroke-opacity:1"
       d="m -266.40337,252.00831 -0.16374,-0.27852 -0.17338,-0.25931 -0.20228,-0.2497 -0.2119,-0.2305 -0.23117,-0.21129 -0.24081,-0.20168 -0.26006,-0.18248 -0.27933,-0.16327 -0.27934,-0.13445 -0.28896,-0.12486 -0.29859,-0.096 -0.30823,-0.0768 -0.31786,-0.0576 -0.30823,-0.0288 -0.31786,-0.01 -0.31786,0.0192 -0.31786,0.0288 -0.30822,0.0672 -0.30823,0.0768 -0.2986,0.10565 -0.28896,0.12485 -0.27933,0.15366 -0.2697,0.16327 -0.25044,0.18248 -0.2408,0.20168 -0.23117,0.2209 -0.21191,0.2401 -0.19264,0.2497 -0.17338,0.26892 -0.14448,0.26891 -0.13485,0.28812 -0.11558,0.29773 -0.0867,0.30733 -0.0674,0.30733 -0.0482,0.30732 -0.0193,0.31694 v 0.31693 l 0.0289,0.31694 0.0482,0.30732 0.0674,0.30733 0.0963,0.30733 0.11559,0.28812 0.13485,0.28813 0.15411,0.26891 0.17338,0.26891 0.19264,0.24971 0.21191,0.23049 0.23117,0.2209 0.2408,0.20168 0.26007,0.18248 0.2697,0.16327 0.28896,0.14406"
       id="path69-1" /><path
       style="fill:none;stroke:none;stroke-width:0.00963211px;stroke-linecap:round;stroke-linejoin:round;stroke-miterlimit:4;stroke-dasharray:none;stroke-opacity:1"
       d="m -266.39374,251.99871 0.10596,0.19208 0.13485,0.18247 0.14448,0.16327 0.15411,0.15367 0.17338,0.14406 0.19264,0.11525 0.19264,0.10564 0.20228,0.096 0.2119,0.0672 0.21191,0.048 0.22154,0.0288 0.22154,0.01"
       id="path70-9" /><path
       style="fill:none;stroke:none;stroke-width:0.00963211px;stroke-linecap:round;stroke-linejoin:round;stroke-miterlimit:4;stroke-dasharray:none;stroke-opacity:1"
       d="m -264.22651,253.31446 h 4.84495"
       id="path71-3" /><path
       style="fill:none;stroke:none;stroke-width:0.00963211px;stroke-linecap:round;stroke-linejoin:round;stroke-miterlimit:4;stroke-dasharray:none;stroke-opacity:1"
       d="m -269.51454,264.85852 v -4.83083"
       id="path72-5" /><path
       style="fill:none;stroke:none;stroke-width:0.00963211px;stroke-linecap:round;stroke-linejoin:round;stroke-miterlimit:4;stroke-dasharray:none;stroke-opacity:1"
       d="m -268.19494,257.86678 -0.19264,0.10564 -0.18301,0.13446 -0.16375,0.14406 -0.15411,0.15367 -0.14448,0.17287 -0.11559,0.19208 -0.10595,0.19208 -0.0963,0.20168 -0.0674,0.21129 -0.0482,0.21129 -0.0289,0.2209 -0.01,0.22089"
       id="path73-3" /><path
       style="fill:none;stroke:none;stroke-width:0.00963211px;stroke-linecap:round;stroke-linejoin:round;stroke-miterlimit:4;stroke-dasharray:none;stroke-opacity:1"
       d="m -268.20457,257.84757 0.18301,-0.10564 0.18301,-0.11525 0.17338,-0.12486 0.17337,-0.12485 0.16375,-0.14406 0.15411,-0.14406"
       id="path74-4" /><path
       style="fill:none;stroke:none;stroke-width:0.00963211px;stroke-linecap:round;stroke-linejoin:round;stroke-miterlimit:4;stroke-dasharray:none;stroke-opacity:1"
       d="m -267.17394,257.09845 0.14448,-0.15366 0.14449,-0.16327 0.13485,-0.17287 0.12521,-0.17287 0.11559,-0.18248 0.10595,-0.19208"
       id="path75-6" /><path
       style="fill:none;stroke:none;stroke-width:0.00963211px;stroke-linecap:round;stroke-linejoin:round;stroke-miterlimit:4;stroke-dasharray:none;stroke-opacity:1"
       d="m -264.22651,254.76467 -0.22154,0.01 -0.22154,0.0288 -0.21191,0.048 -0.2119,0.0672 -0.20228,0.096 -0.19264,0.10564 -0.19264,0.11525 -0.17338,0.14406 -0.15411,0.15367 -0.14448,0.16326 -0.13485,0.18248 -0.10596,0.19208"
       id="path76-5" /><path
       style="fill:none;stroke:none;stroke-width:0.00963211px;stroke-linecap:round;stroke-linejoin:round;stroke-miterlimit:4;stroke-dasharray:none;stroke-opacity:1"
       d="m -264.22651,254.75507 h 4.84495"
       id="path77-7" /><path
       style="fill:none;stroke:none;stroke-width:0.00963211px;stroke-linecap:round;stroke-linejoin:round;stroke-miterlimit:4;stroke-dasharray:none;stroke-opacity:1"
       d="m -267.35695,254.03476 -0.01,-0.2593 -0.0385,-0.25931 -0.0578,-0.24971 -0.0771,-0.2401 -0.10595,-0.2401 -0.11559,-0.2305 -0.14448,-0.21129 -0.16374,-0.20168 -0.18301,-0.19208 -0.19265,-0.17288 -0.2119,-0.14406 -0.22154,-0.13445 -0.23117,-0.11525 -0.2408,-0.0864 -0.25044,-0.0672 -0.26007,-0.048 -0.26006,-0.0288 h -0.25044 l -0.26006,0.0288 -0.26007,0.048 -0.25044,0.0672 -0.2408,0.0864 -0.23117,0.11525 -0.22154,0.13445 -0.2119,0.14406 -0.19265,0.17288 -0.18301,0.19208 -0.16374,0.20168 -0.14448,0.21129 -0.11559,0.2305 -0.10595,0.2401 -0.0771,0.2401 -0.0578,0.24971 -0.0385,0.25931 -0.01,0.2593 0.01,0.25931 0.0385,0.25931 0.0578,0.24971 0.0771,0.2401 0.10595,0.2401 0.11559,0.2305 0.14448,0.21129 0.16374,0.20168 0.18301,0.19208 0.19265,0.17288 0.2119,0.14406 0.22154,0.13445 0.23117,0.11525 0.2408,0.0864 0.25044,0.0672 0.26007,0.048 0.26006,0.0288 h 0.25044 l 0.26006,-0.0288 0.26007,-0.048 0.25044,-0.0672 0.2408,-0.0864 0.23117,-0.11525 0.22154,-0.13445 0.2119,-0.14406 0.19265,-0.17288 0.18301,-0.19208 0.16374,-0.20168 0.14448,-0.21129 0.11559,-0.2305 0.10595,-0.2401 0.0771,-0.2401 0.0578,-0.24971 0.0385,-0.25931 z"
       id="path78-1" /><path
       style="fill:none;stroke:none;stroke-width:0.00963211px;stroke-linecap:round;stroke-linejoin:round;stroke-miterlimit:4;stroke-dasharray:none;stroke-opacity:1"
       d="m -259.38156,298.10773 0.50087,-0.01 0.5105,-0.0384 0.50087,-0.048 0.50087,-0.0768 0.49124,-0.10565 0.49123,-0.11524 0.49124,-0.14407 0.47197,-0.16326 0.47198,-0.18248 0.46234,-0.20169 0.45271,-0.22089 0.45271,-0.2401 0.42381,-0.25931 0.42381,-0.28812 0.40455,-0.29773 0.39492,-0.30733 0.38528,-0.33614 0.36602,-0.34574 0.34676,-0.36496 0.33712,-0.38416 0.30823,-0.39376 0.29859,-0.40337 0.28897,-0.42258 0.26006,-0.42258 0.24081,-0.45139 0.22154,-0.45139 0.20227,-0.46099 0.18301,-0.4706 0.16375,-0.4706 0.14448,-0.48981 0.11558,-0.4898 0.10595,-0.48981 0.0771,-0.49941 0.0482,-0.49941 0.0385,-0.50901 0.01,-0.49942"
       id="path79-9" /><path
       style="fill:none;stroke:none;stroke-width:0.00963211px;stroke-linecap:round;stroke-linejoin:round;stroke-miterlimit:4;stroke-dasharray:none;stroke-opacity:1"
       d="m -259.38156,296.66712 0.47197,-0.01 0.46234,-0.0288 0.46234,-0.0576 0.46234,-0.0768 0.46235,-0.096 0.45271,-0.11525 0.44307,-0.14406 0.44308,-0.15366 0.43344,-0.18248 0.42382,-0.19208 0.41418,-0.22089 0.40455,-0.2401 0.39491,-0.24971 0.37565,-0.27852 0.36602,-0.28812 0.35639,-0.30733 0.33713,-0.31693 0.31786,-0.34575 0.30822,-0.34574 0.2986,-0.36496 0.2697,-0.38416 0.25043,-0.39376 0.24081,-0.40337 0.22153,-0.41298 0.19265,-0.42258 0.18301,-0.43218 0.15411,-0.43218 0.14448,-0.45139 0.11559,-0.45139 0.0963,-0.46099 0.0771,-0.461 0.0578,-0.46099 0.0289,-0.461 0.01,-0.4706"
       id="path80-2" /><path
       style="fill:none;stroke:none;stroke-width:0.00963211px;stroke-linecap:round;stroke-linejoin:round;stroke-miterlimit:4;stroke-dasharray:none;stroke-opacity:1"
       d="m -267.35695,297.38743 -0.01,-0.25931 -0.0385,-0.25931 -0.0578,-0.24971 -0.0771,-0.2401 -0.10595,-0.2401 -0.11559,-0.2305 -0.14448,-0.21128 -0.16374,-0.20169 -0.18301,-0.19208 -0.19265,-0.17287 -0.2119,-0.14406 -0.22154,-0.13446 -0.23117,-0.11525 -0.2408,-0.0864 -0.25044,-0.0672 -0.26007,-0.048 -0.26006,-0.0288 h -0.25044 l -0.26006,0.0288 -0.26007,0.048 -0.25044,0.0672 -0.2408,0.0864 -0.23117,0.11525 -0.22154,0.13446 -0.2119,0.14406 -0.19265,0.17287 -0.18301,0.19208 -0.16374,0.20169 -0.14448,0.21129 -0.11559,0.23049 -0.10595,0.24011 -0.0771,0.2401 -0.0578,0.2497 -0.0385,0.25931 -0.01,0.25931 0.01,0.25931 0.0385,0.25931 0.0578,0.2497 0.0771,0.24011 0.10595,0.2401 0.11559,0.23049 0.14448,0.21129 0.16374,0.20169 0.18301,0.19208 0.19265,0.17287 0.2119,0.14406 0.22154,0.13446 0.23117,0.11525 0.2408,0.0864 0.25044,0.0672 0.26007,0.048 0.26006,0.0288 h 0.25044 l 0.26006,-0.0288 0.26007,-0.048 0.25044,-0.0672 0.2408,-0.0864 0.23117,-0.11525 0.22154,-0.13446 0.2119,-0.14406 0.19265,-0.17287 0.18301,-0.19208 0.16374,-0.20169 0.14448,-0.21129 0.11559,-0.23049 0.10595,-0.2401 0.0771,-0.24011 0.0578,-0.2497 0.0385,-0.25931 z"
       id="path81-0" /><path
       style="fill:none;stroke:none;stroke-width:0.00963211px;stroke-linecap:round;stroke-linejoin:round;stroke-miterlimit:4;stroke-dasharray:none;stroke-opacity:1"
       d="m -259.38156,296.66712 h -4.34408"
       id="path82-9" /><path
       style="fill:none;stroke:none;stroke-width:0.00963211px;stroke-linecap:round;stroke-linejoin:round;stroke-miterlimit:4;stroke-dasharray:none;stroke-opacity:1"
       d="m -263.72564,296.66712 -0.12522,0.01 -0.12522,0.0384 -0.10595,0.048 -0.10595,0.0768 -0.0867,0.0864 -0.0771,0.096 -0.0482,0.11525 -0.0385,0.12486 -0.01,0.12485 0.01,0.12485 0.0385,0.12486 0.0482,0.10564 0.0771,0.10564 0.0867,0.0864 0.10595,0.0768 0.10595,0.048 0.12522,0.0384 0.12522,0.01"
       id="path83-0" /><path
       style="fill:none;stroke:none;stroke-width:0.00963211px;stroke-linecap:round;stroke-linejoin:round;stroke-miterlimit:4;stroke-dasharray:none;stroke-opacity:1"
       d="m -263.72564,298.10773 h 4.34408"
       id="path84-5" /><path
       style="fill:none;stroke:none;stroke-width:0.00963211px;stroke-linecap:round;stroke-linejoin:round;stroke-miterlimit:4;stroke-dasharray:none;stroke-opacity:1"
       d="m -226.0641,286.55406 v 2.43943"
       id="path85-1" /><path
       style="fill:none;stroke:none;stroke-width:0.00963211px;stroke-linecap:round;stroke-linejoin:round;stroke-miterlimit:4;stroke-dasharray:none;stroke-opacity:1"
       d="m -226.0641,288.99349 0.01,0.15367 0.0289,0.16326 0.0385,0.15367 0.0578,0.14406 0.0771,0.13446 0.0867,0.13445 0.10595,0.11525 0.11559,0.10565 0.13485,0.096 0.13485,0.0864 0.14448,0.0576 0.15411,0.048"
       id="path86-4" /><path
       style="fill:none;stroke:none;stroke-width:0.00963211px;stroke-linecap:round;stroke-linejoin:round;stroke-miterlimit:4;stroke-dasharray:none;stroke-opacity:1"
       d="m -219.56243,297.38743 -0.01,-0.39377 -0.0385,-0.39376 -0.0482,-0.39377 -0.0771,-0.39377 -0.0963,-0.38416 -0.11558,-0.37456 -0.14449,-0.37455 -0.15411,-0.36496 -0.18301,-0.35535 -0.19264,-0.34574 -0.22154,-0.32654 -0.23117,-0.32654 -0.25043,-0.29772 -0.2697,-0.29773 -0.28897,-0.27852 -0.29859,-0.25931 -0.30823,-0.2401 -0.32749,-0.23049 -0.33713,-0.21129 -0.34675,-0.19208 -0.36602,-0.16327 -0.36602,-0.15367 -0.37565,-0.13445 -0.37565,-0.10565"
       id="path87-2" /><path
       style="fill:none;stroke:none;stroke-width:0.00963211px;stroke-linecap:round;stroke-linejoin:round;stroke-miterlimit:4;stroke-dasharray:none;stroke-opacity:1"
       d="m -226.79614,304.60967 0.40455,-0.01 0.40455,-0.0384 0.40454,-0.0576 0.39492,-0.0768 0.39492,-0.096 0.38528,-0.12486 0.37565,-0.14406 0.37566,-0.16327 0.35638,-0.19207 0.35639,-0.20169 0.33713,-0.2305 0.31786,-0.2401 0.30822,-0.25931 0.2986,-0.27851 0.27933,-0.29773 0.26007,-0.30733 0.2408,-0.32654 0.23117,-0.33614 0.20227,-0.34575 0.19264,-0.36495 0.16375,-0.36495 0.14448,-0.38416 0.12522,-0.38417 0.0963,-0.39376 0.0771,-0.39377 0.0578,-0.40337 0.0385,-0.40337 0.01,-0.40337"
       id="path88-7" /><path
       style="fill:none;stroke:none;stroke-width:0.00963211px;stroke-linecap:round;stroke-linejoin:round;stroke-miterlimit:4;stroke-dasharray:none;stroke-opacity:1"
       d="m -221.00724,297.38743 -0.01,-0.36496 -0.0385,-0.35535 -0.0578,-0.36495 -0.0771,-0.34575 -0.0963,-0.35535 -0.12522,-0.33614 -0.14448,-0.33614 -0.16375,-0.32654 -0.19264,-0.30733 -0.20228,-0.29772 -0.22153,-0.28812 -0.24081,-0.26892 -0.26006,-0.25931 -0.2697,-0.2401 -0.28897,-0.22089 -0.29859,-0.20168 -0.30823,-0.19209 -0.32749,-0.16327 -0.33712,-0.14406 -0.33713,-0.12485 -0.35639,-0.096 -0.34675,-0.0768 -0.36602,-0.0576 -0.35639,-0.0384 -0.36602,-0.01 -0.36602,0.01 -0.35639,0.0384 -0.36602,0.0576 -0.34676,0.0768 -0.35638,0.096 -0.33713,0.12485 -0.33712,0.14406 -0.32749,0.16327 -0.30823,0.19209 -0.29859,0.20168 -0.28897,0.22089 -0.2697,0.2401 -0.26006,0.25931 -0.24081,0.26892 -0.22153,0.28812 -0.20228,0.29772 -0.19264,0.30733 -0.16375,0.32654 -0.14448,0.33614 -0.12522,0.33614 -0.0963,0.35535 -0.0771,0.34575 -0.0578,0.36495 -0.0385,0.35535 -0.01,0.36496 0.01,0.36495 0.0385,0.35535 0.0578,0.36495 0.0771,0.34575 0.0963,0.35535 0.12522,0.33614 0.14448,0.33614 0.16375,0.32654 0.19264,0.30733 0.20228,0.29773 0.22153,0.28812 0.24081,0.26891 0.26006,0.25931 0.2697,0.2401 0.28897,0.22089 0.29859,0.20169 0.30823,0.19208 0.32749,0.16327 0.33712,0.14406 0.33713,0.12485 0.35638,0.096 0.34676,0.0768 0.36602,0.0576 0.35639,0.0384 0.36602,0.01 0.36602,-0.01 0.35639,-0.0384 0.36602,-0.0576 0.34675,-0.0768 0.35639,-0.096 0.33713,-0.12485 0.33712,-0.14406 0.32749,-0.16327 0.30823,-0.19208 0.29859,-0.20169 0.28897,-0.22089 0.2697,-0.2401 0.26006,-0.25931 0.24081,-0.26891 0.22153,-0.28812 0.20228,-0.29773 0.19264,-0.30733 0.16375,-0.32654 0.14448,-0.33614 0.12522,-0.33614 0.0963,-0.35535 0.0771,-0.34575 0.0578,-0.36495 0.0385,-0.35535 z"
       id="path89-9" /><path
       style="fill:none;stroke:none;stroke-width:0.00963211px;stroke-linecap:round;stroke-linejoin:round;stroke-miterlimit:4;stroke-dasharray:none;stroke-opacity:1"
       d="m -227.51855,286.55406 v 2.43943"
       id="path90-9" /><path
       style="fill:none;stroke:none;stroke-width:0.00963211px;stroke-linecap:round;stroke-linejoin:round;stroke-miterlimit:4;stroke-dasharray:none;stroke-opacity:1"
       d="m -228.59735,290.38608 0.14449,-0.048 0.14448,-0.0576 0.13485,-0.0864 0.13485,-0.096 0.11558,-0.10565 0.10595,-0.11525 0.0867,-0.13445 0.0771,-0.13446 0.0578,-0.14406 0.0385,-0.15367 0.0289,-0.16326 0.01,-0.15367"
       id="path91-8" /><path
       style="fill:none;stroke:none;stroke-width:0.00963211px;stroke-linecap:round;stroke-linejoin:round;stroke-miterlimit:4;stroke-dasharray:none;stroke-opacity:1"
       d="m -228.60698,290.39568 -0.37565,0.10565 -0.37565,0.13445 -0.36602,0.15367 -0.36602,0.16327 -0.34676,0.19208 -0.33712,0.21129 -0.32749,0.23049 -0.30823,0.2401 -0.2986,0.25931 -0.28896,0.27852 -0.2697,0.29773 -0.25043,0.29772 -0.23118,0.32654 -0.22153,0.32654 -0.19264,0.34574 -0.18301,0.35535 -0.15412,0.36496 -0.14448,0.37455 -0.11559,0.37456 -0.0963,0.38416 -0.0771,0.39377 -0.0482,0.39377 -0.0385,0.39376 -0.01,0.39377"
       id="path92-4" /><path
       style="fill:none;stroke:none;stroke-width:0.00963211px;stroke-linecap:round;stroke-linejoin:round;stroke-miterlimit:4;stroke-dasharray:none;stroke-opacity:1"
       d="m -234.02986,297.38743 0.01,0.40337 0.0385,0.40337 0.0578,0.40337 0.0771,0.39376 0.0963,0.39377 0.12522,0.38416 0.14449,0.38416 0.16374,0.36496 0.19264,0.36495 0.20228,0.34575 0.23117,0.33614 0.2408,0.32653 0.26007,0.30733 0.27933,0.29773 0.29859,0.27852 0.30823,0.25931 0.31786,0.2401 0.33712,0.23049 0.35639,0.20169 0.35639,0.19208 0.37565,0.16327 0.37566,0.14406 0.38528,0.12485 0.39492,0.096 0.39491,0.0768 0.40455,0.0576 0.40455,0.0384 0.40455,0.01"
       id="path93-4" /><path
       style="fill:none;stroke:none;stroke-width:0.00963211px;stroke-linecap:round;stroke-linejoin:round;stroke-miterlimit:4;stroke-dasharray:none;stroke-opacity:1"
       d="m -223.90651,297.38743 -0.01,-0.25931 -0.0385,-0.25931 -0.0578,-0.24971 -0.0771,-0.2401 -0.10595,-0.2401 -0.11559,-0.2305 -0.14448,-0.21128 -0.16374,-0.20169 -0.18301,-0.19208 -0.19265,-0.17287 -0.2119,-0.14406 -0.22154,-0.13446 -0.23117,-0.11525 -0.2408,-0.0864 -0.25044,-0.0672 -0.26007,-0.048 -0.26006,-0.0288 h -0.25044 l -0.26006,0.0288 -0.26007,0.048 -0.25044,0.0672 -0.2408,0.0864 -0.23117,0.11525 -0.22154,0.13446 -0.2119,0.14406 -0.19265,0.17287 -0.18301,0.19208 -0.16374,0.20169 -0.14448,0.21128 -0.11559,0.2305 -0.10595,0.2401 -0.0771,0.2401 -0.0578,0.24971 -0.0385,0.25931 -0.01,0.25931 0.01,0.25931 0.0385,0.25931 0.0578,0.2497 0.0771,0.2401 0.10595,0.2401 0.11559,0.2305 0.14448,0.21129 0.16374,0.20168 0.18301,0.19209 0.19265,0.17287 0.2119,0.14406 0.22154,0.13446 0.23117,0.11524 0.2408,0.0864 0.25044,0.0672 0.26007,0.048 0.26006,0.0288 h 0.25044 l 0.26006,-0.0288 0.26007,-0.048 0.25044,-0.0672 0.2408,-0.0864 0.23117,-0.11524 0.22154,-0.13446 0.2119,-0.14406 0.19265,-0.17287 0.18301,-0.19209 0.16374,-0.20168 0.14448,-0.21129 0.11559,-0.2305 0.10595,-0.2401 0.0771,-0.2401 0.0578,-0.2497 0.0385,-0.25931 z"
       id="path94-5" /><path
       style="fill:#ffffff;stroke:none;stroke-width:0.476488"
       d="m -858.8568,1134.6432 c -2.5387,-0.4646 -4.16846,-1.3248 -6.0086,-3.1714 -1.13245,-1.1365 -1.35554,-1.4368 -1.92425,-2.5904 -0.91252,-1.851 -1.17621,-2.949 -1.17621,-4.8979 0,-1.9488 0.26369,-3.0469 1.17621,-4.8979 0.56871,-1.1536 0.7918,-1.4539 1.92425,-2.5903 1.46087,-1.466 2.74711,-2.2732 4.43272,-2.7817 2.12632,-0.6414 3.6741,-0.6931 5.81146,-0.1941 3.75891,0.8778 6.78699,3.8128 7.89698,7.6545 0.40957,1.4175 0.40957,4.2016 0,5.6191 -0.91855,3.1791 -3.1795,5.7812 -6.17376,7.1054 -1.67534,0.7409 -4.23293,1.0606 -5.9588,0.7447 z"
       id="path148"
       transform="scale(0.26458333)" /><path
       style="fill:#ffffff;stroke:none;stroke-width:0.476488"
       d="m -859.10894,1151.144 c -0.17335,-0.03 -0.82576,-0.1165 -1.44981,-0.1922 -5.59289,-0.6786 -10.67275,-3.0175 -14.99853,-6.9057 -3.18523,-2.863 -5.91267,-6.9914 -7.36754,-11.1519 -0.52035,-1.488 -0.83075,-2.736 -1.16769,-4.6947 -0.36879,-2.1439 -0.3985,-5.9486 -0.0633,-8.1017 1.22812,-7.8874 5.4143,-14.4261 12.08632,-18.8784 1.88023,-1.2547 5.33074,-2.8582 7.16125,-3.3278 2.73497,-0.7017 4.29,-2.0514 4.87145,-4.2281 0.24651,-0.9228 0.24651,-20.3831 0,-21.3059 -0.35573,-1.3317 -1.17886,-2.4633 -2.32849,-3.201 -0.32422,-0.2081 -1.52543,-0.6873 -2.66935,-1.065 -1.14392,-0.3776 -2.6046,-0.9186 -3.24595,-1.202 -5.39379,-2.3838 -9.86987,-6.5229 -12.86698,-11.8983 l -0.40418,-0.7249 h 3.06135 3.06134 l 0.56427,0.788 c 0.83738,1.1693 3.05507,3.4044 4.34639,4.3805 9.71401,7.3427 23.47992,5.488 30.81839,-4.1522 l 0.77366,-1.0163 h 3.02003 c 1.66101,0 3.02003,0.036 3.02003,0.079 0,0.1232 -0.7339,1.3881 -1.48371,2.5572 -1.98409,3.0936 -5.21164,6.2639 -8.38507,8.2366 -1.69035,1.0507 -4.17265,2.1764 -6.44205,2.9212 -2.74291,0.9003 -3.63582,1.4788 -4.54081,2.9418 -0.70928,1.1466 -0.70645,1.0985 -0.70645,12.0081 0,11.0467 -0.009,10.9105 0.77605,12.1334 0.426,0.6639 1.45455,1.6424 2.05264,1.9527 0.21236,0.1103 1.26545,0.4975 2.3402,0.8606 2.51238,0.8488 4.37631,1.6691 5.97524,2.6296 10.12639,6.083 15.1385,17.532 12.74594,29.1152 -1.06315,5.147 -3.86983,10.1565 -7.79037,13.9045 -4.11675,3.9357 -9.13358,6.3907 -14.90203,7.2926 -1.21526,0.19 -5.21506,0.3571 -5.86229,0.2449 z m 5.2942,-5.5509 c 3.31057,-0.5196 6.05781,-1.5812 8.76254,-3.386 4.88115,-3.2571 8.12994,-8.0463 9.36008,-13.7983 0.31184,-1.4581 0.33977,-1.8219 0.33977,-4.4253 0,-2.6034 -0.0279,-2.9672 -0.33977,-4.4252 -0.81278,-3.8005 -2.50445,-7.1779 -5.03327,-10.0489 -2.84536,-3.2304 -6.82204,-5.6748 -10.88234,-6.6892 -5.35043,-1.3367 -10.63829,-0.774 -15.43764,1.643 -4.83199,2.4333 -8.53363,6.4451 -10.54697,11.4305 -0.891,2.2063 -1.56185,5.681 -1.56185,8.0898 0,2.4089 0.67085,5.8836 1.56185,8.0899 1.56502,3.8753 4.25256,7.2785 7.70435,9.756 1.44009,1.0336 4.18186,2.418 5.80528,2.9313 3.4224,1.0821 6.88737,1.363 10.26797,0.8324 z"
       id="path149"
       transform="scale(0.26458333)" /><path
       style="fill:#ffffff;stroke:none;stroke-width:0.476488"
       d="m -776.09137,1060.5901 c -1.17698,-0.5613 -1.57498,-1.3682 -1.57807,-3.1994 -0.008,-4.4837 -0.94776,-7.0967 -3.42223,-9.5109 -1.08231,-1.0559 -2.1345,-1.758 -3.46464,-2.3117 -2.07153,-0.8624 -0.91588,-0.82 -22.35935,-0.82 -21.70313,0 -19.96295,-0.076 -21.52641,0.9349 -1.29522,0.8372 -1.97975,1.9672 -2.79382,4.6122 -0.42762,1.3893 -1.40695,3.7341 -1.55579,3.7249 -0.052,0 -1.42423,-0.01 -3.04939,-0.01 h -2.95483 l 0.51826,-0.851 c 1.14486,-1.8798 2.09374,-4.3372 2.64094,-6.8393 0.25761,-1.178 0.28878,-1.6499 0.2831,-4.2864 -0.006,-2.7543 -0.0307,-3.0719 -0.35173,-4.515 -0.81843,-3.6787 -2.36542,-6.8045 -4.80821,-9.7151 -2.58749,-3.0831 -5.95663,-5.2501 -10.6078,-6.8228 -1.21835,-0.4119 -2.59208,-0.9555 -3.05274,-1.2079 -2.55788,-1.4013 -4.48286,-3.8867 -5.28163,-6.8191 l -0.33781,-1.2401 -0.0427,-13.59437 c -0.0476,-15.17225 -0.0919,-14.3531 0.82421,-15.24724 1.58051,-1.54261 4.02332,-0.69934 4.44068,1.53294 0.0801,0.42821 0.12697,5.51231 0.12697,13.76199 0,12.30548 0.0136,13.12668 0.22979,13.81908 0.6431,2.0601 1.77317,2.9944 4.84519,4.0057 1.12958,0.3718 2.59143,0.9166 3.24856,1.2107 5.50479,2.4636 9.93119,6.5616 12.95286,11.992 0.56954,1.0236 1.46815,3.1711 1.92762,4.6068 0.90376,2.8238 1.50824,3.7977 2.92591,4.714 1.42049,0.9181 0.25662,0.8709 21.45066,0.8709 18.12718,0 19.03098,-0.011 20.20947,-0.2396 0.67851,-0.1318 1.6298,-0.3984 2.11397,-0.5925 1.78488,-0.7155 3.75618,-2.2972 4.85681,-3.8969 0.55396,-0.8052 1.34677,-2.5189 1.57165,-3.3973 0.24352,-0.9512 0.44352,-3.0395 0.44724,-4.6699 0.002,-0.9526 0.0598,-1.3861 0.23596,-1.7739 0.40455,-0.8907 1.48728,-1.5718 2.48652,-1.5642 0.91615,0.01 2.17098,1.0243 2.43466,1.9739 0.0911,0.3282 0.13398,5.7269 0.13446,16.9428 l 7.1e-4,16.4612 -0.3467,0.6837 c -0.47276,0.9323 -1.17017,1.4106 -2.14255,1.4693 -0.52491,0.032 -0.86501,-0.023 -1.22984,-0.1966 z"
       id="path150"
       transform="scale(0.26458333)" /><path
       style="fill:#ffffff;stroke:none;stroke-width:0.952976"
       d="m -997.09335,1126.5296 c -2.27624,-0.7499 -2.94565,-2.909 -1.36306,-4.3968 l 0.64635,-0.6076 11.26347,-0.1593 c 11.80122,-0.1669 12.21749,-0.2035 16.87934,-1.4825 9.91245,-2.7194 18.88486,-10.1641 23.62228,-19.6001 1.37338,-2.7355 1.98948,-4.3428 2.77907,-7.2501 0.89455,-3.2939 1.11935,-4.9712 1.40168,-10.4587 0.39941,-7.7629 1.71866,-13.0793 4.73483,-19.0807 6.71523,-13.3616 19.93776,-22.3528 34.9673,-23.7774 3.55702,-0.3371 13.26325,-0.341 15.02994,-0.01 2.11558,0.4012 4.37457,1.586 5.78534,3.0344 1.49605,1.536 1.99383,2.4567 3.173,5.8691 0.48723,1.41 1.21864,3.1594 1.62534,3.8874 l 0.73947,1.3238 h -2.91566 -2.91566 l -0.58204,-1.3238 c -0.32012,-0.728 -0.84892,-2.1738 -1.17512,-3.2127 -0.68895,-2.1944 -2.07522,-3.8132 -3.67524,-4.2917 -0.67135,-0.2007 -3.33417,-0.2604 -8.65977,-0.194 -6.88207,0.086 -7.96777,0.1569 -10.33034,0.6775 -13.6481,3.0072 -24.24591,12.4761 -28.63119,25.5813 -1.1179,3.3408 -1.77897,7.5708 -2.11367,13.5246 -0.41216,7.3318 -1.49883,11.5618 -4.56658,17.776 -2.26791,4.594 -4.45361,7.6243 -8.1838,11.3464 -3.67344,3.6654 -6.75289,5.9008 -11.10084,8.0582 -5.86639,2.9108 -10.69952,4.2235 -17.17046,4.6637 -3.7705,0.2564 -18.55534,0.3324 -19.26398,0.099 z"
       id="path151"
       transform="scale(0.26458333)" /><path
       style="fill:#ffffff;stroke:none;stroke-width:0.673855"
       d="m -860.69945,1057.9047 c -2.28332,-0.5085 -4.31345,-1.4453 -6.27334,-2.8948 -5.52497,-4.0862 -7.89523,-11.6206 -5.67895,-18.0518 0.54018,-1.5675 1.85191,-3.9296 2.90659,-5.234 1.71983,-2.127 4.79353,-4.2232 7.49841,-5.1138 7.54509,-2.4841 15.99777,1.0267 19.5681,8.1278 2.17337,4.3226 2.33722,9.3409 0.44761,13.7091 -1.95535,4.5202 -5.79791,7.8663 -10.65457,9.278 -1.90284,0.5531 -5.74044,0.6413 -7.81385,0.1795 z m 5.66826,-5.1011 c 5.13106,-1.0148 8.77689,-5.4055 8.80511,-10.604 0.0112,-2.0684 -0.34213,-3.5199 -1.3112,-5.3858 -1.33665,-2.5736 -4.40047,-4.8892 -7.24277,-5.4739 -1.47947,-0.3043 -3.73564,-0.2367 -5.28014,0.1584 -7.91419,2.0241 -10.80633,11.9721 -5.2191,17.952 2.72623,2.9178 6.38941,4.1164 10.2481,3.3533 z"
       id="path152"
       transform="scale(0.26458333)" /><path
       style="fill:#ffffff;stroke:none;stroke-width:0.673855"
       d="m -1012.8708,1044.4335 c -4.2692,-0.8197 -7.8773,-3.5958 -9.7394,-7.4935 -1.4145,-2.961 -1.297,-0.4631 -1.4013,-29.7746 -0.1016,-28.55229 -0.023,-26.46913 -1.0789,-28.6893 -0.6413,-1.3489 -2.3162,-3.01295 -4.0733,-4.04706 -3.5905,-2.11312 -6.0012,-4.84664 -7.3953,-8.38579 -0.8189,-2.07912 -1.0655,-3.44747 -1.0713,-5.94661 -0.01,-2.70765 0.3676,-4.40882 1.5027,-6.8363 2.6397,-5.64548 8.2706,-9.2819 14.4314,-9.31988 3.0254,-0.0186 5.2533,0.48785 7.7557,1.76318 2.2545,1.14896 4.69,3.31902 6.0486,5.38931 0.4183,0.63739 1.0625,1.62165 1.4315,2.18725 1.3083,2.00501 3.49,3.46129 5.9485,3.97071 1.11694,0.23143 3.42844,0.26324 16.04623,0.22087 14.55948,-0.0489 14.75133,-0.0541 15.55269,-0.42493 1.05251,-0.48699 2.03649,-1.35986 2.5689,-2.27882 0.23366,-0.40331 0.71792,-1.61582 1.07614,-2.69448 1.57671,-4.74785 3.91386,-8.4471 7.42498,-11.75232 7.49852,-7.05879 18.44327,-9.24724 28.11463,-5.62164 8.83034,3.31032 15.29184,10.96795 17.18336,20.36429 0.56826,2.82286 0.55982,7.56469 -0.0183,10.29234 -1.16982,5.51921 -3.57813,10.02146 -7.39858,13.83141 -3.49524,3.48561 -7.13033,5.65657 -11.89376,7.10319 -2.37096,0.72005 -3.62233,1.69406 -4.38323,3.41171 -0.27343,0.61724 -0.32663,1.62235 -0.43355,8.19178 -0.12616,7.75029 -0.24754,9.22099 -1.04484,12.65869 -3.3966,14.6451 -13.74067,26.3564 -27.78562,31.4583 -2.83901,1.0313 -6.35884,1.8865 -9.67615,2.351 -2.338,0.3273 -36.0263,0.391 -37.6918,0.071 z m 34.32105,-5.0837 c 8.03598,-0.4778 15.44879,-3.1754 21.5732,-7.8507 2.07476,-1.5838 5.75945,-5.2742 7.27061,-7.2817 3.11066,-4.1325 5.52624,-9.2958 6.72646,-14.3776 0.84153,-3.5631 1.00639,-5.4715 1.10123,-12.7478 0.0993,-7.61863 0.16041,-8.11272 1.26781,-10.25172 0.74289,-1.43492 2.67908,-3.48629 4.02291,-4.26222 0.47639,-0.27507 2.02698,-0.89476 3.44576,-1.37709 3.66539,-1.2461 5.31364,-2.12531 7.92719,-4.22853 2.86465,-2.30529 5.35665,-5.84768 6.63738,-9.43507 1.19028,-3.33402 1.56654,-7.91515 0.92904,-11.31139 -1.32006,-7.03258 -5.97464,-13.00611 -12.47412,-16.00888 -5.95717,-2.75222 -13.10227,-2.61791 -19.00227,0.35721 -5.43262,2.73944 -9.12472,7.07663 -11.15485,13.10385 -0.87127,2.58669 -1.55177,3.9603 -2.53326,5.11348 -1.31895,1.54966 -2.85499,2.59305 -5.03106,3.41751 -0.96988,0.36746 -1.29524,0.37676 -16.67877,0.47675 -14.41995,0.0937 -15.76891,0.12778 -16.67021,0.4209 -2.394,0.77861 -4.4623,2.41742 -5.6913,4.50946 -1.7193,2.92655 -3.2885,4.53042 -6.4325,6.57436 -2.2113,1.43765 -3.4409,2.63443 -4.2318,4.11892 -1.1715,2.19886 -1.1078,0.62672 -1.1593,28.58846 -0.045,24.2449 -0.032,25.4554 0.2815,26.4762 0.4324,1.409 1.3469,2.8932 2.3555,3.8229 1.077,0.9928 3.1173,1.9488 4.557,2.1354 1.5777,0.2044 29.56943,0.2191 32.96385,0.017 z m -40.01435,-68.64792 c 3.7665,-0.96331 6.8899,-4.10296 7.8124,-7.85312 0.3646,-1.48233 0.37,-4.05561 0.011,-5.4336 -0.5057,-1.94257 -1.4138,-3.54307 -2.8065,-4.94623 -4.6201,-4.65482 -11.9978,-4.35497 -16.3418,0.66417 -2.0544,2.37367 -2.9899,6.31159 -2.2472,9.45995 1.4328,6.07427 7.456,9.67299 13.5718,8.10883 z"
       id="path153"
       transform="scale(0.26458333)" /><path
       style="fill:#ffffff;stroke:none;stroke-width:0.673855"
       d="m -940.78223,1052.7253 c -3.66697,-0.6659 -6.58798,-2.7615 -8.08574,-5.801 -0.82369,-1.6715 -1.15523,-3.0692 -1.15523,-4.8701 0,-4.181 2.23107,-7.719 6.10463,-9.6805 2.94,-1.4888 6.89768,-1.3632 9.92351,0.3151 1.69875,0.9422 3.56913,2.8965 4.34541,4.5404 1.54173,3.2649 1.55406,6.3904 0.0378,9.5832 -0.82109,1.729 -3.01127,3.9531 -4.72177,4.7948 -2.02223,0.9952 -4.63304,1.4479 -6.44863,1.1181 z"
       id="path154"
       transform="scale(0.26458333)" /><path
       style="fill:#ffffff;stroke:none;stroke-width:0.476488"
       d="m -858.73073,976.34006 c -4.03971,-0.46148 -7.4477,-2.12148 -10.20333,-4.96995 -2.32274,-2.40099 -3.82492,-5.40326 -4.37177,-8.73744 -0.29047,-1.77103 -0.17925,-4.56747 0.24964,-6.27676 0.80595,-3.21205 2.64944,-6.3001 4.96832,-8.3225 5.78313,-5.04374 13.8452,-5.55043 20.19013,-1.26892 4.47056,3.01671 7.31427,8.71979 7.02241,14.08353 -0.32994,6.06352 -3.8874,11.39349 -9.33057,13.97954 -1.7925,0.85161 -3.31524,1.25973 -5.68824,1.52454 -1.27187,0.14193 -1.49713,0.14097 -2.83659,-0.012 z m 3.97123,-5.53567 c 2.02928,-0.44693 4.02849,-1.57582 5.49994,-3.10565 2.02257,-2.10281 3.02496,-4.62899 3.02496,-7.62342 0,-2.52657 -0.93434,-5.10744 -2.53615,-7.00546 -2.30793,-2.73472 -6.10914,-4.25376 -9.56465,-3.82222 -5.51738,0.68902 -9.50984,4.89758 -9.80874,10.33967 -0.29509,5.37257 3.38661,10.11847 8.74051,11.26696 1.26559,0.27149 3.28336,0.24982 4.64413,-0.0499 z"
       id="path155"
       transform="scale(0.26458333)" /><path
       style="fill:#ffffff;stroke:none;stroke-width:0.336928"
       d="m -940.39549,976.40471 c -0.14709,-0.0199 -0.60842,-0.0803 -1.02517,-0.13419 -2.98829,-0.38651 -5.79586,-1.60029 -8.22879,-3.55748 -2.55271,-2.05355 -4.65357,-5.34533 -5.44103,-8.52539 -0.41897,-1.692 -0.45976,-2.0553 -0.45928,-4.09101 5.3e-4,-2.20391 0.13904,-3.15958 0.71739,-4.94946 0.34731,-1.07483 1.34473,-3.13741 1.96055,-4.05423 2.21948,-3.30429 5.71478,-5.77765 9.48996,-6.71532 2.86601,-0.71186 5.29254,-0.71604 8.15681,-0.014 3.64804,0.89407 7.10586,3.25714 9.28269,6.34377 2.15788,3.05975 3.20907,6.8004 2.95941,10.531 -0.14442,2.15816 -0.66819,4.06618 -1.66926,6.08096 -0.90501,1.82145 -1.58949,2.79535 -2.9355,4.17677 -2.4804,2.54565 -5.60566,4.14513 -9.25547,4.73688 -0.85826,0.13915 -3.02049,0.24369 -3.55231,0.17175 z m 3.07552,-5.51793 c 2.43787,-0.487 4.29516,-1.48049 5.90686,-3.15965 1.19491,-1.24493 1.77341,-2.14638 2.41154,-3.75779 0.65143,-1.645 0.85863,-3.97198 0.51403,-5.77312 -0.66912,-3.4974 -2.78346,-6.2922 -5.97978,-7.90427 -1.37821,-0.69511 -3.05784,-1.06692 -4.81385,-1.06564 -1.40703,10e-4 -2.54303,0.19242 -3.78144,0.63708 -1.91034,0.68591 -3.77213,2.08058 -5.09247,3.81477 -0.64443,0.84642 -1.43581,2.55015 -1.74789,3.76293 -0.63967,2.48583 -0.38267,5.0158 0.7572,7.45418 1.77931,3.80626 5.972,6.33423 10.22118,6.16283 0.51481,-0.0208 1.23689,-0.0979 1.60462,-0.17132 z"
       id="path156"
       transform="scale(0.26458333)" /><path
       style="fill:#ffffff;stroke:none;stroke-width:0.476488"
       d="m -1022.4336,1134.7406 c -4.8964,-0.611 -8.6361,-4.0169 -9.5882,-8.7326 -0.2781,-1.3775 -0.1938,-3.572 0.1883,-4.9008 1.0953,-3.8086 4.2103,-6.7713 8.018,-7.6261 2.0323,-0.4563 3.5981,-0.392 5.6683,0.2325 2.7352,0.8252 5.2701,3.029 6.4981,5.6496 1.1315,2.4145 1.3566,4.8695 0.6835,7.4537 -0.2756,1.0582 -1.0823,2.7149 -1.7351,3.5632 -0.879,1.1423 -2.2063,2.3108 -3.3704,2.9672 -1.9344,1.0907 -4.4221,1.6355 -6.3625,1.3933 z"
       id="path157"
       transform="scale(0.26458333)" /></g></svg>
