<?xml version="1.0" encoding="UTF-8" standalone="no"?>
<!-- Created with Inkscape (http://www.inkscape.org/) -->

<svg
   width="436.56274mm"
   height="119.06334mm"
   viewBox="0 0 436.56274 119.06334"
   version="1.1"
   id="svg1"
   xmlns="http://www.w3.org/2000/svg"
   xmlns:svg="http://www.w3.org/2000/svg">
  <defs
     id="defs1" />
  <g
     id="layer1"
     transform="translate(1246.2096,-594.8939)">
    <rect
       style="fill:none;stroke-width:0.00853528;stroke-linejoin:round"
       id="rect284"
       width="39.6875"
       height="39.6875"
       x="-634.58228"
       y="-1166.8345"
       transform="rotate(-90)" />
    <ellipse
       style="fill:#000000;stroke-width:0.0130425;stroke-linejoin:round"
       id="ellipse284"
       cx="-614.73853"
       cy="-1146.9907"
       rx="5.2916818"
       ry="5.2916565"
       transform="rotate(-90)" />
    <path
       id="path284"
       style="fill:#000000;stroke-width:0.00915952;stroke-linejoin:round"
       d="m -1137.7297,614.7385 a 1.3229166,1.3229166 0 0 0 1.3229,1.32292 h 9.2599 v -2.64584 h -9.2599 a 1.3229166,1.3229166 0 0 0 -1.3229,1.32292 z" />
    <rect
       style="fill:none;stroke-width:0.00853528;stroke-linejoin:round"
       id="rect285"
       width="39.6875"
       height="39.6875"
       x="594.89465"
       y="1047.7717"
       transform="rotate(90)" />
    <path
       id="path285"
       style="fill:#000000;stroke-width:0.0186056;stroke-linejoin:round"
       d="m -1047.7719,613.41542 h -9.2599 v 1.32292 h -5e-4 a 10.583333,10.583333 0 0 1 -10.5834,10.58333 10.583333,10.583333 0 0 1 -10.5833,-10.58333 v -1.32292 h -9.2604 v 2.64584 h 6.6833 a 13.229167,13.229167 0 0 0 13.1604,11.90625 13.229167,13.229167 0 0 0 13.1424,-11.90625 h 6.7014 z" />
    <path
       id="path286"
       style="fill:#000000;stroke-width:0.0145831;stroke-linejoin:round"
       d="m -1059.678,614.73838 a 7.9375,7.9375 0 0 0 -7.9375,-7.9375 7.9375,7.9375 0 0 0 -7.9375,7.9375 7.9375,7.9375 0 0 0 7.9375,7.93751 7.9375,7.9375 0 0 0 7.9375,-7.93751 z m -2.6459,0 a 5.2916665,5.2916665 0 0 1 -5.2916,5.29167 5.2916665,5.2916665 0 0 1 -5.2917,-5.29167 5.2916665,5.2916665 0 0 1 5.2917,-5.29166 5.2916665,5.2916665 0 0 1 5.2916,5.29166 z" />
    <rect
       style="fill:none;stroke-width:0.00853528;stroke-linejoin:round"
       id="rect286"
       width="39.6875"
       height="39.6875"
       x="1008.0844"
       y="-634.58228"
       transform="scale(-1)" />
    <path
       id="path287"
       style="fill:#000000;stroke-width:0.0145831;stroke-linejoin:round"
       d="m -1027.9282,622.67602 a 7.9375,7.9375 0 0 0 7.9376,-7.9375 7.9375,7.9375 0 0 0 -7.9376,-7.9375 7.9375,7.9375 0 0 0 -7.9375,7.9375 7.9375,7.9375 0 0 0 7.9375,7.9375 z m 0,-2.64583 a 5.2916665,5.2916665 0 0 1 -5.2916,-5.29167 5.2916665,5.2916665 0 0 1 5.2916,-5.29167 5.2916665,5.2916665 0 0 1 5.2917,5.29167 5.2916665,5.2916665 0 0 1 -5.2917,5.29167 z" />
    <path
       id="path288"
       style="fill:#000000;stroke-width:0.00915952;stroke-linejoin:round"
       d="m -1026.6052,634.58208 v -9.2599 a 1.3229166,1.3229166 0 0 0 -1.323,-1.32291 1.3229166,1.3229166 0 0 0 -1.3229,1.32291 v 9.2599 z" />
    <path
       id="path289"
       style="fill:#000000;stroke-width:0.00920051;stroke-linejoin:round"
       d="m -1038.4288,616.06128 a 1.3229166,1.3229166 0 0 0 1.3229,-1.32292 1.3229166,1.3229166 0 0 0 -1.3229,-1.32291 h -9.3431 v 2.64583 z" />
    <rect
       style="fill:none;stroke-width:0.00853528;stroke-linejoin:round"
       id="rect289"
       width="39.6875"
       height="39.6875"
       x="-1047.7717"
       y="634.58209" />
    <path
       id="path290"
       style="fill:#000000;stroke:none;stroke-width:0.022446;stroke-linejoin:round"
       d="m -1029.2511,634.58208 a 21.166666,21.166666 0 0 0 21.1667,21.16667 v -2.64583 a 18.520834,18.520834 0 0 1 -18.5209,-18.52084 z" />
    <rect
       style="fill:none;stroke-width:0.00853528;stroke-linejoin:round"
       id="rect292"
       width="39.6875"
       height="39.6875"
       x="634.58209"
       y="968.39691"
       transform="rotate(90)" />
    <path
       id="path292"
       style="fill:#000000;stroke-width:0.0186056;stroke-linejoin:round"
       d="m -968.39705,653.10288 h -9.2599 v 1.32292 h -5.2e-4 a 10.583333,10.583333 0 0 1 -10.58333,10.58333 10.583333,10.583333 0 0 1 -10.58334,-10.58333 v -1.32292 h -9.26046 v 2.64584 h 6.6834 a 13.229167,13.229167 0 0 0 13.1604,11.90625 13.229167,13.229167 0 0 0 13.14235,-11.90625 h 6.7014 z" />
    <circle
       style="fill:#000000;stroke-width:0.0133248;stroke-linejoin:round"
       id="circle293"
       cx="654.42584"
       cy="988.24072"
       r="5.2916665"
       transform="rotate(90)" />
    <rect
       style="fill:none;stroke-width:0.00853528;stroke-linejoin:round"
       id="rect293"
       width="39.6875"
       height="39.6875"
       x="-674.27014"
       y="-928.70941"
       transform="rotate(-90)" />
    <path
       id="path293"
       style="fill:#000000;stroke-width:0.0134083;stroke-linejoin:round"
       d="m -928.70938,655.74897 h 19.83652 a 1.3229166,1.3229166 0 0 0 0.007,5.2e-4 1.3229166,1.3229166 0 0 0 1.32291,-1.32292 1.3229166,1.3229166 0 0 0 0,-0.003 V 634.5824 h -2.64583 v 18.52032 h -18.5208 z" />
    <rect
       style="fill:none;stroke-width:0.00853528;stroke-linejoin:round"
       id="rect294"
       width="39.6875"
       height="39.6875"
       x="-674.26959"
       y="-968.39685"
       transform="rotate(-90)" />
    <path
       id="path294"
       style="fill:#000000;stroke-width:0.0186056;stroke-linejoin:round"
       d="m -968.39705,655.74871 h 9.26041 v -1.32292 h 5.2e-4 a 10.583333,10.583333 0 0 1 10.58333,-10.58333 10.583333,10.583333 0 0 1 10.58334,10.58333 v 1.32292 h 9.2599 v -2.64583 h -6.68332 a 13.229167,13.229167 0 0 0 -11.83752,-11.83752 v -6.68332 h -2.64583 v 6.7014 a 13.229167,13.229167 0 0 0 -11.81892,11.81944 h -6.70191 z" />
    <path
       id="path295"
       style="fill:#000000;stroke-width:0.0145831;stroke-linejoin:round"
       d="m -956.49063,654.42582 a 7.9375,7.9375 0 0 0 7.9375,7.9375 7.9375,7.9375 0 0 0 7.9375,-7.9375 7.9375,7.9375 0 0 0 -7.9375,-7.9375 7.9375,7.9375 0 0 0 -7.9375,7.9375 z m 2.64583,0 a 5.2916665,5.2916665 0 0 1 5.29167,-5.29167 5.2916665,5.2916665 0 0 1 5.29167,5.29167 5.2916665,5.2916665 0 0 1 -5.29167,5.29167 5.2916665,5.2916665 0 0 1 -5.29167,-5.29167 z" />
    <rect
       style="fill:none;stroke-width:0.00853528;stroke-linejoin:round"
       id="rect295"
       width="39.6875"
       height="39.6875"
       x="-1087.4594"
       y="634.58209" />
    <path
       id="path296"
       style="fill:#000000;stroke-width:0.0145831;stroke-linejoin:round"
       d="m -1067.6156,646.48835 a 7.9375,7.9375 0 0 0 -7.9375,7.9375 7.9375,7.9375 0 0 0 7.9375,7.9375 7.9375,7.9375 0 0 0 7.9375,-7.9375 7.9375,7.9375 0 0 0 -7.9375,-7.9375 z m 0,2.64583 a 5.2916665,5.2916665 0 0 1 5.2917,5.29167 5.2916665,5.2916665 0 0 1 -5.2917,5.29166 5.2916665,5.2916665 0 0 1 -5.2917,-5.29166 5.2916665,5.2916665 0 0 1 5.2917,-5.29167 z" />
    <rect
       style="fill:none;stroke-width:0.00853528;stroke-linejoin:round"
       id="rect297"
       width="39.6875"
       height="39.6875"
       x="594.89471"
       y="889.02191"
       transform="rotate(90)" />
    <path
       id="path297"
       style="fill:#000000;stroke-width:0.0134083;stroke-linejoin:round"
       d="m -889.02195,613.41584 h -19.83652 a 1.3229166,1.3229166 0 0 0 -0.007,-5.2e-4 1.3229166,1.3229166 0 0 0 -1.32292,1.32292 1.3229166,1.3229166 0 0 0 0,0.003 v 19.84117 h 2.64584 v -18.52032 h 18.5208 z" />
    <rect
       style="fill:none;stroke-width:0.00853528;stroke-linejoin:round"
       id="rect298"
       width="39.6875"
       height="39.6875"
       x="-968.39685"
       y="594.89459" />
    <path
       id="path298"
       style="fill:#000000;stroke-width:0.0145831;stroke-linejoin:round"
       d="m -948.55312,606.80084 a 7.9375,7.9375 0 0 0 -7.9375,7.9375 7.9375,7.9375 0 0 0 7.9375,7.9375 7.9375,7.9375 0 0 0 7.9375,-7.9375 7.9375,7.9375 0 0 0 -7.9375,-7.9375 z m 0,2.64584 a 5.2916665,5.2916665 0 0 1 5.29166,5.29166 5.2916665,5.2916665 0 0 1 -5.29166,5.29167 5.2916665,5.2916665 0 0 1 -5.29167,-5.29167 5.2916665,5.2916665 0 0 1 5.29167,-5.29166 z" />
    <path
       id="path299"
       style="fill:#000000;stroke-width:0.0186056;stroke-linejoin:round"
       d="m -948.55331,601.50913 a 13.229167,13.229167 0 0 0 -13.22917,13.22916 13.229167,13.229167 0 0 0 11.90625,13.1346 v 6.70915 h 2.64584 v -6.70915 a 13.229167,13.229167 0 0 0 11.90625,-13.1346 13.229167,13.229167 0 0 0 -13.22917,-13.22916 z m 0,2.64583 a 10.583333,10.583333 0 0 1 10.58333,10.58333 10.583333,10.583333 0 0 1 -10.58333,10.58334 10.583333,10.583333 0 0 1 -10.58333,-10.58334 10.583333,10.583333 0 0 1 10.58333,-10.58333 z" />
    <rect
       style="fill:none;stroke-width:0.00853528;stroke-linejoin:round"
       id="rect299"
       width="39.6875"
       height="39.6875"
       x="594.89471"
       y="849.33441"
       transform="rotate(90)" />
    <path
       id="rect300"
       style="fill:#000000;stroke-width:0.00915952;stroke-linejoin:round"
       d="m 613.41579,858.59462 a 1.3229166,1.3229166 0 0 0 1.32291,1.32292 1.3229166,1.3229166 0 0 0 1.32292,-1.32292 v -9.26042 h -2.64583 z"
       transform="rotate(90)" />
    <path
       id="rect301"
       style="fill:#000000;stroke-width:0.00915952;stroke-linejoin:round"
       d="m 613.41579,889.0217 h 2.64583 v -9.2599 a 1.3229166,1.3229166 0 0 0 -1.32292,-1.32291 1.3229166,1.3229166 0 0 0 -1.32291,1.32291 z"
       transform="rotate(90)" />
    <circle
       style="fill:#000000;stroke-width:0.0133248;stroke-linejoin:round"
       id="circle302"
       cx="614.7384"
       cy="869.17816"
       r="5.2916665"
       transform="rotate(90)" />
    <rect
       style="fill:none;stroke-width:0.00853528;stroke-linejoin:round"
       id="rect302"
       width="39.6875"
       height="39.6875"
       x="594.89465"
       y="809.64691"
       transform="rotate(90)" />
    <path
       id="path302"
       style="fill:#000000;stroke-width:0.0186056;stroke-linejoin:round"
       d="m -816.26147,614.73824 a 13.229167,13.229167 0 0 0 -13.22916,-13.22917 13.229167,13.229167 0 0 0 -13.1346,11.90625 h -6.70915 v 2.64584 h 6.70915 a 13.229167,13.229167 0 0 0 13.1346,11.90625 13.229167,13.229167 0 0 0 13.22916,-13.22917 z m -2.64583,0 a 10.583333,10.583333 0 0 1 -10.58333,10.58333 10.583333,10.583333 0 0 1 -10.58334,-10.58333 10.583333,10.583333 0 0 1 10.58334,-10.58333 10.583333,10.583333 0 0 1 10.58333,10.58333 z" />
    <ellipse
       style="fill:#000000;stroke-width:0.0130425;stroke-linejoin:round"
       id="ellipse302"
       cx="614.7384"
       cy="829.49066"
       rx="5.2916818"
       ry="5.2916565"
       transform="rotate(90)" />
    <rect
       style="fill:none;stroke-width:0.00853528;stroke-linejoin:round"
       id="rect303"
       width="39.6875"
       height="39.6875"
       x="594.89459"
       y="1087.4595"
       transform="rotate(90)" />
    <path
       id="path303"
       style="fill:#000000;stroke-width:0.0189622;stroke-linejoin:round"
       d="m -1087.4595,613.41574 h -39.6875 v 2.64583 h 18.5208 v 18.52032 h 2.6459 v -18.52032 h 18.5208 z" />
    <rect
       style="fill:none;stroke-width:0.00853528;stroke-linejoin:round"
       id="rect304"
       width="39.6875"
       height="39.6875"
       x="1087.4594"
       y="634.58209"
       transform="scale(-1,1)" />
    <path
       id="path304"
       style="fill:#000000;stroke:none;stroke-width:0.022446;stroke-linejoin:round"
       d="m -1105.98,634.58206 a 21.166666,21.166666 0 0 1 -21.1667,21.16667 v -2.64583 a 18.520834,18.520834 0 0 0 18.5208,-18.52084 z" />
    <rect
       style="fill:none;stroke-width:0.00853528;stroke-linejoin:round"
       id="rect306"
       width="39.6875"
       height="39.6875"
       x="-674.26959"
       y="-1166.8344"
       transform="rotate(-90)" />
    <rect
       style="fill:#000000;stroke-width:0.0189622;stroke-linejoin:round"
       id="rect307"
       width="2.6458333"
       height="39.6875"
       x="-655.7486"
       y="-1166.8344"
       transform="rotate(-90)" />
    <rect
       style="fill:none;stroke-width:0.00853528;stroke-linejoin:round"
       id="rect308"
       width="39.6875"
       height="39.6875"
       x="-1206.5221"
       y="594.89447" />
    <path
       id="path308"
       style="fill:#000000;stroke-width:0.0145831;stroke-linejoin:round"
       d="m -1186.6783,606.80073 a 7.9375,7.9375 0 0 0 -7.9375,7.9375 7.9375,7.9375 0 0 0 7.9375,7.9375 7.9375,7.9375 0 0 0 7.9375,-7.9375 7.9375,7.9375 0 0 0 -7.9375,-7.9375 z m 0,2.64583 a 5.2916665,5.2916665 0 0 1 5.2917,5.29167 5.2916665,5.2916665 0 0 1 -5.2917,5.29167 5.2916665,5.2916665 0 0 1 -5.2916,-5.29167 5.2916665,5.2916665 0 0 1 5.2916,-5.29167 z" />
    <path
       id="path309"
       style="fill:#000000;stroke-width:0.00915952;stroke-linejoin:round"
       d="m -1185.3553,634.58197 v -6.70915 a 13.229167,13.229167 0 0 0 11.9063,-13.1346 13.229167,13.229167 0 0 0 -13.2292,-13.22917 13.229167,13.229167 0 0 0 -13.1625,11.90625 h -6.6812 v 2.64583 h 9.3431 v -2.37401 a 10.583333,10.583333 0 0 1 10.5006,-9.53224 10.583333,10.583333 0 0 1 10.5834,10.58334 10.583333,10.583333 0 0 1 -10.5834,10.58333 h -1.3229 v 9.26042 z" />
    <rect
       style="fill:none;stroke-width:0.00853528;stroke-linejoin:round"
       id="rect309"
       width="39.6875"
       height="39.6875"
       x="634.58252"
       y="809.64685"
       transform="rotate(90)" />
    <path
       id="path310"
       style="fill:#000000;stroke-width:0.0145831;stroke-linejoin:round"
       d="m -821.55324,654.42632 a 7.9375,7.9375 0 0 0 -7.9375,-7.9375 7.9375,7.9375 0 0 0 -7.81451,6.61459 h -12.02924 v 2.64583 h 12.02924 a 7.9375,7.9375 0 0 0 7.81451,6.61458 7.9375,7.9375 0 0 0 7.9375,-7.9375 z m -2.64584,0 a 5.2916665,5.2916665 0 0 1 -5.29166,5.29167 5.2916665,5.2916665 0 0 1 -5.29167,-5.29167 5.2916665,5.2916665 0 0 1 5.29167,-5.29166 5.2916665,5.2916665 0 0 1 5.29166,5.29166 z" />
    <rect
       style="fill:none;stroke-width:0.00853528;stroke-linejoin:round"
       id="rect310"
       width="39.6875"
       height="39.6875"
       x="634.58264"
       y="849.33447"
       transform="rotate(90)" />
    <path
       id="path311"
       style="fill:#000000;stroke:none;stroke-width:0.022446;stroke-linejoin:round"
       d="m -849.33444,653.10328 a 21.166666,21.166666 0 0 0 -21.16667,21.16666 h 2.64583 a 18.520834,18.520834 0 0 1 18.52084,-18.52083 z" />
    <rect
       style="fill:none;stroke-width:0.00853528;stroke-linejoin:round"
       id="rect313"
       width="39.6875"
       height="39.6875"
       x="-713.95728"
       y="-889.02191"
       transform="rotate(-90)" />
    <path
       id="path313"
       style="fill:#000000;stroke:none;stroke-width:0.022446;stroke-linejoin:round"
       d="m -889.02195,695.43659 a 21.166666,21.166666 0 0 0 21.16667,-21.16666 h -2.64583 a 18.520834,18.520834 0 0 1 -18.52084,18.52083 z" />
    <rect
       style="fill:none;stroke-width:0.00853528;stroke-linejoin:round"
       id="rect316"
       width="39.6875"
       height="39.6875"
       x="-713.95728"
       y="-928.70941"
       transform="rotate(-90)" />
    <path
       id="path316"
       style="fill:#000000;stroke-width:0.0186056;stroke-linejoin:round"
       d="m -928.70929,695.43648 h 9.2599 v -1.32292 h 5.2e-4 a 10.583333,10.583333 0 0 1 10.58333,-10.58333 10.583333,10.583333 0 0 1 10.58334,10.58333 v 1.32292 h 9.26041 v -2.64584 h -6.68331 a 13.229167,13.229167 0 0 0 -13.16044,-11.90625 13.229167,13.229167 0 0 0 -13.14235,11.90625 h -6.7014 z" />
    <circle
       style="fill:#000000;stroke-width:0.0133248;stroke-linejoin:round"
       id="circle317"
       cx="-694.11353"
       cy="-908.8656"
       r="5.2916665"
       transform="rotate(-90)" />
    <rect
       style="fill:none;stroke-width:0.00853528;stroke-linejoin:round"
       id="rect317"
       width="39.6875"
       height="39.6875"
       x="674.26978"
       y="928.70947"
       transform="rotate(90)" />
    <path
       id="path317"
       style="fill:#000000;stroke-width:0.0145831;stroke-linejoin:round"
       d="m -928.70944,692.79059 h -12.02872 a 7.9375,7.9375 0 0 0 -7.81503,-6.61459 7.9375,7.9375 0 0 0 -7.81503,6.61459 h -12.02872 v 2.64583 h 12.02872 a 7.9375,7.9375 0 0 0 7.81503,6.61458 7.9375,7.9375 0 0 0 7.82433,-6.61458 h 12.01942 z m -14.55208,1.32291 a 5.2916665,5.2916665 0 0 1 -5.29167,5.29167 5.2916665,5.2916665 0 0 1 -5.29167,-5.29167 5.2916665,5.2916665 0 0 1 5.29167,-5.29166 5.2916665,5.2916665 0 0 1 5.29167,5.29166 z" />
    <rect
       style="fill:none;stroke-width:0.00853528;stroke-linejoin:round"
       id="rect318"
       width="39.6875"
       height="39.6875"
       x="674.26959"
       y="968.39691"
       transform="rotate(90)" />
    <rect
       style="fill:#000000;stroke-width:0.0189622;stroke-linejoin:round"
       id="rect319"
       width="2.6458333"
       height="39.6875"
       x="692.79059"
       y="968.39691"
       transform="rotate(90)" />
    <rect
       style="fill:none;stroke-width:0.00853528;stroke-linejoin:round"
       id="rect320"
       width="39.6875"
       height="39.6875"
       x="-713.95728"
       y="-1047.772"
       transform="rotate(-90)" />
    <path
       id="path320"
       style="fill:#000000;stroke-width:0.00915952;stroke-linejoin:round"
       d="m -1018.6673,698.78491 a 1.3229166,1.3229166 0 0 0 1.3229,1.32292 1.3229166,1.3229166 0 0 0 1.3229,-1.32292 v -3.34863 h 7.937 v -2.64584 h -7.937 v -3.34863 a 1.3229166,1.3229166 0 0 0 -1.3229,-1.32292 1.3229166,1.3229166 0 0 0 -1.3229,1.32292 z" />
    <rect
       style="fill:none;stroke-width:0.00853528;stroke-linejoin:round"
       id="rect321"
       width="39.6875"
       height="39.6875"
       x="594.89392"
       y="1206.522"
       transform="rotate(90)" />
    <path
       id="path321"
       style="fill:#000000;stroke-width:0.0134083;stroke-linejoin:round"
       d="m -1206.522,613.41505 h -19.8365 a 1.3229166,1.3229166 0 0 0 -0.01,-5.2e-4 1.3229166,1.3229166 0 0 0 -1.3229,1.32292 1.3229166,1.3229166 0 0 0 0,0.003 v 19.84117 h 2.6458 V 616.0613 h 18.5208 z" />
    <rect
       style="fill:none;stroke-width:0.00853528;stroke-linejoin:round"
       id="rect322"
       width="39.6875"
       height="39.6875"
       x="1206.5221"
       y="-674.26947"
       transform="scale(-1)" />
    <path
       id="path322"
       style="fill:#000000;stroke-width:0.0145831;stroke-linejoin:round"
       d="m -1226.3659,662.36321 a 7.9375,7.9375 0 0 0 7.9375,-7.9375 7.9375,7.9375 0 0 0 -7.9375,-7.9375 7.9375,7.9375 0 0 0 -7.9375,7.9375 7.9375,7.9375 0 0 0 7.9375,7.9375 z m 0,-2.64583 a 5.2916665,5.2916665 0 0 1 -5.2917,-5.29167 5.2916665,5.2916665 0 0 1 5.2917,-5.29167 5.2916665,5.2916665 0 0 1 5.2916,5.29167 5.2916665,5.2916665 0 0 1 -5.2916,5.29167 z" />
    <path
       id="path323"
       style="fill:#000000;stroke-width:0.00915952;stroke-linejoin:round"
       d="m -1227.689,634.58197 v 6.70915 a 13.229167,13.229167 0 0 0 -11.9062,13.1346 13.229167,13.229167 0 0 0 13.2292,13.22917 13.229167,13.229167 0 0 0 13.1625,-11.90625 h 6.6812 v -2.64583 h -9.3431 v 2.37401 a 10.583333,10.583333 0 0 1 -10.5006,9.53224 10.583333,10.583333 0 0 1 -10.5834,-10.58334 10.583333,10.583333 0 0 1 10.5834,-10.58333 h 1.3229 v -9.26042 z" />
    <rect
       style="fill:none;stroke-width:0.00853528;stroke-linejoin:round"
       id="rect323"
       width="39.6875"
       height="39.6875"
       x="-674.26953"
       y="-1206.522"
       transform="rotate(-90)" />
    <path
       id="path324"
       style="fill:#000000;stroke-width:0.0186056;stroke-linejoin:round"
       d="m -1206.5221,655.74864 h 9.2604 v -1.32292 h 5e-4 a 10.583333,10.583333 0 0 1 10.5834,-10.58333 10.583333,10.583333 0 0 1 10.5833,10.58333 v 1.32292 h 9.2599 v -2.64583 h -6.6833 a 13.229167,13.229167 0 0 0 -11.8375,-11.83752 v -6.68332 h -2.6459 v 6.7014 a 13.229167,13.229167 0 0 0 -11.8189,11.81944 h -6.7019 z" />
    <circle
       style="fill:#000000;stroke-width:0.0133248;stroke-linejoin:round"
       id="circle324"
       cx="-654.42572"
       cy="-1186.6782"
       r="5.2916665"
       transform="rotate(-90)" />
  </g>
</svg>
