<?xml version="1.0" encoding="UTF-8" standalone="no"?>
<!-- Created with Inkscape (http://www.inkscape.org/) -->

<svg
   width="27.648022mm"
   height="27.647989mm"
   viewBox="0 0 27.648022 27.647989"
   version="1.1"
   id="svg1"
   xml:space="preserve"
   xmlns="http://www.w3.org/2000/svg"
   xmlns:svg="http://www.w3.org/2000/svg"><defs
     id="defs1" /><g
     id="layer1"
     transform="translate(165.5523,-17.942081)"><path
       d="m -152.63543,45.575562 v -6.16806 a 3.1343521,3.1343521 0 0 0 -1.4275,-2.62886 5.5296003,5.5296003 0 0 1 -0.25399,-9.89881 3.1343521,3.1343521 0 0 0 1.66704,-2.76969 v -6.16806"
       style="fill:none;stroke:none;stroke-width:0.0487679"
       id="path38" /><path
       d="m -150.80669,17.942082 v 6.16806 a 3.1343521,3.1343521 0 0 0 1.66704,2.76969 5.5296003,5.5296003 0 0 1 2.29762,2.29761 3.1343521,3.1343521 0 0 0 2.76969,1.66703 h 6.16806"
       style="fill:none;stroke:none;stroke-width:0.0487679"
       id="path39" /><path
       d="m -150.79223,45.575562 v -6.16806 a 3.1343521,3.1343521 0 0 1 1.66704,-2.76969 5.5331526,5.5331526 0 0 0 1.30692,-0.96171 5.5296003,5.5296003 0 0 0 0.97624,-1.3214 3.1343521,3.1343521 0 0 1 2.76969,-1.66702 h 6.16806"
       style="fill:none;stroke:none;stroke-width:0.0487679"
       id="path40" /><path
       d="m -148.04189,31.766082 a 3.6864001,3.6864001 0 0 0 -7.37279,0 3.6864001,3.6864001 0 0 0 7.37279,0 z"
       style="fill:none;stroke:none;stroke-width:0.0487679"
       id="path41" /><path
       d="m -165.55229,17.942082 h 27.64801 v 27.64799 h -27.64801 z"
       style="fill:none;stroke:none;stroke-width:0.0487679"
       id="path46" /><path
       style="fill:#000000;stroke:none;stroke-width:0.143738"
       d="m -152.58875,42.370812 c 0,-3.48978 -0.003,-3.54114 -0.23255,-4.13669 -0.24224,-0.62813 -0.81245,-1.282 -1.37004,-1.57103 -1.31754,-0.68296 -2.2733,-1.78923 -2.729,-3.15875 -0.20917,-0.62864 -0.28011,-1.06462 -0.28148,-1.73001 -0.002,-0.8686 0.15764,-1.58273 0.5241,-2.34761 0.27575,-0.57554 0.61217,-1.05694 1.04653,-1.49754 0.41707,-0.42305 0.68021,-0.62308 1.30298,-0.99048 1.05421,-0.62193 1.59313,-1.43719 1.70083,-2.573 0.0223,-0.23505 0.0386,-1.67042 0.0386,-3.40155 l 3e-5,-2.9949 h 0.87353 0.87353 l 0.0107,3.37521 0.0107,3.37521 0.10897,0.32326 c 0.13549,0.40193 0.2117,0.55397 0.45409,0.9059 0.25894,0.37597 0.58173,0.66222 1.0769,0.95498 0.58627,0.34662 0.85327,0.54273 1.24001,0.91076 0.39565,0.37652 0.74048,0.82235 1.02449,1.32455 0.25482,0.4506 0.49979,0.75479 0.82398,1.02318 0.30388,0.25156 0.82519,0.51674 1.24235,0.63196 0.30129,0.0832 0.33627,0.0841 3.60339,0.0964 l 3.29915,0.0124 v 0.87176 0.87176 l -3.33718,0.0117 c -3.71463,0.013 -3.49487,-0.002 -4.11073,0.27961 -0.56608,0.25875 -1.11335,0.75284 -1.41446,1.277 -0.64475,1.1224 -1.22149,1.721 -2.24316,2.32822 -0.8098,0.4813 -1.29,1.00565 -1.55843,1.70172 -0.22497,0.58336 -0.22839,0.64515 -0.22839,4.12588 v 3.17057 h -0.8747 -0.87471 z m 1.68029,-6.96763 c 1.43627,-0.32093 2.54264,-1.47155 2.84935,-2.96332 0.0683,-0.33238 0.0574,-1.08155 -0.0211,-1.44516 -0.18712,-0.86673 -0.69429,-1.66856 -1.38772,-2.194 -0.32155,-0.24365 -0.92719,-0.54169 -1.31438,-0.64682 -0.25262,-0.0686 -0.41071,-0.083 -0.93174,-0.0846 -0.54081,-0.002 -0.67217,0.0101 -0.95077,0.0858 -1.28604,0.34928 -2.25423,1.29236 -2.65019,2.58149 -0.0943,0.30716 -0.10284,0.38812 -0.10484,0.99976 -0.002,0.58099 0.009,0.70627 0.0855,0.98625 0.39016,1.42787 1.56615,2.48625 3.02932,2.72636 0.37274,0.0612 1.01186,0.0402 1.3966,-0.0457 z"
       id="path108" /></g></svg>
