<?xml version="1.0" encoding="UTF-8" standalone="no"?>
<!-- Created with Inkscape (http://www.inkscape.org/) -->

<svg
   width="27.647989mm"
   height="27.64801mm"
   viewBox="0 0 27.647989 27.64801"
   version="1.1"
   id="svg1"
   xml:space="preserve"
   xmlns="http://www.w3.org/2000/svg"
   xmlns:svg="http://www.w3.org/2000/svg"><defs
     id="defs1" /><g
     id="layer1"
     transform="translate(251.26108,-17.947032)"><path
       d="m -223.61309,32.692642 h -10.1376 a 4.608,4.608 0 0 1 -4.608,-4.608 v -10.13761"
       style="fill:none;stroke:none;stroke-width:0.0487679"
       id="path6" /><path
       d="m -223.61309,30.849442 h -10.1376 a 2.7648001,2.7648001 0 0 1 -2.7648,-2.7648 v -10.13761"
       style="fill:none;stroke:none;stroke-width:0.0487679"
       id="path7" /><path
       d="m -251.26108,17.947032 h 27.64799 v 27.64801 h -27.64799 z"
       style="fill:none;stroke:none;stroke-width:0.0487679"
       id="path16" /><path
       style="fill:#000000;stroke:none;stroke-width:0.203276"
       d="m -234.27706,32.607482 c -1.79062,-0.23416 -3.20401,-1.39314 -3.80141,-3.11717 l -0.17705,-0.51094 -0.0147,-5.49935 -0.0147,-5.49934 h 0.86175 0.86177 v 5.18275 c 0,3.28077 0.02,5.28906 0.0546,5.47245 0.19228,1.02022 1.03361,1.89995 2.07689,2.17169 0.26716,0.0696 1.05411,0.0811 5.54392,0.0811 h 5.23258 v 0.88743 0.88742 l -5.14976,-0.007 c -2.83236,-0.004 -5.29564,-0.0259 -5.47395,-0.0492 z"
       id="path105" /></g></svg>
