<?xml version="1.0" encoding="UTF-8" standalone="no"?>
<!-- Created with Inkscape (http://www.inkscape.org/) -->

<svg
   width="27.648022mm"
   height="27.647989mm"
   viewBox="0 0 27.648022 27.647989"
   version="1.1"
   id="svg1"
   xml:space="preserve"
   inkscape:export-filename="sq0001-p3.svg"
   inkscape:export-xdpi="96"
   inkscape:export-ydpi="96"
   xmlns:inkscape="http://www.inkscape.org/namespaces/inkscape"
   xmlns:sodipodi="http://sodipodi.sourceforge.net/DTD/sodipodi-0.dtd"
   xmlns="http://www.w3.org/2000/svg"
   xmlns:svg="http://www.w3.org/2000/svg"><sodipodi:namedview
     id="namedview1"
     pagecolor="#505050"
     bordercolor="#eeeeee"
     borderopacity="1"
     inkscape:showpageshadow="0"
     inkscape:pageopacity="0"
     inkscape:pagecheckerboard="0"
     inkscape:deskcolor="#505050"
     inkscape:document-units="mm" /><defs
     id="defs1" /><g
     inkscape:label="Camada 1"
     inkscape:groupmode="layer"
     id="layer1"
     transform="translate(193.9332,-134.79983)"><path
       d="m -193.9332,149.54543 h 3.11598 a 1.8432001,1.8432001 0 0 1 1.78468,1.3824 9.2160002,9.2160002 0 0 0 2.40665,4.21269 9.2160002,9.2160002 0 0 0 4.2127,2.40666 1.8432001,1.8432001 0 0 1 1.3824,1.78468 v 3.11596"
       style="fill:none;stroke:none;stroke-width:0.0487679"
       id="path141"
       inkscape:export-filename="sq0000-vazio.svg"
       inkscape:export-xdpi="91.869194"
       inkscape:export-ydpi="91.869194" /><path
       d="m -193.9332,134.79983 h 27.64801 v 27.64799 h -27.64801 z"
       style="fill:none;stroke:none;stroke-width:0.0487679"
       id="path142" /><path
       d="m -176.42278,148.62382 a 3.686405,3.686405 0 0 0 -7.37281,0 3.686405,3.686405 0 0 0 7.37281,0 z"
       style="fill:none;stroke:none;stroke-width:0.0487679"
       id="path143" /><path
       d="m -174.57959,148.62382 a 5.529605,5.529605 0 0 0 -11.05921,0 5.529605,5.529605 0 0 0 11.05921,0 z"
       style="fill:none;stroke:none;stroke-width:0.0487679"
       id="path144" /><path
       d="m -193.9332,147.70222 h 3.11598 a 3.6864001,3.6864001 0 0 1 3.56935,2.7648 7.3728001,7.3728001 0 1 0 8.98188,-8.98187 3.6864001,3.6864001 0 0 1 -2.7648,-3.56936 v -3.11596"
       style="fill:none;stroke:none;stroke-width:0.0487679"
       id="path145" /><path
       d="m -166.28519,147.70222 h -3.11598 a 1.8432001,1.8432001 0 0 1 -1.78466,-1.3824 9.2160002,9.2160002 0 0 0 -2.40667,-4.21269 9.2160002,9.2160002 0 0 0 -4.2127,-2.40666 1.8432001,1.8432001 0 0 1 -1.38239,-1.78468 v -3.11596"
       style="fill:none;stroke:none;stroke-width:0.0487679"
       id="path146" /><path
       d="m -166.28519,149.54543 h -3.11598 a 1.8432001,1.8432001 0 0 0 -1.78466,1.3824 9.2160002,9.2160002 0 0 1 -2.40667,4.21269 9.2160002,9.2160002 0 0 1 -4.2127,2.40666 1.8432001,1.8432001 0 0 0 -1.38239,1.78468 v 3.11596"
       style="fill:none;stroke:none;stroke-width:0.0487679"
       id="path147" /></g></svg>
