<?xml version="1.0" encoding="UTF-8" standalone="no"?>
<!-- Created with Inkscape (http://www.inkscape.org/) -->

<svg
   width="27.648005mm"
   height="27.647989mm"
   viewBox="0 0 27.648005 27.647989"
   version="1.1"
   id="svg1"
   xml:space="preserve"
   xmlns="http://www.w3.org/2000/svg"
   xmlns:svg="http://www.w3.org/2000/svg"><defs
     id="defs1" /><g
     id="layer1"
     transform="translate(279.83069,-75.091207)"><path
       d="M -279.83069,102.7392 V 75.091212 h 27.64801 V 102.7392 Z"
       style="fill:none;stroke:none;stroke-width:0.0487679"
       id="path101" /><path
       d="m -265.08509,102.7392 v -9.215988 a 3.6864001,3.6864001 0 0 1 3.6864,-3.6864 h 0.84426 a 0.92160287,0.92160287 0 0 0 0,-1.8432 h -10.90451 a 0.92160287,0.92160287 0 0 0 0,1.8432 h 0.84425 a 3.6864001,3.6864001 0 0 1 3.6864,3.6864 v 9.215988"
       style="fill:none;stroke:none;stroke-width:0.0487679"
       id="path102" /><path
       style="fill:#000000;stroke:none;stroke-width:0.287475"
       d="m -266.85278,97.947442 c -10e-4,-5.18799 -0.0129,-5.33885 -0.46883,-6.19429 -0.28454,-0.53387 -0.79024,-1.08409 -1.28119,-1.39401 -0.60796,-0.38379 -1.09532,-0.50922 -2.1856,-0.56248 l -1.00859,-0.0493 -0.24642,-0.24642 c -0.20421,-0.20421 -0.24642,-0.30455 -0.24642,-0.58577 0,-0.28184 0.0421,-0.38149 0.24864,-0.58801 l 0.24864,-0.24866 5.66961,-0.0204 c 6.22823,-0.0224 6.01386,-0.0372 6.29145,0.43273 0.16497,0.27928 0.16497,0.56951 0,0.84878 -0.20285,0.3434 -0.51861,0.45031 -1.32992,0.45031 -0.39586,0 -0.9134,0.0519 -1.16126,0.11647 -1.23511,0.3217 -2.23229,1.25257 -2.64553,2.46961 -0.16509,0.48623 -0.16828,0.57511 -0.19299,5.38132 l -0.0251,4.886918 h -0.83257 -0.83257 z"
       id="path124" /></g></svg>
