<?xml version="1.0" encoding="UTF-8" standalone="no"?>
<!-- Created with Inkscape (http://www.inkscape.org/) -->

<svg
   width="27.648005mm"
   height="27.647989mm"
   viewBox="0 0 27.648005 27.647989"
   version="1.1"
   id="svg1"
   xml:space="preserve"
   xmlns="http://www.w3.org/2000/svg"
   xmlns:svg="http://www.w3.org/2000/svg"><defs
     id="defs1" /><g
     id="layer1"
     transform="translate(279.83069,-46.516654)"><path
       d="m -262.32028,60.340652 a 3.6864005,3.6864005 0 0 0 -7.3728,0 3.6864005,3.6864005 0 0 0 7.3728,0 z"
       style="fill:none;stroke:none;stroke-width:0.0487679"
       id="path36" /><path
       d="m -279.83069,46.516652 h 27.64801 v 27.64799 h -27.64801 z"
       style="fill:none;stroke:none;stroke-width:0.0487679"
       id="path37" /><path
       d="m -266.92829,74.164642 v -6.16806 a 3.1343521,3.1343521 0 0 0 -1.66703,-2.76969 5.5296003,5.5296003 0 1 1 5.17727,0 3.1343521,3.1343521 0 0 0 -1.66704,2.76969 v 6.16806"
       style="fill:none;stroke:none;stroke-width:0.0487679"
       id="path65" /><path
       style="fill:#000000;stroke:none;stroke-width:0.143738"
       d="m -266.88046,70.841182 c -0.0155,-3.6075 -0.005,-3.43861 -0.2435,-4.03393 -0.17139,-0.4284 -0.35382,-0.69794 -0.71248,-1.05265 -0.24465,-0.24195 -0.44453,-0.398 -0.68196,-0.53242 -0.55359,-0.31342 -0.97408,-0.62599 -1.3562,-1.0081 -1.46737,-1.46736 -1.9766,-3.56423 -1.34829,-5.55181 0.51144,-1.61785 1.81977,-2.95163 3.43968,-3.50659 1.04751,-0.35887 2.23694,-0.38964 3.28753,-0.0851 2.43735,0.70661 4.08338,2.99603 3.9629,5.51184 -0.0645,1.34757 -0.588,2.56855 -1.51846,3.54183 -0.40634,0.42504 -0.76187,0.69809 -1.38193,1.06134 -0.72526,0.42487 -1.22133,0.98523 -1.4805,1.67233 -0.20676,0.54818 -0.2074,0.56069 -0.2074,4.05313 v 3.22925 h -0.8726 -0.87259 z m 1.81643,-6.89152 c 0.39124,-0.10442 0.99677,-0.39916 1.31205,-0.63863 0.66483,-0.50498 1.13739,-1.22188 1.35961,-2.06261 0.0811,-0.30683 0.0956,-0.44542 0.0956,-0.91317 0,-0.47172 -0.0142,-0.6053 -0.0984,-0.924 -0.34538,-1.30822 -1.36578,-2.33088 -2.66891,-2.67481 -0.31881,-0.0841 -0.46639,-0.10094 -0.91273,-0.10396 -0.70098,-0.005 -1.11384,0.0881 -1.71137,0.38488 -0.80294,0.39877 -1.50261,1.17806 -1.80296,2.00812 -0.19205,0.53074 -0.24372,0.87121 -0.22136,1.45849 0.0239,0.62732 0.10809,0.97082 0.36905,1.50561 0.51214,1.04954 1.45549,1.76757 2.64869,2.01604 0.38164,0.0795 1.23266,0.0503 1.63068,-0.056 z"
       id="path111" /></g></svg>
