<?xml version="1.0" encoding="UTF-8" standalone="no"?>
<!-- Created with Inkscape (http://www.inkscape.org/) -->

<svg
   width="27.647989mm"
   height="27.647989mm"
   viewBox="0 0 27.647989 27.647989"
   version="1.1"
   id="svg1"
   xml:space="preserve"
   inkscape:export-filename="sq0001-p3.svg"
   inkscape:export-xdpi="96"
   inkscape:export-ydpi="96"
   xmlns:inkscape="http://www.inkscape.org/namespaces/inkscape"
   xmlns:sodipodi="http://sodipodi.sourceforge.net/DTD/sodipodi-0.dtd"
   xmlns="http://www.w3.org/2000/svg"
   xmlns:svg="http://www.w3.org/2000/svg"><sodipodi:namedview
     id="namedview1"
     pagecolor="#505050"
     bordercolor="#eeeeee"
     borderopacity="1"
     inkscape:showpageshadow="0"
     inkscape:pageopacity="0"
     inkscape:pagecheckerboard="0"
     inkscape:deskcolor="#505050"
     inkscape:document-units="mm" /><defs
     id="defs1" /><g
     inkscape:label="Camada 1"
     inkscape:groupmode="layer"
     id="layer1"
     transform="translate(251.26108,-46.516654)"><path
       d="m -251.26108,46.516652 h 27.64799 v 27.64799 h -27.64799 z"
       style="fill:none;stroke:none;stroke-width:0.0487679"
       id="path12"
       inkscape:export-filename="sq0003-end.svg"
       inkscape:export-xdpi="96"
       inkscape:export-ydpi="96" /><path
       d="m -233.75069,60.340652 a 3.6864002,3.6864002 0 0 0 -7.3728,0 3.6864002,3.6864002 0 0 0 7.3728,0 z"
       style="fill:none;stroke:none;stroke-width:0.0487679"
       id="path17" /><path
       d="m -231.90748,60.340652 a 5.5296003,5.5296003 0 0 0 -11.0592,0 5.5296003,5.5296003 0 0 0 11.0592,0 z"
       style="fill:none;stroke:none;stroke-width:0.0487679"
       id="path18" /><path
       d="m -223.61309,59.419042 h -5.5296 a 0.92160287,0.92160287 0 0 0 0,1.8432 h 5.5296"
       style="fill:none;stroke:none;stroke-width:0.0487679"
       id="path68" /><path
       style="fill:#000000;stroke:none;stroke-width:0.101638"
       d="m -237.94627,65.807282 c -1.90492,-0.19751 -3.52723,-1.30753 -4.39128,-3.00461 -0.97713,-1.91918 -0.71038,-4.29742 0.66737,-5.95012 0.37485,-0.44965 0.91911,-0.91832 1.41145,-1.2154 1.4926,-0.90067 3.37391,-1.02746 4.9848,-0.33595 1.82592,0.7838 3.08499,2.49942 3.29957,4.49598 0.0386,0.35882 0.0181,1.05271 -0.0416,1.41182 -0.1884,1.13245 -0.71426,2.16797 -1.50908,2.97171 -0.83244,0.84178 -1.87699,1.38367 -3.03473,1.57435 -0.37286,0.0614 -1.05137,0.087 -1.38644,0.0522 z m 1.06123,-1.78847 c 0.97518,-0.14698 1.82809,-0.654 2.41759,-1.43716 0.31547,-0.4191 0.52041,-0.85547 0.65673,-1.39836 0.065,-0.25867 0.0713,-0.33074 0.0721,-0.82138 0.001,-0.72091 -0.0772,-1.08346 -0.3605,-1.66728 -0.50943,-1.04979 -1.51966,-1.80837 -2.69081,-2.02051 -0.33826,-0.0613 -0.94932,-0.0619 -1.28336,-10e-4 -1.56144,0.2833 -2.76945,1.49492 -3.03175,3.0408 -0.0583,0.34342 -0.0587,0.92089 -8.5e-4,1.25401 0.16317,0.94042 0.67204,1.7723 1.43628,2.34797 0.51328,0.38663 1.19292,0.65984 1.80405,0.72521 0.24047,0.0257 0.73788,0.0145 0.98055,-0.022 z"
       id="path112" /><path
       style="fill:#000000;stroke:none;stroke-width:0.101638"
       d="m -229.28899,61.208762 c -0.28016,-0.0474 -0.53151,-0.24582 -0.65936,-0.5204 -0.0851,-0.18278 -0.0888,-0.46206 -0.009,-0.67534 0.0679,-0.18136 0.25298,-0.37931 0.44167,-0.47228 l 0.13446,-0.0662 2.87068,-0.007 2.87068,-0.007 v 0.8879 0.8879 l -2.76311,-0.003 c -1.51972,-0.002 -2.8184,-0.0125 -2.88597,-0.024 z"
       id="path113" /></g></svg>
