<?xml version="1.0" encoding="UTF-8" standalone="no"?>
<!-- Created with Inkscape (http://www.inkscape.org/) -->

<svg
   width="27.648005mm"
   height="27.647989mm"
   viewBox="0 0 27.648005 27.647989"
   version="1.1"
   id="svg1"
   xml:space="preserve"
   xmlns="http://www.w3.org/2000/svg"
   xmlns:svg="http://www.w3.org/2000/svg"><defs
     id="defs1" /><g
     id="layer1"
     transform="translate(279.83069,-103.66081)"><path
       d="m -258.63389,117.48482 a 7.3728001,7.3728001 0 0 0 -14.7456,0 7.3728001,7.3728001 0 0 0 14.7456,0 z"
       style="fill:none;stroke:none;stroke-width:0.0487679"
       id="path31" /><path
       d="m -266.92829,103.66081 v 3.11597 a 1.8432001,1.8432001 0 0 1 -1.3824,1.78467 9.2160002,9.2160002 0 0 0 -6.912,8.92337 9.2160002,9.2160002 0 0 0 9.216,9.21599 9.2160002,9.2160002 0 0 0 9.216,-9.21599 9.2160002,9.2160002 0 0 0 -6.912,-8.92337 1.8432001,1.8432001 0 0 1 -1.3824,-1.78467 v -3.11597"
       style="fill:none;stroke:none;stroke-width:0.0487679"
       id="path32" /><path
       d="m -262.32028,117.48482 a 3.6864005,3.6864005 0 0 0 -7.3728,0 3.6864005,3.6864005 0 0 0 7.3728,0 z"
       style="fill:none;stroke:none;stroke-width:0.0487679"
       id="path33" /><path
       d="m -260.47709,117.48482 a 5.5296003,5.5296003 0 0 0 -11.0592,0 5.5296003,5.5296003 0 0 0 11.0592,0 z"
       style="fill:none;stroke:none;stroke-width:0.0487679"
       id="path34" /><path
       d="m -279.83069,103.66081 h 27.64801 v 27.64799 h -27.64801 z"
       style="fill:none;stroke:none;stroke-width:0.0487679"
       id="path35" /><path
       style="fill:#000000;stroke:none;stroke-width:0.203276"
       d="m -266.6531,126.61407 c -2.74374,-0.15195 -5.38362,-1.69001 -6.9833,-4.06867 -2.06555,-3.07139 -2.03461,-7.1443 0.0777,-10.22883 1.17301,-1.71292 2.76425,-2.89173 4.80329,-3.55837 0.44109,-0.14421 0.87673,-0.30869 0.9681,-0.36553 0.27338,-0.17004 0.6101,-0.54954 0.74172,-0.83593 0.11985,-0.26078 0.12407,-0.32297 0.13972,-2.05721 l 0.0161,-1.78829 h 0.88204 0.88205 l 0.0161,1.78829 c 0.0183,2.02635 0.0218,2.04524 0.47502,2.53691 0.32012,0.34728 0.47022,0.42611 1.37452,0.72179 2.09118,0.68377 3.6792,1.87672 4.87123,3.65936 3.06471,4.58317 1.39653,10.8058 -3.55718,13.26901 -1.46399,0.72797 -2.96593,1.0239 -4.70717,0.92747 z m 2.2858,-1.89263 c 3.18929,-0.74424 5.54395,-3.47175 5.74602,-6.65591 0.14554,-2.29319 -0.58252,-4.25331 -2.16588,-5.83111 -1.07596,-1.07218 -2.23819,-1.69836 -3.75825,-2.02484 -0.78184,-0.16793 -2.14273,-0.16793 -2.92457,0 -1.51854,0.32615 -2.67546,0.94988 -3.75837,2.02624 -1.15216,1.14519 -1.85233,2.5029 -2.10126,4.07459 -0.12893,0.81403 -0.0782,2.18978 0.10792,2.92755 0.7037,2.78917 2.90142,4.92409 5.65865,5.49695 0.74579,0.15496 0.80561,0.15961 1.77048,0.13778 0.67238,-0.0152 0.98401,-0.0483 1.42526,-0.15125 z"
       id="path129" /><path
       style="fill:#000000;stroke:none;stroke-width:0.203276"
       d="m -266.75611,122.90992 c -0.91548,-0.14441 -1.83047,-0.52791 -2.54025,-1.06469 -1.06858,-0.80814 -1.80193,-1.96932 -2.07364,-3.28342 -0.0875,-0.42332 -0.10222,-0.65415 -0.0808,-1.27029 0.0313,-0.90198 0.14385,-1.37077 0.5165,-2.15133 1.28868,-2.69927 4.48176,-3.87275 7.18039,-2.63885 1.97157,0.90146 3.20385,2.81627 3.20385,4.97842 0,2.97113 -2.30127,5.35511 -5.26935,5.45875 -0.34018,0.0119 -0.76168,-8.5e-4 -0.93666,-0.0286 z m 1.74098,-1.83423 c 1.1593,-0.30572 2.16969,-1.2601 2.54896,-2.40767 0.31333,-0.94803 0.24015,-1.91755 -0.21554,-2.85554 -0.471,-0.96948 -1.40825,-1.71338 -2.47659,-1.96566 -0.29573,-0.0698 -0.538,-0.0853 -1.02188,-0.065 -1.0493,0.0438 -1.70643,0.33482 -2.46933,1.09351 -0.35874,0.35678 -0.48087,0.52478 -0.68422,0.94121 -0.75065,1.53724 -0.45015,3.21443 0.78603,4.38716 0.94384,0.89539 2.23519,1.21417 3.53257,0.87203 z"
       id="path130" /></g></svg>
