<?xml version="1.0" encoding="UTF-8" standalone="no"?>
<!-- Created with Inkscape (http://www.inkscape.org/) -->

<svg
   width="27.648005mm"
   height="27.647989mm"
   viewBox="0 0 27.648005 27.647989"
   version="1.1"
   id="svg1"
   xml:space="preserve"
   xmlns="http://www.w3.org/2000/svg"
   xmlns:svg="http://www.w3.org/2000/svg"><defs id="defs1" /><g id="layer1" transform="translate(194.12189,-103.66578)">
   <path
       d="m -194.12189,118.41138 h 3.11598 a 1.8432001,1.8432001 0 0 1 1.78468,1.3824 9.2160002,9.2160002 0 0 0 2.40665,4.21269 9.2160002,9.2160002 0 0 0 4.2127,2.40666 1.8432001,1.8432001 0 0 1 1.3824,1.78468 v 3.11596"
       style="fill:none;stroke:none;stroke-width:0.0487679"
       id="path94" /><path
       d="m -194.12189,103.66578 h 27.64801 v 27.64799 h -27.64801 z"
       style="fill:none;stroke:none;stroke-width:0.0487679"
       id="path95" /><path
       d="m -176.61147,117.48977 a 3.686405,3.686405 0 0 0 -7.37281,0 3.686405,3.686405 0 0 0 7.37281,0 z"
       style="fill:none;stroke:none;stroke-width:0.0487679"
       id="path96" /><path
       d="m -174.76828,117.48977 a 5.529605,5.529605 0 0 0 -11.05921,0 5.529605,5.529605 0 0 0 11.05921,0 z"
       style="fill:none;stroke:none;stroke-width:0.0487679"
       id="path97" /><path
       d="m -194.12189,116.56817 h 3.11598 a 3.6864001,3.6864001 0 0 1 3.56935,2.7648 7.3728001,7.3728001 0 1 0 8.98188,-8.98187 3.6864001,3.6864001 0 0 1 -2.7648,-3.56936 v -3.11596"
       style="fill:none;stroke:none;stroke-width:0.0487679"
       id="path98" /><path
       d="m -166.47388,116.56817 h -3.11598 a 1.8432001,1.8432001 0 0 1 -1.78466,-1.3824 9.2160002,9.2160002 0 0 0 -2.40667,-4.21269 9.2160002,9.2160002 0 0 0 -4.2127,-2.40666 1.8432001,1.8432001 0 0 1 -1.38239,-1.78468 v -3.11596"
       style="fill:none;stroke:none;stroke-width:0.0487679"
       id="path99" /><path
       d="m -166.47388,118.41138 h -3.11598 a 1.8432001,1.8432001 0 0 0 -1.78466,1.3824 9.2160002,9.2160002 0 0 1 -2.40667,4.21269 9.2160002,9.2160002 0 0 1 -4.2127,2.40666 1.8432001,1.8432001 0 0 0 -1.38239,1.78468 v 3.11596"
       style="fill:none;stroke:none;stroke-width:0.0487679"
       id="path100" /><path
       style="fill:#000000;stroke:none;stroke-width:0.143738"
       d="m -181.1877,129.59683 c 0,-1.81268 -0.009,-1.91225 -0.21958,-2.30599 -0.0566,-0.10615 -0.20583,-0.29713 -0.33152,-0.4244 -0.2629,-0.2662 -0.54162,-0.41191 -1.07625,-0.56262 -1.12557,-0.31731 -2.33024,-0.94409 -3.26625,-1.6994 -0.16366,-0.13207 -0.49438,-0.43839 -0.73492,-0.6807 -1.1193,-1.12755 -1.84713,-2.3919 -2.35508,-4.09116 -0.18764,-0.62772 -0.51181,-1.03612 -1.00799,-1.26991 -0.38574,-0.18176 -0.51573,-0.19281 -2.26732,-0.19281 h -1.63344 v -0.87471 -0.8747 h 1.72704 c 1.89337,0 2.01876,0.0109 2.61292,0.22676 0.61671,0.22406 1.23344,0.68193 1.63799,1.21608 0.26267,0.34682 0.49965,0.85106 0.65791,1.3999 0.45912,1.59223 1.30916,2.86262 2.60556,3.89403 0.31272,0.24881 0.81393,0.55595 1.28772,0.78913 2.05429,1.01102 4.45511,1.00643 6.52755,-0.0125 2.25808,-1.11018 3.77376,-3.2478 4.08627,-5.76302 0.0572,-0.46032 0.0482,-1.43591 -0.0175,-1.89807 -0.32052,-2.25509 -1.61073,-4.19455 -3.57102,-5.368 -0.49051,-0.29362 -1.06903,-0.54065 -1.7374,-0.74185 -0.32221,-0.097 -0.72108,-0.24362 -0.88637,-0.32582 -1.09981,-0.54695 -1.84708,-1.60597 -1.99636,-2.82922 -0.0242,-0.1982 -0.0418,-1.0106 -0.0419,-1.93005 l -1.1e-4,-1.58777 h 0.89371 0.89372 v 1.70737 c 0,1.92754 0.005,1.97085 0.29754,2.42297 0.27731,0.42906 0.616,0.64721 1.31876,0.84941 2.48964,0.71636 4.56353,2.45139 5.70447,4.7724 0.26854,0.5463 0.52039,1.20789 0.64956,1.70636 0.18904,0.72953 0.7396,1.26519 1.4566,1.41717 0.19313,0.0409 0.62645,0.0535 1.85863,0.054 l 1.60679,8.5e-4 v 0.8747 0.87471 h -1.63344 c -1.04558,0 -1.70597,0.0151 -1.83497,0.042 -0.3515,0.0733 -0.67416,0.25258 -0.94497,0.52506 -0.28633,0.28809 -0.38965,0.4867 -0.56562,1.08724 -0.89438,3.05227 -3.21462,5.37037 -6.2839,6.27811 -0.5876,0.17378 -0.765,0.26327 -1.05608,0.53276 -0.17469,0.16174 -0.27151,0.29475 -0.39307,0.53999 l -0.16128,0.32539 -0.0113,1.78089 -0.0113,1.78088 h -0.89196 -0.89197 z"
       id="path134" /><path
       style="fill:#000000;stroke:none;stroke-width:0.101638"
       d="m -180.84186,122.94985 c -2.05197,-0.21074 -3.80455,-1.54112 -4.56837,-3.46781 -0.24814,-0.62593 -0.36625,-1.26594 -0.36625,-1.98464 0,-0.87631 0.15744,-1.58644 0.52259,-2.35721 0.26401,-0.55728 0.56555,-0.9898 1.00974,-1.44834 0.89734,-0.92635 1.99173,-1.47754 3.26249,-1.64318 2.30617,-0.30059 4.59245,0.9367 5.61317,3.03773 1.21382,2.49852 0.40185,5.44192 -1.92938,6.99407 -1.00553,0.66949 -2.32904,0.99416 -3.54399,0.86938 z m 1.13025,-1.7852 c 1.38045,-0.2239 2.5115,-1.18814 2.95148,-2.51619 0.13577,-0.40979 0.16646,-0.62234 0.16681,-1.15526 3.6e-4,-0.53883 -0.0451,-0.83328 -0.19291,-1.24827 -0.41314,-1.16023 -1.43396,-2.08218 -2.62266,-2.36865 -2.07031,-0.49891 -4.09983,0.79434 -4.5414,2.89388 -0.0768,0.3652 -0.0837,0.99206 -0.015,1.36844 0.21217,1.16268 0.9518,2.15123 2.00741,2.68303 0.27324,0.13765 0.71669,0.28402 0.99499,0.32841 0.11093,0.0177 0.21984,0.0358 0.24203,0.0401 0.12884,0.0252 0.8012,0.008 1.00924,-0.0255 z"
       id="path135" /></g></svg>
