<?xml version="1.0" encoding="UTF-8" standalone="no"?>
<!-- Created with Inkscape (http://www.inkscape.org/) -->

<svg
   width="27.648005mm"
   height="27.647989mm"
   viewBox="0 0 27.648005 27.647989"
   version="1.1"
   id="svg1"
   xml:space="preserve"
   xmlns="http://www.w3.org/2000/svg"
   xmlns:svg="http://www.w3.org/2000/svg"><defs
     id="defs1" /><g
     id="layer1"
     transform="translate(222.69147,-46.516654)"><path
       d="m -195.04348,59.419042 a 14.745601,14.745601 0 0 0 -14.7456,14.7456"
       style="fill:none;stroke:none;stroke-width:0.0487679"
       id="path28" /><path
       d="m -195.04348,61.262242 a 12.9024,12.9024 0 0 0 -12.9024,12.9024"
       style="fill:none;stroke:none;stroke-width:0.0487679"
       id="path29" /><path
       d="m -222.69148,46.516652 h 27.648 v 27.64799 h -27.648 z"
       style="fill:none;stroke:none;stroke-width:0.0487679"
       id="path30" /><path
       style="fill:#000000;stroke:none;stroke-width:0.101638"
       d="m -209.743,73.774122 c 0.0898,-4.17157 2.04508,-8.20311 5.29027,-10.90789 2.49574,-2.08014 5.64305,-3.28383 8.88097,-3.39655 l 0.49077,-0.0171 v 0.88753 0.88753 l -0.50421,0.0166 c -2.5326,0.0836 -5.10055,0.98991 -7.17459,2.53208 -1.17158,0.87113 -2.23286,1.98788 -3.04188,3.20087 -1.28945,1.93331 -2.01992,4.12537 -2.15966,6.48088 -0.0149,0.25144 -0.0273,0.50254 -0.0274,0.558 l -2.6e-4,0.10084 -0.8807,1e-5 -0.8807,1e-5 z"
       id="path114" /></g></svg>
