<?xml version="1.0" encoding="UTF-8" standalone="no"?>
<!-- Created with Inkscape (http://www.inkscape.org/) -->

<svg
   width="27.648022mm"
   height="27.647989mm"
   viewBox="0 0 27.648022 27.647989"
   version="1.1"
   id="svg1"
   xml:space="preserve"
   xmlns="http://www.w3.org/2000/svg"
   xmlns:svg="http://www.w3.org/2000/svg"><defs
     id="defs1" /><g
     id="layer1"
     transform="translate(165.5523,-46.516654)"><path
       d="m -152.64988,46.516652 v 3.11596 a 3.6864001,3.6864001 0 0 0 2.7648,3.56935 7.3728001,7.3728001 0 0 1 5.5296,7.13869 7.3728001,7.3728001 0 0 1 -7.37281,7.37279 7.3728001,7.3728001 0 0 1 -7.13868,-5.5296 3.6864001,3.6864001 0 0 0 -3.56934,-2.7648 h -3.11598"
       style="fill:none;stroke:none;stroke-width:0.0487679"
       id="path8" /><path
       d="m -150.80669,46.516652 v 3.11596 a 1.8432001,1.8432001 0 0 0 1.38242,1.78468 9.2160002,9.2160002 0 0 1 6.912,8.92336 9.2160002,9.2160002 0 0 1 -9.21602,9.216 9.2160002,9.2160002 0 0 1 -8.92334,-6.91201 1.8432001,1.8432001 0 0 0 -1.78468,-1.3824 h -3.11598"
       style="fill:none;stroke:none;stroke-width:0.0487679"
       id="path9" /><path
       d="m -165.55229,46.516652 h 27.64801 v 27.64799 h -27.64801 z"
       style="fill:none;stroke:none;stroke-width:0.0487679"
       id="path14" /><path
       d="m -148.04189,60.340652 a 3.6864001,3.6864001 0 0 0 -7.37279,0 3.6864001,3.6864001 0 0 0 7.37279,0 z"
       style="fill:none;stroke:none;stroke-width:0.0487679"
       id="path21" /><path
       d="m -146.19868,60.340652 a 5.529605,5.529605 0 0 0 -11.05921,0 5.529605,5.529605 0 0 0 11.05921,0 z"
       style="fill:none;stroke:none;stroke-width:0.0487679"
       id="path22" /><path
       style="fill:#000000;stroke:none;stroke-width:0.203276"
       d="m -152.76699,65.716892 c -2.78511,-0.58325 -4.66527,-3.09593 -4.40551,-5.88761 0.0609,-0.65501 0.2132,-1.20132 0.50904,-1.82666 0.69189,-1.46248 1.99,-2.53071 3.61812,-2.9774 0.33831,-0.0928 0.57296,-0.11395 1.30023,-0.11712 0.8096,-0.003 0.93393,0.009 1.41762,0.14364 1.91159,0.53185 3.36432,1.98014 3.88486,3.87298 0.18537,0.67404 0.2301,1.64417 0.10805,2.34324 -0.36084,2.06679 -1.86604,3.72948 -3.93148,4.34283 -0.41458,0.12311 -0.6037,0.1463 -1.31769,0.16153 -0.56095,0.0119 -0.948,-0.006 -1.18324,-0.0554 z m 2.17822,-1.82516 c 2.14631,-0.69196 3.21701,-3.16659 2.23043,-5.15504 -1.10655,-2.23026 -3.86864,-2.82138 -5.7976,-1.24074 -0.53993,0.44243 -1.07266,1.33019 -1.21957,2.03232 -0.35191,1.68191 0.46138,3.39334 1.96429,4.13346 0.66877,0.32935 1.05463,0.41251 1.80057,0.38808 0.44934,-0.0147 0.6951,-0.0527 1.02188,-0.15808 z"
       id="path117" /><path
       style="fill:#000000;stroke:none;stroke-width:0.203276"
       d="m -152.9292,69.424082 c -3.51579,-0.48021 -6.46305,-2.94852 -7.51328,-6.29233 -0.1022,-0.32539 -0.23826,-0.7107 -0.30235,-0.85625 -0.15131,-0.34359 -0.52425,-0.71281 -0.89627,-0.88733 l -0.29594,-0.13884 -1.78829,-0.0161 -1.7883,-0.0161 v -0.89006 -0.89007 l 1.81519,0.0242 c 2.03713,0.0272 2.13001,0.0408 2.91708,0.42617 0.35971,0.17615 0.54823,0.31572 0.88919,0.65832 0.5051,0.50751 0.79557,1.01938 1.01381,1.78654 1.07977,3.79571 4.83454,6.0646 8.71095,5.26373 2.84905,-0.58862 5.08713,-2.85698 5.72273,-5.80018 0.13483,-0.6243 0.13254,-2.30108 -0.004,-2.92729 -0.60883,-2.79248 -2.57319,-4.89813 -5.30098,-5.68226 -1.3734,-0.3948 -2.25914,-1.21377 -2.68045,-2.47838 -0.14208,-0.42646 -0.14352,-0.44654 -0.16375,-2.27234 l -0.0204,-1.84208 h 0.89173 0.89173 v 1.71905 c 0,1.95631 0.021,2.07905 0.43738,2.55204 0.29308,0.33295 0.58782,0.49601 1.23637,0.68399 2.12305,0.61534 4.01706,2.0536 5.19647,3.94606 2.3031,3.69549 1.70255,8.44081 -1.45078,11.46354 -1.99456,1.91195 -4.81085,2.83575 -7.51785,2.46601 z"
       id="path118" /></g></svg>
