<?xml version="1.0" encoding="UTF-8" standalone="no"?>
<!-- Created with Inkscape (http://www.inkscape.org/) -->

<svg
   width="27.648005mm"
   height="27.647989mm"
   viewBox="0 0 27.648005 27.647989"
   version="1.1"
   id="svg1"
   xml:space="preserve"
   inkscape:export-filename="sq0001-p3.svg"
   inkscape:export-xdpi="96"
   inkscape:export-ydpi="96"
   xmlns:inkscape="http://www.inkscape.org/namespaces/inkscape"
   xmlns:sodipodi="http://sodipodi.sourceforge.net/DTD/sodipodi-0.dtd"
   xmlns="http://www.w3.org/2000/svg"
   xmlns:svg="http://www.w3.org/2000/svg"><sodipodi:namedview
     id="namedview1"
     pagecolor="#505050"
     bordercolor="#eeeeee"
     borderopacity="1"
     inkscape:showpageshadow="0"
     inkscape:pageopacity="0"
     inkscape:pagecheckerboard="0"
     inkscape:deskcolor="#505050"
     inkscape:document-units="mm" /><defs
     id="defs1" /><g
     inkscape:label="Camada 1"
     inkscape:groupmode="layer"
     id="layer1"
     transform="translate(194.12189,-75.091207)"><path
       d="m -194.12189,87.993612 h 3.11598 a 3.6864001,3.6864001 0 0 1 3.56935,2.7648 7.3728001,7.3728001 0 0 0 1.92531,3.37015 7.3728001,7.3728001 0 0 0 3.37016,1.92533 3.6864001,3.6864001 0 0 1 2.76481,3.56935 v 3.115958"
       style="fill:none;stroke:none;stroke-width:0.0487679"
       id="path87"
       inkscape:export-filename="sq0002-p4.svg"
       inkscape:export-xdpi="96"
       inkscape:export-ydpi="96" /><path
       d="m -194.12189,89.836812 h 3.11598 a 1.8432001,1.8432001 0 0 1 1.78468,1.3824 9.2160002,9.2160002 0 0 0 2.40665,4.2127 9.2160002,9.2160002 0 0 0 4.2127,2.40665 1.8432001,1.8432001 0 0 1 1.3824,1.78468 v 3.115958"
       style="fill:none;stroke:none;stroke-width:0.0487679"
       id="path88" /><path
       d="m -194.12189,75.091212 h 27.64801 V 102.7392 h -27.64801 z"
       style="fill:none;stroke:none;stroke-width:0.0487679"
       id="path89" /><path
       d="m -176.61147,88.915222 a 3.686405,3.686405 0 0 0 -7.37281,0 3.686405,3.686405 0 0 0 7.37281,0 z"
       style="fill:none;stroke:none;stroke-width:0.0487679"
       id="path90" /><path
       d="m -174.76828,88.915222 a 5.529605,5.529605 0 0 0 -11.05921,0 5.529605,5.529605 0 0 0 11.05921,0 z"
       style="fill:none;stroke:none;stroke-width:0.0487679"
       id="path91" /><path
       d="m -166.47388,89.836812 h -3.11598 a 3.6864001,3.6864001 0 0 1 -3.56934,-2.7648 7.3728001,7.3728001 0 0 0 -1.92532,-3.37016 7.3728001,7.3728001 0 0 0 -3.37016,-1.92532 3.6864001,3.6864001 0 0 1 -2.7648,-3.56935 v -3.11597"
       style="fill:none;stroke:none;stroke-width:0.0487679"
       id="path92" /><path
       d="m -166.47388,87.993612 h -3.11598 a 1.8432001,1.8432001 0 0 1 -1.78466,-1.3824 9.2160002,9.2160002 0 0 0 -2.40667,-4.2127 9.2160002,9.2160002 0 0 0 -4.2127,-2.40666 1.8432001,1.8432001 0 0 1 -1.38239,-1.78467 v -3.11597"
       style="fill:none;stroke:none;stroke-width:0.0487679"
       id="path93" /><path
       style="fill:#000000;stroke:none;stroke-width:0.101638"
       d="m -170.15243,89.753462 c -0.99036,-0.15659 -1.92015,-0.75256 -2.46784,-1.58185 -0.23732,-0.35933 -0.37356,-0.67089 -0.52978,-1.21156 -0.37366,-1.29318 -1.00169,-2.37286 -1.91011,-3.28379 -0.89093,-0.89339 -1.96022,-1.51863 -3.24056,-1.89487 -0.58633,-0.17229 -0.89083,-0.3044 -1.25302,-0.54361 -0.68579,-0.45293 -1.24978,-1.21622 -1.47624,-1.99794 -0.13942,-0.48127 -0.1477,-0.61706 -0.14787,-2.42697 l -1.6e-4,-1.674 h 0.88743 0.88742 v 1.66298 c 0,1.56608 0.003,1.67504 0.0529,1.86996 0.0829,0.32425 0.24856,0.61512 0.48438,0.85066 0.2482,0.2479 0.46974,0.37947 0.82071,0.48743 0.96929,0.29817 1.1907,0.38197 1.80174,0.68196 0.92369,0.4535 1.64608,0.96833 2.38906,1.70263 0.76361,0.75469 1.31306,1.51612 1.77927,2.46571 0.29999,0.61103 0.3838,0.83244 0.68197,1.80174 0.10795,0.35097 0.23953,0.5725 0.48743,0.8207 0.23554,0.23583 0.52641,0.40146 0.85066,0.48439 0.19491,0.0498 0.30388,0.0529 1.86996,0.0529 h 1.66298 v 0.88742 0.88742 l -1.7009,-0.003 c -1.282,-0.002 -1.75719,-0.0115 -1.92947,-0.0387 z"
       id="path121" /><path
       style="fill:#000000;stroke:none;stroke-width:0.101638"
       d="m -180.96288,94.364062 c -2.24943,-0.2883 -4.10089,-1.92034 -4.65406,-4.10249 -0.21637,-0.85355 -0.2189,-1.80181 -0.007,-2.67187 0.3769,-1.5484 1.47177,-2.89713 2.92666,-3.60526 1.50928,-0.7346 3.26669,-0.73893 4.76792,-0.0117 0.36232,0.17551 0.69338,0.37719 0.98689,0.6012 0.22701,0.17327 0.71494,0.65205 0.90838,0.89135 1.37289,1.69836 1.61254,4.03861 0.61049,5.96159 -0.8389,1.6099 -2.37592,2.69049 -4.16235,2.92632 -0.32571,0.043 -1.0798,0.049 -1.37682,0.0109 z m 1.33114,-1.78797 c 0.75459,-0.12938 1.45914,-0.51041 2.01688,-1.09074 0.49239,-0.51235 0.81576,-1.12237 0.96742,-1.825 0.0695,-0.32211 0.0836,-0.95193 0.0292,-1.30424 -0.0505,-0.32663 -0.20612,-0.82798 -0.33921,-1.09268 -0.52335,-1.04092 -1.46745,-1.75971 -2.63392,-2.00538 -0.32514,-0.0685 -1.10595,-0.0672 -1.42526,0.002 -0.78456,0.17075 -1.42411,0.52271 -1.95682,1.0769 -0.69759,0.7257 -1.03874,1.57511 -1.03767,2.58364 8.5e-4,0.71047 0.16693,1.32585 0.51165,1.89469 0.61684,1.01786 1.63126,1.66846 2.81267,1.8039 0.2545,0.0292 0.75116,0.009 1.05509,-0.0433 z"
       id="path122" /><path
       style="fill:#000000;stroke:none;stroke-width:0.101638"
       d="m -181.17895,101.09603 c -8.5e-4,-1.222778 -0.01,-1.655138 -0.037,-1.809158 -0.10147,-0.56871 -0.47543,-1.07439 -0.9839,-1.33044 -0.10077,-0.0507 -0.3689,-0.14658 -0.59583,-0.21296 -1.6775,-0.49065 -3.10828,-1.37189 -4.25264,-2.6193 -0.98402,-1.07262 -1.65945,-2.27954 -2.07952,-3.71586 -0.0693,-0.23696 -0.16971,-0.50871 -0.23269,-0.62978 -0.18809,-0.36157 -0.55979,-0.69044 -0.96059,-0.84992 -0.30958,-0.12319 -0.45048,-0.13186 -2.15805,-0.13286 l -1.60678,-8.5e-4 v -0.88948 -0.88948 l 1.74124,0.0106 c 1.5227,0.009 1.76992,0.0165 1.96981,0.0574 0.81106,0.16634 1.42467,0.49339 1.97793,1.05423 0.43854,0.44454 0.73279,0.97384 0.94023,1.69129 0.17123,0.59223 0.27804,0.87194 0.524,1.37224 0.71741,1.45924 1.88873,2.63056 3.34798,3.34797 0.5003,0.24596 0.78,0.35277 1.37223,0.52401 0.71745,0.20743 1.24675,0.50168 1.6913,0.94022 0.56083,0.55326 0.88789,1.16688 1.05422,1.97794 0.041,0.19988 0.0482,0.4471 0.0574,1.969808 l 0.0106,1.74123 h -0.88948 -0.88948 z"
       id="path123" /></g></svg>
