<?xml version="1.0" encoding="UTF-8" standalone="no"?>
<!-- Created with Inkscape (http://www.inkscape.org/) -->

<svg
   width="75.000008mm"
   height="75.000008mm"
   viewBox="0 0 75.000008 75.000008"
   version="1.1"
   id="svg1"
   xml:space="preserve"
   xmlns="http://www.w3.org/2000/svg"
   xmlns:svg="http://www.w3.org/2000/svg"><defs
     id="defs1" /><g
     id="layer1"
     transform="translate(598.11305,-270.3763)"><path
       d="m -523.11304,270.37629 v 75.00001 h -75.00001 v -75.00001 z"
       style="fill:none;stroke:none;stroke-width:0.0132292;stroke-linejoin:round;stroke-dasharray:none"
       id="path108" /><path
       d="m -550.61304,307.87629 a 10.000006,10.000006 0 0 0 -20.00001,0 10.000006,10.000006 0 0 0 20.00001,0 z"
       style="fill:none;stroke:none;stroke-width:0.0132292;stroke-linejoin:round;stroke-dasharray:none"
       id="path109" /><path
       d="m -558.11305,345.3763 v -15 a 2.5,2.5 0 0 0 -4.99999,0 v 15"
       style="fill:none;stroke:none;stroke-width:0.0132292;stroke-linejoin:round;stroke-dasharray:none"
       id="path110" /><path
       style="fill:#000000;stroke:none;stroke-width:0.0178291;stroke-linejoin:round;stroke-dasharray:none"
       d="m -2125.2971,1200.6163 c -11.7963,-2.1398 -21.8693,-9.6913 -27.1712,-20.3696 -8.8517,-17.8279 -2.1974,-39.4426 15.1626,-49.2521 10.7775,-6.09 23.3948,-6.5293 34.5425,-1.2027 20.8631,9.9688 27.9149,36.122 14.8396,55.036 -5.7125,8.2636 -14.7579,14.0705 -24.6031,15.7947 -3.6051,0.6314 -9.2704,0.6286 -12.7704,-0.01 z"
       id="path415"
       transform="scale(0.26458333)" /><path
       style="fill:#000000;stroke:none;stroke-width:0.0178291;stroke-linejoin:round;stroke-dasharray:none"
       d="m -2128.1815,1275.939 0.101,-29.3288 0.8232,-1.6711 c 0.9479,-1.9245 3.1321,-4.0332 5.0106,-4.8375 1.6761,-0.7176 5.2103,-0.6948 6.9007,0.044 2.0077,0.8781 3.8664,2.6932 4.791,4.6787 l 0.8315,1.7855 v 29.3288 29.3289 h -9.283 -9.2829 z"
       id="path416"
       transform="scale(0.26458333)" /></g></svg>
