<?xml version="1.0" encoding="UTF-8" standalone="no"?>
<!-- Created with Inkscape (http://www.inkscape.org/) -->

<svg
   width="75.000008mm"
   height="74.999977mm"
   viewBox="0 0 75.000008 74.999977"
   version="1.1"
   id="svg1"
   xml:space="preserve"
   xmlns="http://www.w3.org/2000/svg"
   xmlns:svg="http://www.w3.org/2000/svg"><defs
     id="defs1" /><g
     id="layer1"
     transform="translate(598.11305,-105.37631)"><path
       d="m -540.61303,142.87628 a 20,20 0 0 0 -40,0 20,20 0 0 0 40,0 z"
       style="fill:none;stroke:none;stroke-width:0.0132292;stroke-dasharray:none"
       id="path31" /><path
       d="m -558.11305,180.37628 v -8.45261 a 5,5 0 0 1 3.75002,-4.84124 25,25 0 0 0 18.74998,-24.20615 25,25 0 0 0 -25,-24.99998 25,25 0 0 0 -25,24.99998 25,25 0 0 0 18.75001,24.20615 5,5 0 0 1 3.75,4.84124 v 8.45261"
       style="fill:none;stroke:none;stroke-width:0.0132292;stroke-dasharray:none"
       id="path32" /><path
       d="m -550.61304,142.87628 a 10.000006,10.000006 0 0 0 -20.00001,0 10.000006,10.000006 0 0 0 20.00001,0 z"
       style="fill:none;stroke:none;stroke-width:0.0132292;stroke-dasharray:none"
       id="path33" /><path
       d="m -545.61305,142.87628 a 15,15 0 0 0 -29.99999,0 15,15 0 0 0 29.99999,0 z"
       style="fill:none;stroke:none;stroke-width:0.0132292;stroke-dasharray:none"
       id="path34" /><path
       d="m -523.11304,180.37628 h -75.00001 V 105.3763 h 75.00001 z"
       style="fill:none;stroke:none;stroke-width:0.0132292;stroke-dasharray:none"
       id="path35" /><path
       style="fill:#000000;stroke:none;stroke-width:0.0178291;stroke-dasharray:none"
       d="m -2128.2588,664.20862 c 0,-18.94808 -0.065,-19.68544 -2.0621,-23.39381 -1.407,-2.61267 -5.062,-6.34126 -7.4691,-7.6194 -1.1317,-0.60097 -4.2913,-1.76564 -7.0213,-2.58817 -5.7317,-1.72694 -11.2291,-3.87591 -15.9622,-6.23977 -24.7738,-12.37281 -42.7746,-34.74655 -49.4824,-61.50302 -10.4193,-41.56155 8.3813,-84.56125 46.1289,-105.50308 30.1561,-16.73014 68.0377,-15.23588 96.9083,3.82262 30.2939,19.99807 46.4915,55.21652 41.8122,90.91221 -2.2542,17.19579 -9.631,34.39551 -20.2944,47.31789 -12.558,15.21834 -29.0855,26.01793 -48.0861,31.42101 -6.6198,1.88242 -10.9363,5.06361 -13.4922,9.94356 -2.2858,4.36411 -2.4373,5.88203 -2.4373,24.40975 v 16.4178 h -9.2712 -9.2711 z m 21.9298,-49.43028 c 7.9849,-1.47437 14.2307,-3.49938 21.0383,-6.82102 11.5736,-5.64707 22.2895,-15.0723 29.5784,-26.01574 10.436,-15.66855 14.6984,-35.55898 11.6149,-54.20044 -5.419,-32.76071 -30.9886,-57.83613 -64.0145,-62.77738 -5.2888,-0.7913 -16.1055,-0.79135 -21.3949,-1.1e-4 -21.6754,3.24239 -40.5026,15.09783 -52.3833,32.98561 -7.9794,12.01389 -12.0967,24.91329 -12.5822,39.41959 -0.3858,11.52618 1.5222,22.10007 5.8022,32.15494 10.6337,24.98158 33.2873,42.0799 60.5896,45.73142 3.9428,0.52732 17.9797,0.21959 21.7515,-0.47687 z"
       id="path411"
       transform="scale(0.26458333)" /><path
       style="fill:#000000;stroke:none;stroke-width:0.0178291;stroke-dasharray:none"
       d="m -2125.0495,596.15876 c -6.4203,-0.8026 -14.055,-3.1575 -19.5908,-6.04271 -15.4194,-8.03649 -25.9923,-22.07534 -29.6541,-39.37538 -1.0823,-5.11348 -1.1758,-15.21714 -0.1897,-20.50346 4.2766,-22.92636 21.28,-40.39045 44.3502,-45.552 2.9972,-0.67057 4.5675,-0.77892 11.3245,-0.78143 7.3591,-0.003 8.1098,0.0593 12.1238,1.00179 17.2074,4.04032 31.2555,15.19398 38.6816,30.71179 6.4298,13.43601 7.3441,28.08272 2.6376,42.25495 -4.6678,14.056 -15.1303,26.04538 -28.4752,32.63102 -8.0243,3.95995 -14.5177,5.51844 -23.7197,5.69304 -3.4321,0.0651 -6.8018,0.0482 -7.4882,-0.0376 z m 15.7343,-19.35714 c 17.755,-4.8165 29.5056,-21.05586 28.3384,-39.16351 -1.2075,-18.73326 -15.6398,-33.61139 -34.3212,-35.38146 -18.8181,-1.78304 -35.8306,10.33723 -40.5259,28.87202 -1.0958,4.3256 -1.0809,13.85865 0.028,17.89568 4.1751,15.20082 15.4953,25.69573 30.7177,28.47835 3.0157,0.55126 12.7411,0.11871 15.7631,-0.70108 z"
       id="path412"
       transform="scale(0.26458333)" /></g></svg>
