<?xml version="1.0" encoding="UTF-8" standalone="no"?>
<!-- Created with Inkscape (http://www.inkscape.org/) -->

<svg
   width="75.000008mm"
   height="75.000008mm"
   viewBox="0 0 75.000008 75.000008"
   version="1.1"
   id="svg1"
   xml:space="preserve"
   xmlns="http://www.w3.org/2000/svg"
   xmlns:svg="http://www.w3.org/2000/svg"><defs
     id="defs1" /><g
     id="layer1"
     transform="translate(348.11305,-22.876285)"><path
       d="m -313.11304,22.876284 a 39.999999,39.999999 0 0 0 40,39.999999"
       style="fill:none;stroke:none;stroke-width:0.0132292;stroke-dasharray:none"
       id="path28" /><path
       d="m -308.11305,22.876284 a 34.999998,34.999998 0 0 0 35.00001,35.000009"
       style="fill:none;stroke:none;stroke-width:0.0132292;stroke-dasharray:none"
       id="path29" /><path
       d="M -348.11305,97.876292 V 22.876284 h 75.00001 v 75.000008 z"
       style="fill:none;stroke:none;stroke-width:0.0132292;stroke-dasharray:none"
       id="path30" /><path
       style="fill:#000000;stroke:none;stroke-width:0.0356582;stroke-linejoin:round;stroke-dasharray:none"
       d="m -1045.1414,236.67515 c -0.9806,-0.14165 -4.6712,-0.61754 -8.2014,-1.05754 -48.5124,-6.04661 -93.6581,-39.35864 -115.1614,-84.975 -8.5486,-18.13456 -14.2778,-41.68145 -14.2778,-58.681018 V 86.64939 h 8.7618 8.7618 l 0.8835,10.154998 c 2.9465,33.868822 16.7013,62.666052 41.0093,85.857522 9.8473,9.39495 18.681,15.59968 31.1624,21.88815 11.4464,5.76698 22.1578,9.54011 33.5117,11.80462 6.6085,1.31806 20.2761,2.94089 24.7824,2.94256 1.5785,5.9e-4 1.6046,0.14605 1.6046,8.91515 v 8.91454 l -5.527,-0.0971 c -3.0398,-0.0534 -6.3293,-0.21301 -7.3099,-0.35466 z"
       id="path426"
       transform="scale(0.26458333)" /></g></svg>
