<?xml version="1.0" encoding="UTF-8" standalone="no"?>
<!-- Created with Inkscape (http://www.inkscape.org/) -->

<svg
   width="75.000008mm"
   height="75.000015mm"
   viewBox="0 0 75.000008 75.000015"
   version="1.1"
   id="svg1"
   xml:space="preserve"
   xmlns="http://www.w3.org/2000/svg"
   xmlns:svg="http://www.w3.org/2000/svg"><defs
     id="defs1" /><g
     id="layer1"
     transform="translate(348.11305,59.623709)"><path
       d="m -273.11304,-19.62371 h -27.5 a 12.5,12.5 0 0 1 -12.5,-12.500001 v -27.499998"
       style="fill:none;stroke:none;stroke-width:0.0132292;stroke-dasharray:none"
       id="path6" /><path
       d="m -273.11304,-24.6237 h -27.5 a 7.5,7.5 0 0 1 -7.50001,-7.500011 v -27.499998"
       style="fill:none;stroke:none;stroke-width:0.0132292;stroke-dasharray:none"
       id="path7" /><path
       d="m -348.11305,-59.623709 h 75.00001 v 75.000008 h -75.00001 z"
       style="fill:none;stroke:none;stroke-width:0.0132292;stroke-dasharray:none"
       id="path16" /><path
       style="fill:#000000;stroke:none;stroke-width:0.0356582;stroke-linejoin:round;stroke-dasharray:none"
       d="m -1145.437,-75.590482 c -14.3017,-3.110342 -26.1788,-12.254192 -32.3818,-24.929818 -5.1458,-10.51508 -4.9632,-7.96372 -4.9632,-69.3625 v -55.12035 h 8.8935 8.8935 l 0.1993,55.0919 0.1994,55.09189 1.6737,4.1485 c 3.7148,9.20737 13.2082,16.32485 23.555,17.659928 2.5983,0.335259 27.7504,0.620068 55.8936,0.632898 l 51.1695,0.02333 v 8.914547 8.914546 l -54.3787,-0.0567 c -42.4989,-0.04431 -55.3345,-0.264562 -58.7538,-1.008178 z"
       id="path425"
       transform="scale(0.26458333)" /></g></svg>
