<?xml version="1.0" encoding="UTF-8" standalone="no"?>
<!-- Created with Inkscape (http://www.inkscape.org/) -->

<svg
   width="75.000008mm"
   height="74.999977mm"
   viewBox="0 0 75.000008 74.999977"
   version="1.1"
   id="svg1"
   xml:space="preserve"
   xmlns="http://www.w3.org/2000/svg"
   xmlns:svg="http://www.w3.org/2000/svg"><defs
     id="defs1" /><g
     id="layer1"
     transform="translate(348.11305,-105.37631)"><path
       d="m -273.11304,145.3763 h -8.45262 a 10,10 0 0 1 -9.68248,-7.50001 20,20 0 0 0 -5.22277,-9.14212 20,20 0 0 0 -9.14215,-5.2228 10,10 0 0 1 -7.49998,-9.68245 v -8.45262"
       style="fill:none;stroke:none;stroke-width:0.0132292;stroke-dasharray:none"
       id="path23" /><path
       d="m -273.11304,140.37629 h -8.45262 a 5,5 0 0 1 -4.84124,-3.75 25,25 0 0 0 -6.52849,-11.42767 25,25 0 0 0 -11.42764,-6.52846 5,5 0 0 1 -3.75002,-4.84124 v -8.45262"
       style="fill:none;stroke:none;stroke-width:0.0132292;stroke-dasharray:none"
       id="path24" /><path
       d="m -273.11304,180.37628 h -75.00001 V 105.3763 h 75.00001 z"
       style="fill:none;stroke:none;stroke-width:0.0132292;stroke-dasharray:none"
       id="path25" /><path
       d="m -300.61304,142.87628 a 10.000006,10.000006 0 0 0 -20.00001,0 10.000006,10.000006 0 0 0 20.00001,0 z"
       style="fill:none;stroke:none;stroke-width:0.0132292;stroke-dasharray:none"
       id="path26" /><path
       d="m -295.61305,142.87628 a 15,15 0 0 0 -29.99999,0 15,15 0 0 0 29.99999,0 z"
       style="fill:none;stroke:none;stroke-width:0.0132292;stroke-dasharray:none"
       id="path27" /><path
       style="fill:#000000;stroke:none;stroke-width:0.0356582;stroke-linejoin:round;stroke-dasharray:none"
       d="m -1073.8906,547.70852 c -6.039,-1.66007 -11.4159,-4.84209 -16.2625,-9.62415 -5.3379,-5.26681 -8.0889,-10.16196 -10.8845,-19.36773 -7.58,-24.96099 -25.7952,-43.32765 -50.9407,-51.36451 -3.802,-1.21518 -8.8344,-3.17112 -11.1831,-4.34654 -5.389,-2.69693 -12.9143,-10.22991 -15.5731,-15.58909 -3.6719,-7.4011 -4.0299,-10.09498 -4.039,-30.39402 l -0.01,-18.72055 h 8.8714 8.8713 l 0.2215,18.72055 c 0.2107,17.80989 0.2987,18.85931 1.8099,21.5732 3.5164,6.31505 6.2334,8.21897 16.3593,11.46381 30.4633,9.76195 52.8214,32.11336 62.5777,62.55881 1.4343,4.47586 3.4075,9.22186 4.3849,10.54666 2.1646,2.93401 6.7387,6.0957 10.2162,7.06167 1.4173,0.39369 10.3593,0.71759 19.8711,0.71977 l 17.2942,0.004 v 8.91454 8.91455 l -19.0771,-0.0638 c -13.439,-0.0449 -20.0914,-0.34258 -22.509,-1.00718 z"
       id="path427"
       transform="scale(0.26458333)" /><path
       style="fill:#000000;stroke:none;stroke-width:0.0356582;stroke-linejoin:round;stroke-dasharray:none"
       d="m -1179.2162,596.10558 c -23.9899,-2.73989 -43.6613,-19.95748 -49.5894,-43.40371 -1.7831,-7.05223 -1.6412,-18.8934 0.3161,-26.38706 4.9185,-18.83002 18.3902,-33.22405 37.1495,-39.69295 6.4193,-2.21361 7.3181,-2.33754 17.116,-2.36 8.8967,-0.0204 11.0835,0.20951 15.6588,1.64626 18.9064,5.937 32.5875,19.5228 38.5357,38.2672 2.4292,7.65495 2.7696,20.15375 0.7769,28.52655 -5.7918,24.33541 -26.6241,41.77614 -51.7622,43.33499 -3.1379,0.19459 -6.8285,0.22551 -8.2014,0.0687 z m 14.5264,-19.16176 c 7.0295,-1.83097 11.8935,-4.63525 17.2808,-9.96313 10.1274,-10.01573 13.7438,-22.80225 10.2799,-36.34603 -6.459,-25.25457 -35.6972,-36.7302 -57.5559,-22.58997 -15.8136,10.2297 -21.6905,30.677 -13.8473,48.17836 3.1895,7.11715 11.2977,15.1579 18.6187,18.46387 7.3798,3.33258 17.5875,4.2459 25.2238,2.2569 z"
       id="path428"
       transform="scale(0.26458333)" /></g></svg>
