<?xml version="1.0" encoding="UTF-8" standalone="no"?>
<!-- Created with Inkscape (http://www.inkscape.org/) -->

<svg
   width="75.000008mm"
   height="74.999977mm"
   viewBox="0 0 75.000008 74.999977"
   version="1.1"
   id="svg1"
   xml:space="preserve"
   xmlns="http://www.w3.org/2000/svg"
   xmlns:svg="http://www.w3.org/2000/svg"><defs
     id="defs1" /><g
     id="layer1"
     transform="translate(348.11305,-435.3763)"><path
       d="m -313.11304,435.3763 a 39.999999,39.999999 0 0 0 40,40"
       style="fill:none;stroke:none;stroke-width:0.0132292;stroke-dasharray:none"
       id="path120" /><path
       d="m -308.11305,435.3763 a 34.999998,34.999998 0 0 0 35.00001,34.99998"
       style="fill:none;stroke:none;stroke-width:0.0132292;stroke-dasharray:none"
       id="path121" /><path
       d="M -348.11305,510.37628 V 435.3763 h 75.00001 v 74.99998 z"
       style="fill:none;stroke:none;stroke-width:0.0132292;stroke-dasharray:none"
       id="path122" /><path
       d="m -300.61304,472.87628 a 10.000006,10.000006 0 0 0 -20.00001,0 10.000006,10.000006 0 0 0 20.00001,0 z"
       style="fill:none;stroke:none;stroke-width:0.0132292;stroke-dasharray:none"
       id="path123" /><path
       style="fill:#000000;stroke:none;stroke-width:0.0356582;stroke-linejoin:round;stroke-dasharray:none"
       d="m -1049.777,1795.2954 c -51.2638,-6.4384 -95.224,-37.6963 -117.7169,-83.7025 -9.4034,-19.2336 -15.2881,-42.581 -15.2881,-60.6555 v -5.3122 h 8.8126 8.8126 l 0.4859,7.31 c 2.2884,34.4261 15.848,64.0251 40.1287,87.5963 7.9193,7.688 11.7048,10.7459 20.2082,16.3242 17.7982,11.6757 39.2135,18.8814 61.867,20.8167 l 10.1625,0.8681 v 8.7812 8.7811 l -6.2401,-0.09 c -3.4321,-0.05 -8.4867,-0.3724 -11.2324,-0.7172 z"
       id="path437"
       transform="scale(0.26458333)" /><path
       style="fill:#000000;stroke:none;stroke-width:0.0356582;stroke-linejoin:round;stroke-dasharray:none"
       d="m -1182.782,1823.5517 c -17.8936,-4.9294 -29.6907,-21.1968 -28.3384,-39.0767 1.3218,-17.478 14.413,-31.3773 32.1503,-34.1349 23.9158,-3.7181 45.9727,18.7686 41.8792,42.6951 -1.6564,9.6816 -8.0325,19.6467 -16.0948,25.154 -7.9911,5.4588 -20.8135,7.782 -29.5963,5.3625 z"
       id="path438"
       transform="scale(0.26458333)" /></g></svg>
