<?xml version="1.0" encoding="UTF-8" standalone="no"?>
<!-- Created with Inkscape (http://www.inkscape.org/) -->

<svg
   width="74.999977mm"
   height="75.000008mm"
   viewBox="0 0 74.999977 75.000008"
   version="1.1"
   id="svg1"
   xml:space="preserve"
   xmlns="http://www.w3.org/2000/svg"
   xmlns:svg="http://www.w3.org/2000/svg"><defs
     id="defs1" /><g
     id="layer1"
     transform="translate(473.11305,-22.876285)"><path
       d="m -398.11306,22.876284 v 75.000008 h -74.99998 V 22.876284 Z"
       style="fill:none;stroke:none;stroke-width:0.0132292;stroke-dasharray:none"
       id="path69" /><path
       d="m -425.61305,60.376288 a 10,10 0 0 0 -19.99999,0 10,10 0 0 0 19.99999,0 z"
       style="fill:none;stroke:none;stroke-width:0.0132292;stroke-dasharray:none"
       id="path70" /><path
       d="m -420.61304,60.376288 a 15,15 0 0 0 -29.99999,0 15,15 0 0 0 29.99999,0 z"
       style="fill:none;stroke:none;stroke-width:0.0132292;stroke-dasharray:none"
       id="path71" /><path
       d="M -433.11304,97.876292 V 82.876296 a 2.50001,2.50001 0 0 0 -5.00002,0 v 14.999996"
       style="fill:none;stroke:none;stroke-width:0.0132292;stroke-dasharray:none"
       id="path72" /><path
       d="m -433.11304,22.876284 v 15.000023 a 2.50001,2.50001 0 0 1 -5.00002,0 V 22.876284"
       style="fill:none;stroke:none;stroke-width:0.0132292;stroke-dasharray:none"
       id="path73" /><path
       style="fill:#000000;stroke:none;stroke-width:0.0356582;stroke-linejoin:round;stroke-dasharray:none"
       d="m -1650.5734,150.95731 c -5.0316,-2.69845 -5.0361,-2.73041 -5.0361,-35.23537 V 86.64939 h 9.3008 9.3009 l -0.208,29.45057 c -0.2308,32.66628 -0.096,31.7382 -5.0607,34.76554 -2.8486,1.7369 -5.1813,1.76271 -8.2969,0.0918 z"
       id="path419"
       transform="scale(0.26458333)" /><path
       style="fill:#000000;stroke:none;stroke-width:0.0356582;stroke-linejoin:round;stroke-dasharray:none"
       d="m -1659.8885,282.739 c -15.8091,-4.07352 -29.6379,-15.2129 -36.704,-29.56589 -4.6459,-9.43693 -5.6817,-13.9875 -5.6817,-24.96072 0,-10.72488 1.0177,-15.36771 5.3419,-24.37084 5.528,-11.50962 14.2812,-20.23449 25.9897,-25.90563 8.7507,-4.23849 15.1342,-5.70689 24.8092,-5.70689 9.4229,0 16.4721,1.71774 25.4689,6.20617 5.6047,2.79615 7.8962,4.49235 13.2657,9.81926 9.7152,9.63829 14.6829,19.28312 16.7471,32.51447 2.0518,13.15254 -2.1167,29.32041 -10.5064,40.74946 -5.6003,7.62905 -15.452,15.21214 -24.5237,18.87636 -9.9243,4.0086 -24.003,4.97343 -34.2067,2.34425 z m 25.6739,-18.47309 c 8.8159,-2.96028 17.0591,-9.84111 21.2825,-17.76496 7.8442,-14.71729 5.2247,-33.35264 -6.3168,-44.93827 -5.3286,-5.34892 -10.5504,-8.32541 -17.8397,-10.16871 -17.3702,-4.39255 -35.6673,3.89317 -43.3379,19.6253 -3.1083,6.37482 -3.8938,9.93879 -3.8682,17.5497 0.026,7.64151 1.6689,13.27298 5.9515,20.39744 8.4697,14.09011 27.7861,20.78715 44.1286,15.2995 z"
       id="path420"
       transform="scale(0.26458333)" /><path
       style="fill:#000000;stroke:none;stroke-width:0.0356582;stroke-linejoin:round;stroke-dasharray:none"
       d="m -1655.6095,340.70283 c 0,-26.79449 0.1021,-29.26294 1.3031,-31.50239 3.887,-7.2478 14.3019,-5.95277 16.5265,2.05498 0.4087,1.4713 0.7063,14.29238 0.7086,30.52829 v 27.99167 h -9.2711 -9.2711 z"
       id="path421"
       transform="scale(0.26458333)" /></g></svg>
