<?xml version="1.0" encoding="UTF-8" standalone="no"?>
<!-- Created with Inkscape (http://www.inkscape.org/) -->

<svg
   width="74.999977mm"
   height="75.000015mm"
   viewBox="0 0 74.999977 75.000015"
   version="1.1"
   id="svg1"
   xml:space="preserve"
   xmlns="http://www.w3.org/2000/svg"
   xmlns:svg="http://www.w3.org/2000/svg"><defs
     id="defs1" /><g
     id="layer1"
     transform="translate(473.11305,59.623709)"><path
       d="m -425.61305,-22.123705 a 10,10 0 0 0 -19.99999,0 10,10 0 0 0 19.99999,0 z"
       style="fill:none;stroke:none;stroke-width:0.0132292;stroke-dasharray:none"
       id="path5" /><path
       d="m -473.11304,-59.623709 h 74.99998 v 75.000008 h -74.99998 z"
       style="fill:none;stroke:none;stroke-width:0.0132292;stroke-dasharray:none"
       id="path13" /><path
       d="m -438.11306,-59.623709 v 16.731959 a 8.5024737,8.5024737 0 0 1 -4.5221,7.513241 15,15 0 0 0 0,26.5096088 8.5024737,8.5024737 0 0 1 4.5221,7.5132406 V 15.376299"
       style="fill:none;stroke:none;stroke-width:0.0132292;stroke-dasharray:none"
       id="path66" /><path
       d="m -433.11304,-59.623709 v 16.731959 a 8.5024737,8.5024737 0 0 0 4.5221,7.513241 15,15 0 0 1 0,26.5096088 8.5024737,8.5024737 0 0 0 -4.5221,7.5132406 V 15.376299"
       style="fill:none;stroke:none;stroke-width:0.0132292;stroke-dasharray:none"
       id="path67" /><path
       style="fill:#000000;stroke:none;stroke-width:0.0356582;stroke-linejoin:round;stroke-dasharray:none"
       d="m -1655.6095,24.04082 c 0,-35.577869 -0.1753,-37.719849 -3.6412,-44.513703 -2.3779,-4.661017 -8.2416,-10.314344 -14.4868,-13.967026 -7.4026,-4.329653 -16.9926,-13.721862 -21.0453,-20.611159 -12.0121,-20.420144 -9.9385,-46.158112 5.1938,-64.467282 4.6267,-5.59793 8.1489,-8.50837 16.6457,-13.75454 7.7184,-4.7655 10.8719,-8.14495 14.3907,-15.42174 l 2.5865,-5.34873 0.2094,-35.47989 0.2095,-35.4799 h 9.2399 9.24 v 34.15674 c 0,32.01223 0.089,34.4434 1.4103,38.72261 2.5923,8.39304 7.9629,14.33265 18.8992,20.90168 12.2218,7.34114 20.9974,19.51736 25.1855,34.94502 1.7061,6.284826 1.495,19.763542 -0.4205,26.845999 -3.9371,14.556955 -13.2709,26.617031 -27.0341,34.930416 -7.9196,4.783674 -11.605,8.577434 -14.996,15.436785 l -2.6878,5.43701 -0.2036,35.518284 -0.2036,35.518284 h -9.2458 -9.2458 z m 21.0064,-71.508226 c 11.7706,-3.635552 21.7682,-14.197328 25.0263,-26.438433 1.4948,-5.616036 1.3256,-15.222023 -0.3644,-20.691518 -3.9762,-12.869003 -14.5209,-22.912043 -27.1925,-25.898943 -16.2033,-3.81939 -32.2679,2.49804 -41.283,16.2346 -4.0368,6.15097 -5.8101,12.210287 -5.8848,20.108383 -0.1012,10.686551 3.424,19.689366 10.5792,27.017972 10.2184,10.466048 24.8377,14.079063 39.1192,9.667939 z"
       id="path418"
       transform="scale(0.26458333)" /></g></svg>
