<?xml version="1.0" encoding="UTF-8" standalone="no"?>
<!-- Created with Inkscape (http://www.inkscape.org/) -->

<svg
   width="74.999992mm"
   height="75.000015mm"
   viewBox="0 0 74.999992 75.000015"
   version="1.1"
   id="svg1"
   xml:space="preserve"
   xmlns="http://www.w3.org/2000/svg"
   xmlns:svg="http://www.w3.org/2000/svg"><defs
     id="defs1" /><g
     id="layer1"
     transform="translate(223.11304,59.623709)"><path
       d="M -188.07382,15.336929 V -1.3950296 a 8.5024737,8.5024737 0 0 0 -3.87239,-7.1312087 15,15 0 0 1 -0.68895,-26.8522707 8.5024737,8.5024737 0 0 0 4.5221,-7.513241 v -16.731959"
       style="fill:none;stroke:none;stroke-width:0.0132292;stroke-dasharray:none"
       id="path38" /><path
       d="m -183.11304,-59.623709 v 16.731959 a 8.5024737,8.5024737 0 0 0 4.5221,7.513241 15,15 0 0 1 6.23271,6.232683 8.5024737,8.5024737 0 0 0 7.51324,4.522126 h 16.73193"
       style="fill:none;stroke:none;stroke-width:0.0132292;stroke-dasharray:none"
       id="path39" /><path
       d="M -183.07383,15.336929 V -1.3950296 a 8.5024737,8.5024737 0 0 1 4.52213,-7.5132406 15.009637,15.009637 0 0 0 3.54526,-2.6088448 15,15 0 0 0 2.64821,-3.584469 8.5024737,8.5024737 0 0 1 7.51324,-4.522126 h 16.73193"
       style="fill:none;stroke:none;stroke-width:0.0132292;stroke-dasharray:none"
       id="path40" /><path
       d="m -175.61306,-22.123705 a 10,10 0 0 0 -19.99998,0 10,10 0 0 0 19.99998,0 z"
       style="fill:none;stroke:none;stroke-width:0.0132292;stroke-dasharray:none"
       id="path41" /><path
       d="m -223.11304,-59.623709 h 74.99998 v 75.000008 h -74.99998 z"
       style="fill:none;stroke:none;stroke-width:0.0132292;stroke-dasharray:none"
       id="path46" /><path
       style="fill:#000000;stroke:none;stroke-width:0.0356582;stroke-linejoin:round;stroke-dasharray:none"
       d="m -710.82063,21.929784 -0.20358,-35.479894 -2.63814,-5.524751 c -2.96597,-6.211307 -7.86273,-11.624961 -12.77425,-14.122674 -8.58969,-4.368213 -17.43394,-12.373718 -22.59287,-20.450247 -10.52121,-16.471443 -11.52775,-37.456257 -2.64335,-55.110028 5.07893,-10.09211 11.93969,-17.33787 22.46293,-23.72347 7.3174,-4.44027 12.05277,-9.01131 14.66796,-14.15895 3.77731,-7.43512 3.85671,-8.35252 3.86583,-44.66593 l 0.008,-33.69699 h 9.24606 9.24605 l 0.20337,35.83648 0.20336,35.83647 2.20606,4.63557 c 3.11617,6.54796 7.72745,11.29488 15.80991,16.27494 8.90576,5.48733 15.54508,12.12354 20.98908,20.97927 7.03357,11.441461 14.69733,16.940895 25.57534,18.352609 2.92031,0.37899 19.1896,0.698979 36.15398,0.711089 l 30.84433,0.02202 v 8.914547 8.914546 h -33.36886 c -27.67881,0 -34.08455,0.186414 -37.566,1.093216 -9.25557,2.410771 -15.7492,7.710733 -21.52824,17.570899 -4.62326,7.888175 -12.41821,15.720759 -20.52775,20.626848 -8.30301,5.023132 -12.49052,9.273816 -15.86965,16.109084 l -2.7182,5.498349 -0.20945,35.518448 -0.20945,35.518441 h -9.21468 -9.21468 z m 21.15947,-69.39719 c 26.62238,-8.222813 34.93287,-43.14818 15.00819,-63.072864 -4.96633,-4.96632 -11.07032,-8.4313 -17.53878,-9.95603 -31.8002,-7.49584 -57.60425,24.272716 -43.45669,53.501538 8.30726,17.162769 27.39776,25.269073 45.98728,19.527356 z"
       id="path440"
       transform="scale(0.26458333)" /></g></svg>
