<?xml version="1.0" encoding="UTF-8" standalone="no"?>
<!-- Created with Inkscape (http://www.inkscape.org/) -->

<svg
   width="74.999992mm"
   height="74.999977mm"
   viewBox="0 0 74.999992 74.999977"
   version="1.1"
   id="svg1"
   xml:space="preserve"
   xmlns="http://www.w3.org/2000/svg"
   xmlns:svg="http://www.w3.org/2000/svg"><defs
     id="defs1" /><g
     id="layer1"
     transform="translate(223.11304,-105.37631)"><path
       d="m -183.11304,180.37628 v -8.45261 a 5,5 0 0 1 3.74999,-4.84124 25,25 0 0 0 11.42767,-6.52846 25,25 0 0 0 6.52847,-11.42768 5,5 0 0 1 4.84124,-3.74999 h 8.45261"
       style="fill:none;stroke:none;stroke-width:0.0132292;stroke-dasharray:none"
       id="path135" /><path
       d="m -188.11306,105.3763 v 8.45262 a 10,10 0 0 0 7.50001,9.68245 20,20 0 0 1 15,19.36491 20,20 0 0 1 -15,19.36493 10,10 0 0 0 -7.50001,9.68246 v 8.45261"
       style="fill:none;stroke:none;stroke-width:0.0132292;stroke-dasharray:none"
       id="path136" /><path
       d="m -183.11304,105.3763 v 8.45262 a 5,5 0 0 0 3.74999,4.84124 25,25 0 0 1 11.42767,6.52846 25,25 0 0 1 6.52847,11.42767 5,5 0 0 0 4.84124,3.75 h 8.45261"
       style="fill:none;stroke:none;stroke-width:0.0132292;stroke-dasharray:none"
       id="path137" /><path
       d="m -170.61304,142.87628 a 15.00001,15.00001 0 0 0 -30.00002,0 15.00001,15.00001 0 0 0 30.00002,0 z"
       style="fill:none;stroke:none;stroke-width:0.0132292;stroke-dasharray:none"
       id="path138" /><path
       d="m -175.61306,142.87628 a 10,10 0 0 0 -19.99998,0 10,10 0 0 0 19.99998,0 z"
       style="fill:none;stroke:none;stroke-width:0.0132292;stroke-dasharray:none"
       id="path139" /><path
       d="M -223.11304,180.37628 V 105.3763 h 74.99998 v 74.99998 z"
       style="fill:none;stroke:none;stroke-width:0.0132292;stroke-dasharray:none"
       id="path140" /><path
       style="fill:#000000;stroke:none;stroke-width:0.0356582;stroke-linejoin:round;stroke-dasharray:none"
       d="m -710.65525,664.1337 c 0.0139,-19.44331 0.64485,-24.02627 4.30619,-31.27934 2.84956,-5.64494 10.32144,-13.26752 15.65438,-15.9701 2.15492,-1.09205 6.96681,-2.93103 10.69309,-4.08663 32.88217,-10.19745 54.20044,-38.8265 54.20044,-72.78766 0,-20.74297 -7.06551,-38.05604 -21.69574,-53.16242 -9.26326,-9.56474 -19.40819,-15.65809 -32.86128,-19.73746 -3.53016,-1.07045 -7.70217,-2.58524 -9.27113,-3.36619 -8.15378,-4.05857 -15.38121,-12.17685 -18.80369,-21.12145 -1.75527,-4.58737 -1.82231,-5.37694 -2.08291,-24.53023 l -0.26927,-19.79029 h 9.3299 9.3299 l 0.007,18.36396 c 0.007,17.78097 0.0603,18.47843 1.68587,21.96945 2.63238,5.65308 6.22048,8.20498 15.94645,11.34134 30.88213,9.95862 53.51941,32.59469 62.91617,62.91282 2.36971,7.64571 4.84752,11.83017 8.57824,14.48668 4.37662,3.11643 7.68085,3.5742 25.799,3.5742 h 17.00259 v 8.85159 8.85159 l -18.00738,0.27983 c -18.90234,0.29374 -19.94688,0.45589 -24.90424,3.86618 -3.71306,2.5543 -5.74179,5.99576 -8.35054,14.16557 -5.08784,15.93351 -13.37191,29.3401 -25.06391,40.56236 -11.26487,10.81229 -21.5087,16.95493 -36.61561,21.95628 -9.59508,3.17658 -13.01167,5.14398 -15.68722,9.03331 -3.13634,4.55915 -3.30638,5.83317 -3.30638,24.77158 v 18.13925 h -9.27113 -9.27113 z"
       id="path445"
       transform="scale(0.26458333)" /><path
       style="fill:#000000;stroke:none;stroke-width:0.0356582;stroke-linejoin:round;stroke-dasharray:none"
       d="m -708.88472,595.81845 c -22.55766,-3.43963 -39.91196,-18.49469 -46.82417,-40.62051 -2.17329,-6.95666 -2.35976,-21.91588 -0.36447,-29.23971 3.96889,-14.56807 14.26563,-27.75511 27.4289,-35.1282 14.76101,-8.26802 34.16225,-9.22025 49.5156,-2.43027 22.66008,10.02136 36.77763,34.71301 33.43143,58.47173 -3.85945,27.40305 -25.60966,47.62128 -52.97874,49.24717 -3.26126,0.19374 -7.85511,0.0587 -10.20855,-0.30021 z m 15.47621,-18.57732 c 6.27112,-1.29106 13.79752,-5.41478 18.65448,-10.22078 7.43056,-7.3526 11.16303,-16.48 11.14674,-27.25837 -0.0162,-10.69524 -3.35694,-18.70247 -10.99093,-26.34323 -12.04379,-12.05448 -28.66386,-14.85194 -43.81142,-7.37427 -20.41593,10.07842 -27.5413,36.02705 -15.03539,54.75479 8.78083,13.1494 24.55779,19.62855 40.03652,16.44186 z"
       id="path446"
       transform="scale(0.26458333)" /></g></svg>
