<?xml version="1.0" encoding="UTF-8" standalone="no"?>
<!-- Created with Inkscape (http://www.inkscape.org/) -->

<svg
   width="75.000008mm"
   height="75.000008mm"
   viewBox="0 0 75.000008 75.000008"
   version="1.1"
   id="svg1"
   xml:space="preserve"
   xmlns="http://www.w3.org/2000/svg"
   xmlns:svg="http://www.w3.org/2000/svg"><defs
     id="defs1" /><g
     id="layer1"
     transform="translate(98.113055,-270.3763)"><path
       d="m -23.113045,305.3763 a 39.999999,39.999999 0 0 0 -39.999998,40"
       style="fill:none;stroke:none;stroke-width:0.0132292;stroke-dasharray:none"
       id="path124" /><path
       d="M -23.113045,310.37629 A 34.999998,34.999998 0 0 0 -58.113054,345.3763"
       style="fill:none;stroke:none;stroke-width:0.0132292;stroke-dasharray:none"
       id="path125" /><path
       d="m -98.113052,270.37629 h 75.000007 v 75.00001 h -75.000007 z"
       style="fill:none;stroke:none;stroke-width:0.0132292;stroke-dasharray:none"
       id="path126" /><path
       d="m -98.113052,310.37629 a 39.999999,39.999999 0 0 0 39.999998,-40"
       style="fill:none;stroke:none;stroke-width:0.0132292;stroke-dasharray:none"
       id="path131" /><path
       d="m -98.113052,305.3763 a 34.999998,34.999998 0 0 0 35.000009,-35.00001"
       style="fill:none;stroke:none;stroke-width:0.0132292;stroke-dasharray:none"
       id="path132" /><path
       style="fill:#000000;stroke:none;stroke-width:0.0356582;stroke-linejoin:round;stroke-dasharray:none"
       d="m -370.48854,1163.6185 v -9.363 h 5.43549 c 24.59816,0 55.62836,-11.5838 77.21166,-28.8236 28.7236,-22.9431 47.16019,-58.3855 49.18547,-94.5538 l 0.45924,-8.2013 9.09284,-0.1996 9.09284,-0.1996 v 3.1549 c 0,5.7742 -1.46839,17.8204 -3.25761,26.7245 -8.06662,40.1437 -33.28289,76.185 -68.57798,98.0176 -21.28015,13.1634 -44.88073,20.5473 -71.33203,22.3176 l -7.30992,0.4893 z"
       id="path459"
       transform="scale(0.26458333)" /><path
       style="fill:#000000;stroke:none;stroke-width:0.0356582;stroke-linejoin:round;stroke-dasharray:none"
       d="m -237.8401,1299.0522 c 0,-3.1244 0.49874,-9.3022 1.1083,-13.7284 3.57444,-25.955 13.61849,-50.2471 29.42361,-71.1626 5.21187,-6.8971 18.24996,-20.338 25.09486,-25.8702 25.21153,-20.3765 55.26909,-31.7154 88.967176,-33.5618 l 5.170437,-0.2833 v 9.1759 9.1759 h -3.885873 c -2.13723,0 -7.673163,0.4931 -12.30207,1.0957 -44.66974,5.8152 -83.18611,33.5472 -102.48065,73.7865 -7.32382,15.274 -11.11953,29.392 -12.70271,47.2471 l -0.86948,9.806 h -8.7618 -8.7618 z"
       id="path460"
       transform="scale(0.26458333)" /></g></svg>
