<?xml version="1.0" encoding="UTF-8" standalone="no"?>
<!-- Created with Inkscape (http://www.inkscape.org/) -->

<svg
   width="75.000008mm"
   height="75.000015mm"
   viewBox="0 0 75.000008 75.000015"
   version="1.1"
   id="svg1"
   xml:space="preserve"
   xmlns="http://www.w3.org/2000/svg"
   xmlns:svg="http://www.w3.org/2000/svg"><defs
     id="defs1" /><g
     id="layer1"
     transform="translate(98.113055,142.1237)"><path
       d="M -23.113045,-67.123694 H -98.113052 V -142.1237 h 75.000007 z"
       style="fill:none;stroke:none;stroke-width:0.0132292;stroke-dasharray:none"
       id="path60" /><path
       d="m -98.113052,-107.12369 h 26.497517 a 8.5024737,8.5024737 0 0 0 8.502492,-8.50249 v -26.49752"
       style="fill:none;stroke:none;stroke-width:0.0132292;stroke-dasharray:none"
       id="path61" /><path
       d="m -63.113043,-67.123694 v -26.497544 a 8.5024737,8.5024737 0 0 0 -8.502492,-8.502462 h -26.497517"
       style="fill:none;stroke:none;stroke-width:0.0132292;stroke-dasharray:none"
       id="path62" /><path
       d="m -23.113045,-107.12369 h -26.497517 a 8.5024737,8.5024737 0 0 1 -8.502492,-8.50249 v -26.49752"
       style="fill:none;stroke:none;stroke-width:0.0132292;stroke-dasharray:none"
       id="path63" /><path
       d="m -58.113054,-67.123694 v -26.497544 a 8.5024737,8.5024737 0 0 1 8.502492,-8.502462 h 26.497517"
       style="fill:none;stroke:none;stroke-width:0.0132292;stroke-dasharray:none"
       id="path64" /><path
       style="fill:#000000;stroke:none;stroke-width:0.0356582;stroke-linejoin:round;stroke-dasharray:none"
       d="m -237.99624,-306.83868 c -0.21802,-51.11634 -0.26611,-52.71828 -1.70985,-56.94911 -3.10144,-9.08867 -8.89075,-15.47477 -17.89506,-19.73978 l -4.84309,-2.29399 -54.02215,-0.19974 -54.02215,-0.19974 v -9.23236 -9.23236 l 54.02215,-0.19561 54.02215,-0.19561 4.95167,-2.34481 c 8.8197,-4.17646 14.26469,-10.0889 17.709,-19.2293 1.52525,-4.04767 1.5479,-4.77296 1.78191,-57.05219 l 0.23704,-52.95241 h 8.87681 8.87681 v 51.31269 c 0,34.98942 0.25286,52.5149 0.79488,55.09189 2.39174,11.37134 10.91604,20.70147 22.09123,24.17958 4.09456,1.27437 7.31546,1.35113 56.69518,1.35113 h 52.353993 v 9.27113 9.27112 h -52.353993 c -49.37972,0 -52.60062,0.0768 -56.69518,1.35114 -11.17519,3.4781 -19.69949,12.80823 -22.09123,24.17957 -0.54202,2.57699 -0.79488,20.10247 -0.79488,55.09189 v 51.31269 h -8.88045 -8.88045 z"
       id="path447"
       transform="scale(0.26458333)" /></g></svg>
