<?xml version="1.0" encoding="UTF-8" standalone="no"?>
<!-- Created with Inkscape (http://www.inkscape.org/) -->

<svg
   width="75.000008mm"
   height="75.000015mm"
   viewBox="0 0 75.000008 75.000015"
   version="1.1"
   id="svg1"
   xml:space="preserve"
   xmlns="http://www.w3.org/2000/svg"
   xmlns:svg="http://www.w3.org/2000/svg"><defs
     id="defs1" /><g
     id="layer1"
     transform="translate(98.113055,59.623709)"><path
       d="M -63.073832,15.336929 V -1.3950296 a 8.5024737,8.5024737 0 0 0 -3.872362,-7.1312087 15,15 0 0 1 -6.921659,-6.5753457 8.5024737,8.5024737 0 0 0 -7.513241,-4.522126 h -16.731958"
       style="fill:none;stroke:none;stroke-width:0.0132292;stroke-dasharray:none"
       id="path54" /><path
       d="m -98.113052,-24.6237 h 16.731958 a 8.5024737,8.5024737 0 0 0 7.513241,-4.522126 15,15 0 0 1 6.232684,-6.232683 8.5024737,8.5024737 0 0 0 4.522126,-7.513241 v -16.731959"
       style="fill:none;stroke:none;stroke-width:0.0132292;stroke-dasharray:none"
       id="path55" /><path
       d="m -58.113054,-59.623709 v 16.731959 a 8.5024737,8.5024737 0 0 0 4.522126,7.513241 15,15 0 0 1 6.232684,6.232683 8.5024737,8.5024737 0 0 0 7.513241,4.522126 h 16.731958"
       style="fill:none;stroke:none;stroke-width:0.0132292;stroke-dasharray:none"
       id="path56" /><path
       d="M -58.073842,15.336929 V -1.3950296 a 8.5024737,8.5024737 0 0 1 4.522126,-7.5132406 15.009637,15.009637 0 0 0 3.545258,-2.6088448 15,15 0 0 0 2.648214,-3.584469 8.5024737,8.5024737 0 0 1 7.513241,-4.522126 h 16.731958"
       style="fill:none;stroke:none;stroke-width:0.0132292;stroke-dasharray:none"
       id="path57" /><path
       d="m -50.613042,-22.123705 a 10.000007,10.000007 0 0 0 -20.000013,0 10.000007,10.000007 0 0 0 20.000013,0 z"
       style="fill:none;stroke:none;stroke-width:0.0132292;stroke-dasharray:none"
       id="path58" /><path
       d="m -98.113052,-59.623709 h 75.000007 v 75.000008 h -75.000007 z"
       style="fill:none;stroke:none;stroke-width:0.0132292;stroke-dasharray:none"
       id="path59" /><path
       style="fill:#000000;stroke:none;stroke-width:0.0356582;stroke-linejoin:round;stroke-dasharray:none"
       d="m -237.8401,25.058069 c 0,-19.0227999 -0.2999,-33.9330062 -0.72793,-36.18997 -1.71673,-9.052286 -8.29031,-18.334832 -15.8454,-22.375254 -10.41112,-5.567819 -17.32134,-12.160375 -23.5592,-22.476196 -4.20677,-6.956912 -8.69387,-11.640686 -13.81267,-14.418095 -7.32101,-3.972314 -8.99015,-4.124161 -45.33439,-4.124161 h -33.36885 v -8.914546 -8.914547 l 30.84433,-0.02202 c 16.96438,-0.01211 33.23367,-0.332099 36.15398,-0.711089 10.63952,-1.380763 18.65206,-6.960931 24.97839,-17.395691 6.22295,-10.26422 12.27872,-16.31999 22.54295,-22.54294 10.25272,-6.21597 15.8847,-14.1811 17.38195,-24.58274 0.39523,-2.74568 0.72495,-19.03255 0.73272,-36.19306 l 0.0141,-31.20091 h 8.91455 8.91455 v 33.36886 c 0,36.34423 0.15184,38.01337 4.12416,45.33439 2.808,5.17518 7.51688,9.65574 14.38,13.68274 6.66821,3.91265 16.36602,12.97724 19.29351,18.03376 6.80068,11.74648 12.6285,17.255741 21.39491,20.225454 4.47016,1.51431 5.85065,1.580007 38.68914,1.841289 l 34.053563,0.270945 v 8.860053 8.860054 l -33.340403,0.01744 c -19.87786,0.01039 -34.60407,0.308757 -36.46992,0.738902 -8.79219,2.026925 -17.15338,8.705881 -22.51267,17.983207 -5.21938,9.035142 -11.768,15.511382 -21.59311,21.354418 -9.54639,5.677289 -15.46057,13.646565 -17.29125,23.299742 -0.42803,2.2569638 -0.72793,17.1671701 -0.72793,36.18997 v 32.351609 h -8.91455 -8.91455 z m 21.44577,-72.761603 c 27.23533,-9.471513 34.18639,-44.673659 12.68948,-64.263166 -14.7066,-13.4017 -38.3147,-12.76167 -52.28601,1.4175 -15.00613,15.229408 -14.90142,38.815229 0.23932,53.900646 10.40386,10.365841 25.443,13.783907 39.35721,8.94502 z"
       id="path448"
       transform="scale(0.26458333)" /></g></svg>
