<?xml version="1.0" encoding="UTF-8" standalone="no"?>
<!-- Created with Inkscape (http://www.inkscape.org/) -->

<svg
   width="75.000008mm"
   height="75.000015mm"
   viewBox="0 0 75.000008 75.000015"
   version="1.1"
   id="svg1"
   xml:space="preserve"
   xmlns="http://www.w3.org/2000/svg"
   xmlns:svg="http://www.w3.org/2000/svg"><defs
     id="defs1" /><g
     id="layer1"
     transform="translate(598.11305,142.1237)"><path
       d="m -550.61304,-104.6237 a 10.000006,10.000006 0 0 0 -20.00001,0 10.000006,10.000006 0 0 0 20.00001,0 z"
       style="fill:none;stroke:none;stroke-width:0.0132292;stroke-dasharray:none"
       id="path36" /><path
       d="m -598.11305,-142.1237 h 75.00001 v 75.000006 h -75.00001 z"
       style="fill:none;stroke:none;stroke-width:0.0132292;stroke-dasharray:none"
       id="path37" /><path
       d="m -563.11304,-67.123694 v -16.731958 a 8.5024737,8.5024737 0 0 0 -4.52213,-7.513241 15,15 0 1 1 14.04424,0 8.5024737,8.5024737 0 0 0 -4.52212,7.513241 v 16.731958"
       style="fill:none;stroke:none;stroke-width:0.0132292;stroke-dasharray:none"
       id="path65" /><path
       style="fill:#000000;stroke:none;stroke-width:0.0178291;stroke-dasharray:none"
       d="m -2128.2588,-287.42001 c 0,-29.08142 -0.073,-33.70761 -0.5663,-36.10391 -1.52,-7.37677 -5.8304,-14.38775 -11.5526,-18.79092 -1.123,-0.86412 -3.812,-2.59998 -5.9756,-3.85747 -5.2274,-3.03826 -8.5547,-5.58835 -12.5141,-9.59106 -7.3145,-7.39457 -12.0947,-15.79252 -14.674,-25.77921 -3.6178,-14.00741 -1.4995,-29.48915 5.7457,-41.99354 3.8657,-6.67173 10.7072,-14.08547 16.9052,-18.31918 25.3732,-17.33179 59.0108,-11.66318 77.5315,13.06562 2.7919,3.72765 6.5914,11.0287 8.0569,15.48171 4.7543,14.44625 3.6154,29.68521 -3.2414,43.37113 -2.6909,5.37102 -5.7164,9.48559 -10.4919,14.26877 -4.4986,4.50592 -7.5418,6.77696 -14.5945,10.89163 -3.5173,2.05205 -7.6424,5.76897 -9.8753,8.89814 -2.0934,2.9337 -4.2242,7.53609 -5.2076,11.2485 -0.7884,2.97584 -0.7936,3.18636 -0.9135,36.7791 l -0.1207,33.78613 h -9.2559 -9.2559 z m 18.5423,-71.1442 c 21.1392,-5.44858 33.3156,-26.71518 27.2602,-47.61111 -1.8508,-6.38682 -4.8,-11.26513 -9.7913,-16.19588 -5.324,-5.25956 -11.3416,-8.56494 -18.6151,-10.22517 -3.5054,-0.80011 -12.3251,-0.82063 -15.8077,-0.0368 -6.9315,1.56012 -13.0584,4.80552 -18.1557,9.61692 -5.3893,5.08711 -8.8917,10.9404 -10.7971,18.04415 -0.8253,3.07682 -0.9293,4.13368 -0.9372,9.52281 -0.01,5.44577 0.086,6.41364 0.9283,9.5228 1.87,6.90588 5.2782,12.71309 10.349,17.63362 5.7402,5.57006 11.9369,8.79326 19.754,10.27497 4.002,0.75856 11.7945,0.48932 15.8126,-0.54633 z"
       id="path407"
       transform="scale(0.26458333)" /></g></svg>
