<?xml version="1.0" encoding="UTF-8" standalone="no"?>
<!-- Created with Inkscape (http://www.inkscape.org/) -->

<svg
   width="75.000008mm"
   height="74.999992mm"
   viewBox="0 0 75.000008 74.999992"
   version="1.1"
   id="svg1"
   xml:space="preserve"
   xmlns="http://www.w3.org/2000/svg"
   xmlns:svg="http://www.w3.org/2000/svg"><defs
     id="defs1" /><g
     id="layer1"
     transform="translate(598.11305,-187.87631)"><path
       d="m -563.11304,262.8763 v -8.45264 a 5,5 0 0 0 -3.75,-4.84121 25,25 0 0 1 -18.75001,-24.20615 25,25 0 0 1 25,-25"
       style="fill:none;stroke:none;stroke-width:0.0132292;stroke-dasharray:none"
       id="path103" /><path
       d="m -540.61303,225.3763 a 20,20 0 0 0 -40,0 20,20 0 0 0 40,0 z"
       style="fill:none;stroke:none;stroke-width:0.0132292;stroke-dasharray:none"
       id="path104" /><path
       d="m -558.11305,262.8763 v -8.45264 a 5,5 0 0 1 3.75002,-4.84121 25,25 0 0 0 18.74998,-24.20615 25,25 0 0 0 -25,-25"
       style="fill:none;stroke:none;stroke-width:0.0132292;stroke-dasharray:none"
       id="path105" /><path
       d="m -550.61304,225.3763 a 10.000006,10.000006 0 0 0 -20.00001,0 10.000006,10.000006 0 0 0 20.00001,0 z"
       style="fill:none;stroke:none;stroke-width:0.0132292;stroke-dasharray:none"
       id="path106" /><path
       d="m -523.11304,262.8763 h -75.00001 v -75 h 75.00001 z"
       style="fill:none;stroke:none;stroke-width:0.0132292;stroke-dasharray:none"
       id="path107" /><path
       style="fill:#000000;stroke:none;stroke-width:0.0178291;stroke-dasharray:none"
       d="m -2128.2588,975.85096 c 0,-19.09563 0.011,-18.98136 -2.2236,-23.40873 -1.378,-2.73039 -4.8665,-6.21816 -7.5945,-7.59289 -1.1701,-0.58964 -4.1331,-1.66441 -6.5847,-2.38839 -32.0194,-9.456 -56.318,-33.9973 -65.0486,-65.69832 -8.9986,-32.67414 0.2333,-67.52464 24.2491,-91.54037 14.2957,-14.29573 32.0938,-23.31796 52.5858,-26.65693 6.3041,-1.02718 20.7663,-1.12935 26.8334,-0.18957 21.7921,3.37553 39.874,12.56031 54.6362,27.75257 23.2495,23.92686 32.0611,57.22078 23.713,89.598 -4.0855,15.84494 -12.8319,30.97639 -24.7604,42.83557 -11.5805,11.51332 -24.2318,18.95894 -40.6103,23.90023 -2.9814,0.89949 -6.1405,2.05488 -7.0202,2.56755 -3.7926,2.2103 -7.2028,6.45531 -8.6457,10.76225 -0.7591,2.26587 -0.7891,2.92532 -0.9075,19.90516 l -0.1224,17.56166 h -9.2498 -9.2498 z m 20.6818,-49.10463 c 16.2114,-2.46823 30.6408,-9.7709 42.2549,-21.38501 12.7298,-12.72983 20.2443,-28.7434 21.92,-46.71222 2.3262,-24.94469 -8.1528,-49.85225 -27.5911,-65.58151 -13.6687,-11.06047 -30.3147,-16.96719 -47.8162,-16.96719 -28.8441,0 -54.5799,15.84522 -67.7258,41.69794 -10.5636,20.77428 -10.7202,46.15986 -0.4149,67.21973 3.9069,7.98402 8.1159,13.8462 14.6305,20.37689 12.8028,12.83451 29.0238,20.33873 47.6266,22.03327 3.1567,0.28754 13.4393,-0.12212 17.116,-0.6819 z"
       id="path413"
       transform="scale(0.26458333)" /><path
       style="fill:#000000;stroke:none;stroke-width:0.0178291;stroke-dasharray:none"
       d="m -2123.4449,889.09143 c -6.0288,-0.75305 -12.7236,-3.44786 -17.6192,-7.09211 -17.3123,-12.88727 -20.4072,-37.13941 -6.8729,-53.85897 7.4156,-9.16099 19.138,-14.39125 30.8844,-13.77999 9.8807,0.51417 18.4834,4.51322 25.4338,11.82325 3.5738,3.75867 6.0798,7.70963 7.8074,12.30881 1.9136,5.0947 2.3755,7.74198 2.3656,13.55992 -0.01,4.36971 -0.1479,5.69784 -0.9076,8.57599 -1.8614,7.05206 -5.1011,12.75833 -10.027,17.66098 -6.1471,6.11802 -13.6168,9.76311 -22.15,10.80883 -3.6179,0.44336 -5.3216,0.44208 -8.9145,-0.007 z"
       id="path414"
       transform="scale(0.26458333)" /></g></svg>
