<?xml version="1.0" encoding="UTF-8" standalone="no"?>
<!-- Created with Inkscape (http://www.inkscape.org/) -->

<svg
   width="39.6875mm"
   height="39.687504mm"
   viewBox="0 0 39.6875 39.687504"
   version="1.1"
   id="svg1"
   inkscape:version="1.3.2 (091e20e, 2023-11-25, custom)"
   sodipodi:docname="URBANCODE_SVG_V2.svg"
   xmlns:inkscape="http://www.inkscape.org/namespaces/inkscape"
   xmlns:sodipodi="http://sodipodi.sourceforge.net/DTD/sodipodi-0.dtd"
   xmlns="http://www.w3.org/2000/svg"
   xmlns:svg="http://www.w3.org/2000/svg">
  <sodipodi:namedview
     id="namedview1"
     pagecolor="#505050"
     bordercolor="#eeeeee"
     borderopacity="1"
     inkscape:showpageshadow="0"
     inkscape:pageopacity="0"
     inkscape:pagecheckerboard="0"
     inkscape:deskcolor="#505050"
     inkscape:document-units="mm"
     showgrid="false"
     inkscape:zoom="0.70110129"
     inkscape:cx="-190.41471"
     inkscape:cy="223.22024"
     inkscape:window-width="1920"
     inkscape:window-height="1001"
     inkscape:window-x="-9"
     inkscape:window-y="-9"
     inkscape:window-maximized="1"
     inkscape:current-layer="layer1" />
  <defs
     id="defs1" />
  <g
     inkscape:label="Camada 1"
     inkscape:groupmode="layer"
     id="layer1"
     transform="translate(260.10285,-34.169623)">
    <rect
       style="fill:none;stroke-width:0.00853528;stroke-linejoin:round"
       id="rect28"
       width="39.6875"
       height="39.6875"
       x="-260.10284"
       y="34.169624"
       inkscape:export-filename="..\..\..\..\aplicacoes\SVG_Teste\icons\1p0002v2.svg"
       inkscape:export-xdpi="64"
       inkscape:export-ydpi="64" />
    <path
       id="path28"
       style="fill:#ffffff;stroke-width:0.0145831;stroke-linejoin:round"
       d="m -240.2591,46.075877 a 7.9375,7.9375 0 0 0 -7.9375,7.9375 7.9375,7.9375 0 0 0 7.9375,7.9375 7.9375,7.9375 0 0 0 7.9375,-7.9375 7.9375,7.9375 0 0 0 -7.9375,-7.9375 z m 0,2.64583 a 5.2916665,5.2916665 0 0 1 5.29166,5.29167 5.2916665,5.2916665 0 0 1 -5.29166,5.29167 5.2916665,5.2916665 0 0 1 -5.29167,-5.29167 5.2916665,5.2916665 0 0 1 5.29167,-5.29167 z" />
    <path
       id="rect29"
       style="fill:#ffffff;stroke-width:0.00915952;stroke-linejoin:round"
       d="m -240.25872,63.274174 a 1.3229166,1.3229166 0 0 0 -1.32292,1.322917 v 9.2599 h 2.64584 v -9.2599 a 1.3229166,1.3229166 0 0 0 -1.32292,-1.322917 z" />
  </g>
</svg>
