<?xml version="1.0" encoding="UTF-8" standalone="no"?>
<!-- Created with Inkscape (http://www.inkscape.org/) -->

<svg
   width="39.687504mm"
   height="39.687496mm"
   viewBox="0 0 39.687504 39.687496"
   version="1.1"
   id="svg1"
   xmlns="http://www.w3.org/2000/svg"
   xmlns:svg="http://www.w3.org/2000/svg">
  <defs
     id="defs1" />
  <g
     id="layer1"
     transform="translate(98.482691,-36.815375)">
    <rect
       style="fill:none;stroke-width:0.00853528;stroke-linejoin:round"
       id="rect22"
       width="39.6875"
       height="39.6875"
       x="-98.482689"
       y="36.815376" />
    <path
       id="path22"
       style="fill:#ffffff;stroke-width:0.0145831;stroke-linejoin:round"
       d="m -78.638941,48.721625 a 7.9375,7.9375 0 0 0 -7.9375,7.9375 7.9375,7.9375 0 0 0 7.9375,7.9375 7.9375,7.9375 0 0 0 7.937504,-7.9375 7.9375,7.9375 0 0 0 -7.937504,-7.9375 z m 0,2.645834 a 5.2916665,5.2916665 0 0 1 5.291666,5.291666 5.2916665,5.2916665 0 0 1 -5.291666,5.291667 5.2916665,5.2916665 0 0 1 -5.291667,-5.291667 5.2916665,5.2916665 0 0 1 5.291667,-5.291666 z" />
    <path
       id="path23"
       style="fill:#ffffff;stroke-width:0.0186056;stroke-linejoin:round"
       d="m -78.639128,43.429907 a 13.229167,13.229167 0 0 0 -13.229166,13.229167 13.229167,13.229167 0 0 0 11.90625,13.134599 v 6.709151 h 2.645833 v -6.709151 a 13.229167,13.229167 0 0 0 11.90625,-13.134599 13.229167,13.229167 0 0 0 -13.229167,-13.229167 z m 0,2.645834 a 10.583333,10.583333 0 0 1 10.583334,10.583333 10.583333,10.583333 0 0 1 -10.583334,10.583333 10.583333,10.583333 0 0 1 -10.583333,-10.583333 10.583333,10.583333 0 0 1 10.583333,-10.583333 z" />
  </g>
</svg>
