<?xml version="1.0" encoding="UTF-8" standalone="no"?>
<!-- Created with Inkscape (http://www.inkscape.org/) -->

<svg
   width="75.000008mm"
   height="75.000008mm"
   viewBox="0 0 75.000008 75.000008"
   version="1.1"
   id="svg1"
   xml:space="preserve"
   xmlns="http://www.w3.org/2000/svg"
   xmlns:svg="http://www.w3.org/2000/svg"><defs
     id="defs1" /><g
     id="layer1"
     transform="translate(598.11305,-22.876285)"><path
       d="M -598.11305,97.876292 V 22.876284 h 75.00001 v 75.000008 z"
       style="fill:none;stroke:none;stroke-width:0.0132292;stroke-dasharray:none"
       id="path101" /><path
       d="M -558.11305,97.876292 V 72.876289 a 10,10 0 0 1 10,-10.000006 h 2.29021 a 2.5,2.5 0 0 0 0,-4.99999 h -29.58039 a 2.5,2.5 0 0 0 0,4.99999 h 2.29018 a 10,10 0 0 1 10.00001,10.000006 v 25.000003"
       style="fill:none;stroke:none;stroke-width:0.0132292;stroke-dasharray:none"
       id="path102" /><path
       style="fill:#000000;stroke:none;stroke-width:0.0178291;stroke-dasharray:none"
       d="m -2128.2588,320.42819 c 0,-53.2168 0.057,-51.51881 -1.9146,-57.31004 -2.5495,-7.48988 -8.0144,-14.68583 -14.4444,-19.01973 -7.4175,-4.99945 -14.4312,-6.77327 -26.8358,-6.78702 -5.4045,-0.006 -5.6339,-0.0367 -7.4817,-1.00202 -4.4582,-2.32899 -6.2401,-7.68629 -4.0311,-12.1193 1.0417,-2.09031 2.4535,-3.41855 4.7862,-4.50291 l 1.6046,-0.74591 h 57.7662 c 53.59,0 57.863,0.0438 59.1033,0.60576 2.3424,1.06125 3.7797,2.42898 4.8924,4.65571 2.1562,4.31497 0.8761,8.86039 -3.2972,11.70828 l -1.7554,1.19787 -8.2549,0.24995 c -6.25,0.18925 -9.06,0.42664 -11.5698,0.97741 -16.0202,3.51567 -27.8243,16.64148 -29.6443,32.96349 -0.2515,2.25531 -0.3812,19.56015 -0.3812,50.85792 v 47.43944 h -9.2712 -9.2711 z"
       id="path410"
       transform="scale(0.26458333)" /></g></svg>
