<?xml version="1.0" encoding="UTF-8" standalone="no"?>
<!-- Created with Inkscape (http://www.inkscape.org/) -->

<svg
   width="39.6875mm"
   height="39.687508mm"
   viewBox="0 0 39.6875 39.687508"
   version="1.1"
   id="svg1"
   xmlns="http://www.w3.org/2000/svg"
   xmlns:svg="http://www.w3.org/2000/svg">
  <defs
     id="defs1" />
  <g
     id="layer1"
     transform="translate(260.10285,-57.787115)">
    <rect
       style="fill:none;stroke-width:0.00853528;stroke-linejoin:round"
       id="rect28"
       width="39.6875"
       height="39.6875"
       x="-260.10284"
       y="57.787113" />
    <path
       id="path28"
       style="fill:#ffffff;stroke-width:0.0145831;stroke-linejoin:round"
       d="m -240.2591,69.693367 a 7.9375,7.9375 0 0 0 -7.9375,7.9375 7.9375,7.9375 0 0 0 7.9375,7.9375 7.9375,7.9375 0 0 0 7.9375,-7.9375 7.9375,7.9375 0 0 0 -7.9375,-7.9375 z m 0,2.64583 a 5.2916665,5.2916665 0 0 1 5.29166,5.29167 5.2916665,5.2916665 0 0 1 -5.29166,5.29167 5.2916665,5.2916665 0 0 1 -5.29167,-5.29167 5.2916665,5.2916665 0 0 1 5.29167,-5.29167 z" />
    <rect
       style="fill:#ffffff;stroke-width:0.00915952;stroke-linejoin:round"
       id="rect29"
       width="2.6458333"
       height="9.2602348"
       x="-241.58186"
       y="88.214386" />
  </g>
</svg>
