<?xml version="1.0" encoding="UTF-8" standalone="no"?>
<!-- Created with Inkscape (http://www.inkscape.org/) -->

<svg
   width="75.000008mm"
   height="75.000015mm"
   viewBox="0 0 75.000008 75.000015"
   version="1.1"
   id="svg1"
   xml:space="preserve"
   xmlns="http://www.w3.org/2000/svg"
   xmlns:svg="http://www.w3.org/2000/svg"><defs
     id="defs1" /><g
     id="layer1"
     transform="translate(598.11305,59.623709)"><path
       d="m -523.11304,-59.623709 v 75.000008 h -75.00001 v -75.000008 z"
       style="fill:none;stroke:none;stroke-width:0.0132292;stroke-dasharray:none"
       id="path12" /><path
       d="m -550.61304,-22.123705 a 10.000006,10.000006 0 0 0 -20.00001,0 10.000006,10.000006 0 0 0 20.00001,0 z"
       style="fill:none;stroke:none;stroke-width:0.0132292;stroke-dasharray:none"
       id="path17" /><path
       d="m -545.61305,-22.123705 a 15,15 0 0 0 -29.99999,0 15,15 0 0 0 29.99999,0 z"
       style="fill:none;stroke:none;stroke-width:0.0132292;stroke-dasharray:none"
       id="path18" /><path
       d="M -558.11305,15.376299 V 0.37630284 a 2.5,2.5 0 0 0 -4.99999,0 V 15.376299"
       style="fill:none;stroke:none;stroke-width:0.0132292;stroke-dasharray:none"
       id="path68" /><path
       style="fill:#000000;stroke:none;stroke-width:0.0178291;stroke-dasharray:none"
       d="m -2128.3917,-27.996175 c -23.2706,-4.230067 -40.925,-21.50583 -45.9095,-44.924814 -1.1621,-5.460002 -1.1657,-16.0015 -0.01,-21.394911 4.9368,-22.98486 21.4894,-39.62644 44.422,-44.66087 3.0788,-0.67589 4.6532,-0.78674 11.0771,-0.77993 6.3673,0.007 8.0299,0.12559 11.1068,0.7939 20.096,4.36505 36.0107,18.46956 42.3387,37.52292 3.9696,11.952469 3.9696,23.690402 0,35.642869 -6.2998,18.968468 -22.301,33.193552 -42.1566,37.477302 -5.1784,1.117217 -15.615,1.278998 -20.8712,0.323534 z m 19.21,-18.874841 c 11.0747,-3.045358 19.9613,-10.501631 24.7815,-20.792919 4.6558,-9.940421 4.6558,-21.968597 0,-31.909019 -4.8197,-10.290196 -13.8842,-17.883346 -24.8661,-20.829796 -3.9417,-1.05756 -12.3076,-1.31012 -16.6128,-0.50154 -17.9763,3.37624 -30.9062,18.97511 -30.9062,37.285846 0,17.936227 12.3805,33.280954 29.9528,37.124424 4.3261,0.946198 13.5558,0.749061 17.6508,-0.376996 z"
       id="path408"
       transform="scale(0.26458333)" /><path
       style="fill:#000000;stroke:none;stroke-width:0.0178291;stroke-dasharray:none"
       d="m -2128.1815,28.615694 0.101,-29.3288577 0.9474,-1.7829093 c 1.8164,-3.418592 4.62,-5.1547743 8.3237,-5.1547743 3.6312,0 6.5562,1.8089213 8.1737,5.0548651 l 0.9192,1.84455334 V 28.596559 57.944551 h -9.283 -9.2829 z"
       id="path409"
       transform="scale(0.26458333)" /></g></svg>
