<?xml version="1.0" encoding="UTF-8" standalone="no"?>
<!-- Created with Inkscape (http://www.inkscape.org/) -->

<svg
   width="75.000008mm"
   height="75.000046mm"
   viewBox="0 0 75.000008 75.000046"
   version="1.1"
   id="svg1"
   xml:space="preserve"
   xmlns="http://www.w3.org/2000/svg"
   xmlns:svg="http://www.w3.org/2000/svg"><defs
     id="defs1" /><g
     id="layer1"
     transform="translate(348.11305,-352.87627)"><path
       d="m -348.11305,352.87628 h 75.00001 v 75.00001 h -75.00001 z"
       style="fill:none;stroke:none;stroke-width:0.0132292;stroke-dasharray:none"
       id="path115" /><path
       d="m -300.61304,390.37629 a 10.000006,10.000006 0 0 0 -20.00001,0 10.000006,10.000006 0 0 0 20.00001,0 z"
       style="fill:none;stroke:none;stroke-width:0.0132292;stroke-dasharray:none"
       id="path116" /><path
       d="m -295.61305,390.37629 a 15,15 0 0 0 -29.99999,0 15,15 0 0 0 29.99999,0 z"
       style="fill:none;stroke:none;stroke-width:0.0132292;stroke-dasharray:none"
       id="path117" /><path
       d="m -313.11304,352.87628 v 15 a 2.5,2.5 0 0 0 4.99999,0 v -15"
       style="fill:none;stroke:none;stroke-width:0.0132292;stroke-dasharray:none"
       id="path118" /><path
       d="m -273.11304,387.87629 h -15 a 2.5,2.5 0 0 0 0,4.99999 h 15"
       style="fill:none;stroke:none;stroke-width:0.0132292;stroke-dasharray:none"
       id="path119" /><path
       style="fill:#000000;stroke:none;stroke-width:0.0356582;stroke-linejoin:round;stroke-dasharray:none"
       d="m -1177.5975,1398.5604 c -1.2671,-0.5695 -2.9507,-2.0966 -3.7415,-3.3936 -1.38,-2.2635 -1.4378,-3.5382 -1.4403,-31.7761 v -29.418 h 8.9145 8.9146 v 28.906 c 0,22.7955 -0.2056,29.3981 -0.9725,31.2335 -1.8073,4.3255 -7.2936,6.4163 -11.6721,4.4482 z"
       id="path434"
       transform="scale(0.26458333)" /><path
       style="fill:#000000;stroke:none;stroke-width:0.0356582;stroke-linejoin:round;stroke-dasharray:none"
       d="m -1093.4236,1483.0528 c -5.2591,-3.2066 -5.8965,-9.9351 -1.3372,-14.1134 l 2.5296,-2.3182 h 29.9634 29.9633 v 8.9145 8.9145 h -29.418 c -27.9193,0 -29.5343,-0.074 -31.7011,-1.3948 z"
       id="path435"
       transform="scale(0.26458333)" /><path
       style="fill:#000000;stroke:none;stroke-width:0.0356582;stroke-linejoin:round;stroke-dasharray:none"
       d="m -1185.954,1530.3858 c -35.5083,-7.932 -54.613,-47.6506 -38.3816,-79.7954 14.118,-27.9596 47.5113,-39.1522 75.4878,-25.3018 14.7726,7.3135 25.7003,21.155 29.6107,37.5062 1.9718,8.2448 1.6269,20.789 -0.7817,28.4305 -5.8693,18.6212 -19.5223,32.2754 -38.1591,38.1625 -6.6511,2.101 -20.5955,2.602 -27.7761,0.998 z m 21.2967,-18.1066 c 7.4967,-1.9173 12.039,-4.5086 17.5319,-10.0015 5.4929,-5.4929 8.0841,-10.0352 10.0015,-17.5318 2.3848,-9.3246 1.5915,-17.0255 -2.6752,-25.9695 -11.211,-23.5011 -43.4061,-28.6487 -61.5085,-9.8345 -6.7061,6.9697 -9.9281,14.4646 -10.5131,24.4543 -0.6647,11.3526 2.9623,20.7871 11.1272,28.9434 9.7814,9.771 22.7305,13.3426 36.0362,9.9396 z"
       id="path436"
       transform="scale(0.26458333)" /></g></svg>
