<?xml version="1.0" encoding="UTF-8" standalone="no"?>
<!-- Created with Inkscape (http://www.inkscape.org/) -->

<svg
   width="75.000008mm"
   height="74.999992mm"
   viewBox="0 0 75.000008 74.999992"
   version="1.1"
   id="svg1"
   xml:space="preserve"
   xmlns="http://www.w3.org/2000/svg"
   xmlns:svg="http://www.w3.org/2000/svg"><defs
     id="defs1" /><g
     id="layer1"
     transform="translate(348.11305,-187.87631)"><path
       d="m -273.11304,222.8763 h -8.45262 a 10,10 0 0 0 -9.68248,7.49999 20,20 0 0 1 -19.36491,15 20,20 0 0 1 -19.99998,-19.99999 20,20 0 0 1 14.99999,-19.36493 10,10 0 0 0 7.49999,-9.68246 v -8.45261"
       style="fill:none;stroke:none;stroke-width:0.0132292;stroke-dasharray:none"
       id="path8" /><path
       d="m -273.11304,227.87629 h -8.45262 a 5,5 0 0 0 -4.84124,3.75 25,25 0 0 1 -24.20615,18.75001 25,25 0 0 1 -25,-25 25,25 0 0 1 18.75001,-24.20615 5,5 0 0 0 3.75,-4.84124 v -8.45261"
       style="fill:none;stroke:none;stroke-width:0.0132292;stroke-dasharray:none"
       id="path9" /><path
       d="m -273.11304,187.8763 v 75 h -75.00001 v -75 z"
       style="fill:none;stroke:none;stroke-width:0.0132292;stroke-dasharray:none"
       id="path14" /><path
       d="m -300.61304,225.3763 a 10.000006,10.000006 0 0 0 -20.00001,0 10.000006,10.000006 0 0 0 20.00001,0 z"
       style="fill:none;stroke:none;stroke-width:0.0132292;stroke-dasharray:none"
       id="path21" /><path
       d="m -295.61305,225.3763 a 15,15 0 0 0 -29.99999,0 15,15 0 0 0 29.99999,0 z"
       style="fill:none;stroke:none;stroke-width:0.0132292;stroke-dasharray:none"
       id="path22" /><path
       style="fill:#000000;stroke:none;stroke-width:0.0356582;stroke-linejoin:round;stroke-dasharray:none"
       d="m -1183.1386,945.57201 c -1.5689,-0.16471 -6.0358,-0.96192 -9.9264,-1.77158 -37.4545,-7.79461 -66.473,-37.60918 -73.5072,-75.52362 -1.7642,-9.50929 -1.6689,-24.4893 0.2157,-33.92953 6.9267,-34.695 30.9253,-61.55503 64.5766,-72.2761 8.9165,-2.84074 10.3024,-3.57686 13.5938,-7.21999 4.8475,-5.36564 4.9996,-6.1211 5.2697,-26.17618 l 0.2425,-18.00738 h 8.8605 8.8605 l -0.011,17.6508 c -0.012,19.45517 -0.5657,23.50939 -4.1964,30.70181 -4.8698,9.64691 -12.2757,15.31661 -25.9093,19.83505 -19.4139,6.43419 -32.4119,16.08184 -42.4835,31.53296 -4.6413,7.12036 -7.9177,14.604 -10.2221,23.34793 -1.4626,5.54984 -1.672,7.93274 -1.6252,18.49445 0.06,13.45439 0.8919,17.83352 5.5705,29.30943 8.9771,22.01908 30.4294,39.66529 54.1793,44.56675 8.293,1.71148 22.5239,1.82134 30.2544,0.23354 19.5019,-4.00559 36.2223,-14.78597 47.3198,-30.50928 4.9611,-7.02893 7.2388,-11.75139 10.9361,-22.67405 4.7337,-13.98432 9.8736,-20.74375 19.7003,-25.90755 7.5542,-3.9696 12.0229,-4.61998 31.8409,-4.63417 l 17.2942,-0.0124 v 9.27112 9.27113 h -18.4022 c -18.3475,0 -18.4132,0.005 -22.0913,1.83836 -5.9929,2.98637 -8.2907,6.47048 -11.9569,18.13023 -1.0484,3.33404 -3.6285,9.43159 -5.7337,13.55011 -13.1536,25.73367 -37.6041,44.07325 -66.101,49.58021 -5.8527,1.13103 -21.1406,1.89569 -26.549,1.32793 z"
       id="path429"
       transform="scale(0.26458333)" /><path
       style="fill:#000000;stroke:none;stroke-width:0.0356582;stroke-linejoin:round;stroke-dasharray:none"
       d="m -1182.6651,907.46316 c -11.1534,-1.99722 -21.7163,-7.30859 -29.6022,-14.88484 -5.926,-5.69336 -8.816,-9.54081 -12.0945,-16.10163 -13.8967,-27.80948 -2.1213,-61.63212 26.1914,-75.22942 17.0592,-8.19281 36.4896,-7.36253 52.8039,2.25634 6.0566,3.57094 16.1782,13.56534 19.5339,19.28848 6.9758,11.89701 9.592,26.29793 7.1706,39.47014 -3.7978,20.65975 -20.6201,38.58001 -41.202,43.89121 -6.3793,1.6462 -17.3901,2.27867 -22.8011,1.30972 z m 21.9272,-19.80133 c 16.0301,-6.25576 26.4094,-22.75987 24.716,-39.3009 -2.0741,-20.25941 -18.0777,-34.52536 -38.6054,-34.41362 -20.8089,0.11326 -37.334,16.78403 -37.3839,37.71334 -0.041,17.14866 11.4098,32.31331 27.883,36.92658 5.6137,1.57212 18.274,1.07123 23.3903,-0.9254 z"
       id="path430"
       transform="scale(0.26458333)" /></g></svg>
