<?xml version="1.0" encoding="UTF-8" standalone="no"?>
<!-- Created with Inkscape (http://www.inkscape.org/) -->

<svg
   width="75.000008mm"
   height="75.000008mm"
   viewBox="0 0 75.000008 75.000008"
   version="1.1"
   id="svg1"
   xml:space="preserve"
   xmlns="http://www.w3.org/2000/svg"
   xmlns:svg="http://www.w3.org/2000/svg"><defs
     id="defs1" /><g
     id="layer1"
     transform="translate(348.11305,-270.3763)"><path
       d="m -348.11305,270.37629 h 75.00001 v 75.00001 h -75.00001 z"
       style="fill:none;stroke:none;stroke-width:0.0132292;stroke-dasharray:none"
       id="path111" /><path
       d="m -300.61304,307.87629 a 10.000006,10.000006 0 0 0 -20.00001,0 10.000006,10.000006 0 0 0 20.00001,0 z"
       style="fill:none;stroke:none;stroke-width:0.0132292;stroke-dasharray:none"
       id="path112" /><path
       d="m -313.11304,270.37629 v 14.99999 a 2.5,2.5 0 0 0 4.99999,0 v -14.99999"
       style="fill:none;stroke:none;stroke-width:0.0132292;stroke-dasharray:none"
       id="path113" /><path
       d="m -273.11304,305.3763 h -15 a 2.5,2.5 0 0 0 0,4.99999 h 15"
       style="fill:none;stroke:none;stroke-width:0.0132292;stroke-dasharray:none"
       id="path114" /><path
       style="fill:#000000;stroke:none;stroke-width:0.0356582;stroke-linejoin:round;stroke-dasharray:none"
       d="m -1175.5981,1087.3587 c -0.9518,-0.1501 -2.4926,-0.7721 -3.4239,-1.3824 -3.7138,-2.4333 -3.76,-2.8559 -3.76,-34.381 v -29.2751 h 8.9145 8.9146 v 28.9536 c 0,24.2567 -0.1735,29.3193 -1.0695,31.2075 -1.6068,3.386 -5.7261,5.4842 -9.5757,4.8774 z"
       id="path431"
       transform="scale(0.26458333)" /><path
       style="fill:#000000;stroke:none;stroke-width:0.0356582;stroke-linejoin:round;stroke-dasharray:none"
       d="m -1092.731,1171.7404 c -2.7064,-1.1765 -5.1781,-4.873 -5.1819,-7.7495 0,-3.0521 1.8796,-6.4193 4.4662,-7.9839 2.174,-1.315 3.9932,-1.4069 31.7242,-1.603 l 29.418,-0.2081 v 9.3009 9.3009 l -29.0614,-0.028 c -23.3358,-0.022 -29.5153,-0.2252 -31.3651,-1.0294 z"
       id="path432"
       transform="scale(0.26458333)" /><path
       style="fill:#000000;stroke:none;stroke-width:0.0356582;stroke-linejoin:round;stroke-dasharray:none"
       d="m -1178.5189,1200.5934 c -8.8206,-1.0592 -16.9486,-5.3358 -23.049,-12.1275 -18.9058,-21.0478 -8.67,-53.9737 18.9822,-61.0609 5.9725,-1.5307 15.7542,-0.9981 21.4412,1.1675 6.4753,2.4657 12.5053,6.9762 16.6327,12.4415 4.3568,5.7688 6.4634,10.8856 7.5582,18.3574 0.9711,6.6279 -0.3589,14.1058 -3.7197,20.9145 -6.8645,13.9071 -22.2767,22.1771 -37.8456,20.3075 z"
       id="path433"
       transform="scale(0.26458333)" /></g></svg>
