<?xml version="1.0" encoding="UTF-8" standalone="no"?>
<!-- Created with Inkscape (http://www.inkscape.org/) -->

<svg
   width="75.000008mm"
   height="75.000015mm"
   viewBox="0 0 75.000008 75.000015"
   version="1.1"
   id="svg1"
   xml:space="preserve"
   xmlns="http://www.w3.org/2000/svg"
   xmlns:svg="http://www.w3.org/2000/svg"><defs
     id="defs1" /><g
     id="layer1"
     transform="translate(348.11305,142.1237)"><path
       d="m -273.15241,-102.16291 h -16.73196 a 8.5024737,8.5024737 0 0 0 -7.13121,3.872358 15,15 0 1 1 -20.61959,-19.587948 8.5024737,8.5024737 0 0 0 4.52213,-7.51324 v -16.73196"
       style="fill:none;stroke:none;stroke-width:0.0132292;stroke-dasharray:none"
       id="path42" /><path
       d="m -273.15241,-107.16293 h -16.73196 a 8.5024737,8.5024737 0 0 1 -7.51324,-4.5221 15.009637,15.009637 0 0 0 -2.60882,-3.54528 15,15 0 0 0 -3.5845,-2.64819 8.5024737,8.5024737 0 0 1 -4.52212,-7.51324 v -16.73196"
       style="fill:none;stroke:none;stroke-width:0.0132292;stroke-dasharray:none"
       id="path43" /><path
       d="m -300.61304,-104.6237 a 10.000006,10.000006 0 0 0 -20.00001,0 10.000006,10.000006 0 0 0 20.00001,0 z"
       style="fill:none;stroke:none;stroke-width:0.0132292;stroke-dasharray:none"
       id="path44" /><path
       d="M -348.11305,-67.123694 V -142.1237 h 75.00001 v 75.000006 z"
       style="fill:none;stroke:none;stroke-width:0.0132292;stroke-dasharray:none"
       id="path45" /><path
       style="fill:#000000;stroke:none;stroke-width:0.0356582;stroke-linejoin:round;stroke-dasharray:none"
       d="m -1183.3258,-339.90129 c -18.534,-3.08756 -35.1034,-16.33583 -42.5458,-34.01802 -4.2278,-10.04499 -5.4436,-23.68599 -3.0148,-33.82559 3.4332,-14.33224 12.4436,-27.13775 24.4545,-34.75438 9.1357,-5.79333 10.3642,-6.71698 13.255,-9.9658 3.734,-4.19643 6.7145,-10.60603 7.6449,-16.44006 0.4285,-2.68732 0.7415,-17.89857 0.7446,-36.19305 l 0.01,-31.5575 h 8.9145 8.9146 v 32.77043 c 0,21.35707 0.2768,34.08666 0.7949,36.54964 1.9863,9.44392 7.715,16.85055 17.6311,22.79527 8.0887,4.84917 16.5278,13.27672 21.3495,21.32029 3.9646,6.61375 9.5882,12.46631 14.2772,14.85848 6.8024,3.47033 8.9077,3.64118 44.8703,3.64118 h 33.7254 v 9.27113 9.27112 h -34.5249 c -31.5871,0 -34.8855,0.11226 -38.7634,1.31918 -8.5825,2.67119 -14.5815,8.04449 -20.1361,18.03601 -3.2484,5.84322 -11.0466,14.051 -17.2986,18.20737 -11.6019,7.71288 -26.7048,10.97882 -40.2983,8.7143 z m 21.6793,-19.42527 c 13.8144,-4.95096 23.0915,-16.19856 25.3516,-30.73632 2.8543,-18.35948 -9.0079,-36.70782 -27.1828,-42.0463 -5.5396,-1.62712 -15.8371,-1.5016 -21.547,0.26266 -16.1709,4.99651 -26.9759,19.57522 -26.9759,36.39725 0,16.70699 10.5891,31.12816 26.7225,36.3931 6.369,2.07844 17.431,1.95188 23.6316,-0.27039 z"
       id="path424"
       transform="scale(0.26458333)" /></g></svg>
