<?xml version="1.0" encoding="UTF-8" standalone="no"?>
<!-- Created with Inkscape (http://www.inkscape.org/) -->

<svg
   width="74.999977mm"
   height="74.999977mm"
   viewBox="0 0 74.999977 74.999977"
   version="1.1"
   id="svg1"
   xml:space="preserve"
   xmlns="http://www.w3.org/2000/svg"
   xmlns:svg="http://www.w3.org/2000/svg"><defs
     id="defs1" /><g
     id="layer1"
     transform="translate(473.11305,-105.37631)"><path
       d="m -433.11304,180.37628 v -8.45261 a 10,10 0 0 0 -7.50001,-9.68246 20,20 0 0 1 -15,-19.36493 20,20 0 0 1 15,-19.36491 10,10 0 0 0 7.50001,-9.68245 v -8.45262"
       style="fill:none;stroke:none;stroke-width:0.0132292;stroke-dasharray:none"
       id="path10" /><path
       d="m -438.11306,180.37628 v -8.45261 a 5,5 0 0 0 -3.74999,-4.84124 25,25 0 0 1 -18.74999,-24.20615 25,25 0 0 1 18.74999,-24.20612 5,5 0 0 0 3.74999,-4.84124 v -8.45262"
       style="fill:none;stroke:none;stroke-width:0.0132292;stroke-dasharray:none"
       id="path11" /><path
       d="m -398.11306,105.3763 v 74.99998 h -74.99998 V 105.3763 Z"
       style="fill:none;stroke:none;stroke-width:0.0132292;stroke-dasharray:none"
       id="path15" /><path
       d="m -425.61305,142.87628 a 10,10 0 0 0 -19.99999,0 10,10 0 0 0 19.99999,0 z"
       style="fill:none;stroke:none;stroke-width:0.0132292;stroke-dasharray:none"
       id="path19" /><path
       d="m -420.61304,142.87628 a 15,15 0 0 0 -29.99999,0 15,15 0 0 0 29.99999,0 z"
       style="fill:none;stroke:none;stroke-width:0.0132292;stroke-dasharray:none"
       id="path20" /><path
       style="fill:#000000;stroke:none;stroke-width:0.0356582;stroke-linejoin:round;stroke-dasharray:none"
       d="m -1655.7447,662.70737 c -0.2439,-20.62426 -0.3157,-20.99017 -5.1151,-26.09132 -2.8817,-3.06285 -4.6966,-3.97901 -13.9052,-7.01956 -22.3785,-7.38903 -40.8218,-22.02122 -52.448,-41.6101 -22.3898,-37.72437 -15.8382,-85.2898 15.9384,-115.71408 11.1048,-10.63221 22.1896,-17.17895 37.6992,-22.26527 9.3842,-3.07751 13.0785,-5.58729 15.7473,-10.6982 1.8503,-3.54344 1.8633,-3.68332 2.0735,-22.28636 l 0.2116,-18.72055 h 9.3062 9.3063 l -0.3116,19.07713 c -0.3326,20.36195 -0.675,22.65263 -4.5213,30.24832 -2.1543,4.2544 -8.6379,11.26567 -12.9744,14.03034 -3.6557,2.33069 -5.8928,3.2468 -15.135,6.19782 -38.7125,12.36089 -60.7189,53.68203 -49.4971,92.93993 4.6234,16.17419 14.0844,29.92156 27.6144,40.12509 6.8098,5.13555 14.6941,9.01245 25.2025,12.39267 12.1736,3.91588 19.1793,9.21526 24.4415,18.4885 4.1023,7.22926 4.508,9.77556 4.8665,30.54906 l 0.3294,19.07713 h -9.3038 -9.3038 z"
       id="path422"
       transform="scale(0.26458333)" /><path
       style="fill:#000000;stroke:none;stroke-width:0.0356582;stroke-linejoin:round;stroke-dasharray:none"
       d="m -1653.7122,595.78321 c -17.8779,-2.40317 -34.1627,-13.85423 -42.5044,-29.88797 -13.3103,-25.58408 -5.1812,-56.74932 18.9701,-72.72718 24.9609,-16.51351 59.0314,-10.32207 76.1652,13.8411 7.6156,10.7399 10.671,20.15109 10.6668,32.85576 0,11.79989 -2.5206,20.78064 -8.3722,29.87536 -11.9535,18.57839 -33.7108,28.89462 -54.9255,26.04293 z m 15.3618,-18.54635 c 6.5499,-1.35588 13.8335,-5.32182 18.6544,-10.15741 7.5097,-7.53254 11.1627,-16.44174 11.1468,-27.18607 -0.015,-10.48677 -3.2023,-18.39568 -10.5514,-26.18611 -20.1196,-21.32787 -55.7135,-12.33517 -64.0156,16.17336 -0.8021,2.75449 -1.231,6.58209 -1.2037,10.74339 0.157,23.92354 22.2532,41.52228 45.9695,36.61284 z"
       id="path423"
       transform="scale(0.26458333)" /></g></svg>
