<?xml version="1.0" encoding="UTF-8" standalone="no"?>
<!-- Created with Inkscape (http://www.inkscape.org/) -->

<svg
   width="74.999992mm"
   height="75.000008mm"
   viewBox="0 0 74.999992 75.000008"
   version="1.1"
   id="svg1"
   xml:space="preserve"
   xmlns="http://www.w3.org/2000/svg"
   xmlns:svg="http://www.w3.org/2000/svg"><defs
     id="defs1" /><g
     id="layer1"
     transform="translate(223.11304,-22.876285)"><path
       d="m -148.11306,22.876284 v 75.000008 h -74.99998 V 22.876284 Z"
       style="fill:none;stroke:none;stroke-width:0.0132292;stroke-dasharray:none"
       id="path74" /><path
       d="m -175.61306,60.376288 a 10,10 0 0 0 -19.99998,0 10,10 0 0 0 19.99998,0 z"
       style="fill:none;stroke:none;stroke-width:0.0132292;stroke-dasharray:none"
       id="path75" /><path
       d="m -170.61304,60.376288 a 15.00001,15.00001 0 0 0 -30.00002,0 15.00001,15.00001 0 0 0 30.00002,0 z"
       style="fill:none;stroke:none;stroke-width:0.0132292;stroke-dasharray:none"
       id="path76" /><path
       d="m -148.11306,57.876293 h -14.99999 a 2.5,2.5 0 0 0 0,4.99999 h 14.99999"
       style="fill:none;stroke:none;stroke-width:0.0132292;stroke-dasharray:none"
       id="path77" /><path
       d="m -183.11304,22.876284 v 15.000023 a 2.50001,2.50001 0 0 1 -5.00002,0 V 22.876284"
       style="fill:none;stroke:none;stroke-width:0.0132292;stroke-dasharray:none"
       id="path78" /><path
       d="M -183.11304,97.876292 V 82.876296 a 2.50001,2.50001 0 0 0 -5.00002,0 v 14.999996"
       style="fill:none;stroke:none;stroke-width:0.0132292;stroke-dasharray:none"
       id="path79" /><path
       style="fill:#000000;stroke:none;stroke-width:0.0356582;stroke-linejoin:round;stroke-dasharray:none"
       d="m -705.63151,150.95731 c -5.03155,-2.69845 -5.03612,-2.73041 -5.03612,-35.23537 V 86.64939 h 9.30768 9.30768 l -0.21484,29.45067 c -0.23829,32.66474 -0.1033,31.73861 -5.06745,34.76544 -2.84859,1.7369 -5.18137,1.76271 -8.29695,0.0918 z"
       id="path441"
       transform="scale(0.26458333)" /><path
       style="fill:#000000;stroke:none;stroke-width:0.0356582;stroke-linejoin:round;stroke-dasharray:none"
       d="m -621.2777,235.66046 c -5.62069,-3.60079 -5.31463,-12.3022 0.53918,-15.32933 1.64962,-0.85305 7.10481,-1.03329 31.2733,-1.03329 h 29.27513 v 8.91455 8.91454 l -29.418,-0.012 c -28.29906,-0.0116 -29.50365,-0.0669 -31.66961,-1.45446 z"
       id="path442"
       transform="scale(0.26458333)" /><path
       style="fill:#000000;stroke:none;stroke-width:0.0356582;stroke-linejoin:round;stroke-dasharray:none"
       d="m -714.84328,282.80273 c -6.86758,-1.68632 -17.17231,-6.8877 -22.71224,-11.46414 -8.32688,-6.87871 -15.60233,-18.34275 -18.54363,-29.21951 -1.72289,-6.37118 -1.73279,-21.3793 -0.0183,-27.81339 3.06872,-11.51644 11.20064,-23.76215 20.32898,-30.613 10.52148,-7.89642 21.20259,-11.50786 34.03542,-11.50786 9.88762,0 16.85579,1.67318 26.03047,6.25037 5.60517,2.79638 7.89571,4.49191 13.26502,9.81926 9.46518,9.39119 14.16326,18.31081 16.39248,31.12227 4.89761,28.14684 -13.66747,56.11177 -42.07365,63.37635 -7.30237,1.86751 -19.21113,1.88965 -26.70452,0.0496 z m 21.47505,-17.48206 c 12.40415,-2.62855 23.392,-12.25337 27.74042,-24.29925 1.90504,-5.27732 2.55309,-15.35165 1.34627,-20.92878 -2.75302,-12.72264 -12.68326,-23.82917 -24.94692,-27.90201 -20.62812,-6.85073 -42.8246,4.62702 -48.9739,25.3243 -1.94468,6.5454 -1.6975,16.46751 0.57033,22.89401 4.40578,12.48492 13.79927,21.21646 26.36627,24.50826 6.3082,1.65237 11.45635,1.76843 17.89753,0.40347 z"
       id="path443"
       transform="scale(0.26458333)" /><path
       style="fill:#000000;stroke:none;stroke-width:0.0356582;stroke-linejoin:round;stroke-dasharray:none"
       d="m -710.66652,340.71396 c 10e-4,-32.54138 0.036,-32.78728 4.99103,-35.33895 5.28185,-2.71994 11.47526,0.33143 12.86899,6.34029 0.3559,1.53444 0.65475,15.22569 0.66411,30.42499 l 0.017,27.63509 h -9.27113 -9.27113 z"
       id="path444"
       transform="scale(0.26458333)" /></g></svg>
