<?xml version="1.0" encoding="UTF-8" standalone="no"?>
<!-- Created with Inkscape (http://www.inkscape.org/) -->

<svg
   width="74.999992mm"
   height="75.000015mm"
   viewBox="0 0 74.999992 75.000015"
   version="1.1"
   id="svg1"
   xml:space="preserve"
   xmlns="http://www.w3.org/2000/svg"
   xmlns:svg="http://www.w3.org/2000/svg"><defs
     id="defs1" /><g
     id="layer1"
     transform="translate(223.11304,142.1237)"><path
       d="m -223.11304,-142.1237 h 74.99998 v 75.000006 h -74.99998 z"
       style="fill:none;stroke:none;stroke-width:0.0132292;stroke-dasharray:none"
       id="path47" /><path
       style="fill:none;stroke:none;stroke-width:0.0132292;stroke-dasharray:none"
       d="m -188.11253,-142.1228 v 74.998789"
       id="path51" /><path
       d="m -148.11306,-102.1237 h -26.49752 a 8.5024737,8.5024737 0 0 0 -8.50246,8.502462 v 26.497544"
       style="fill:none;stroke:none;stroke-width:0.0132292;stroke-dasharray:none"
       id="path52" /><path
       d="m -183.11304,-142.1237 v 26.49752 a 8.5024737,8.5024737 0 0 0 8.50246,8.50249 h 26.49752"
       style="fill:none;stroke:none;stroke-width:0.0132292;stroke-dasharray:none"
       id="path53" /><path
       style="fill:#000000;stroke:none;stroke-width:0.0356582;stroke-linejoin:round;stroke-dasharray:none"
       d="m -710.66763,-395.44927 v -141.20642 h 9.27113 9.27113 v 52.79661 c 0,51.23071 0.0431,52.92452 1.45281,57.10923 2.94207,8.7334 8.58731,15.04756 17.08944,19.1144 l 5.34873,2.55847 54.02215,0.19973 54.02215,0.19974 v 9.24968 9.24968 l -52.23924,0.008 c -41.3423,0.007 -52.98306,0.20745 -55.80506,0.9624 -9.32089,2.49356 -16.74449,8.70273 -20.96126,17.53222 l -2.57314,5.3879 -0.19562,54.02215 -0.19561,54.02215 h -9.2538 -9.25381 z"
       id="path439"
       transform="scale(0.26458333)" /></g></svg>
