<?xml version="1.0" encoding="UTF-8" standalone="no"?>
<!-- Created with Inkscape (http://www.inkscape.org/) -->

<svg
   width="39.687557mm"
   height="39.687656mm"
   viewBox="0 0 39.687557 39.687656"
   version="1.1"
   id="svg1"
   xmlns="http://www.w3.org/2000/svg"
   xmlns:svg="http://www.w3.org/2000/svg">
  <defs
     id="defs1" />
  <g
     id="layer1"
     transform="translate(107.86525,-51.384825)">
    <rect
       style="fill:none;stroke-width:0.00853528;stroke-linejoin:round"
       id="rect15"
       width="39.6875"
       height="39.6875"
       x="-107.8652"
       y="51.384823" />
    <path
       id="path15"
       style="fill:#ffffff;stroke-width:0.0145831;stroke-linejoin:round"
       d="m -88.021441,63.291074 a 7.9375,7.9375 0 0 0 -7.9375,7.9375 7.9375,7.9375 0 0 0 7.9375,7.9375 7.9375,7.9375 0 0 0 7.937504,-7.9375 7.9375,7.9375 0 0 0 -7.937504,-7.9375 z m 0,2.64583 a 5.2916665,5.2916665 0 0 1 5.291666,5.29167 5.2916665,5.2916665 0 0 1 -5.291666,5.29167 5.2916665,5.2916665 0 0 1 -5.291667,-5.29167 5.2916665,5.2916665 0 0 1 5.291667,-5.29167 z" />
    <path
       id="rect16"
       style="fill:#ffffff;stroke-width:0.00915952;stroke-linejoin:round"
       d="m -89.344417,51.384977 v 6.708635 A 13.229167,13.229167 0 0 0 -101.1561,69.905811 h -6.70915 v 2.645833 h 9.343615 v -2.38125 a 10.583333,10.583333 0 0 1 10.500134,-9.525517 10.583333,10.583333 0 0 1 10.583334,10.583333 10.583333,10.583333 0 0 1 -10.583334,10.583334 v 5.17e-4 h -1.322916 v 9.260416 h 2.645833 v -6.709668 a 13.229167,13.229167 0 0 0 11.811682,-11.811165 h 6.709151 v -2.645833 h -6.681246 A 13.229167,13.229167 0 0 0 -86.698584,58.066223 v -6.681246 z" />
  </g>
</svg>
