<?xml version="1.0" encoding="UTF-8" standalone="no"?>
<!-- Created with Inkscape (http://www.inkscape.org/) -->

<svg
   width="75.000008mm"
   height="75.000046mm"
   viewBox="0 0 75.000008 75.000046"
   version="1.1"
   id="svg1"
   xml:space="preserve"
   xmlns="http://www.w3.org/2000/svg"
   xmlns:svg="http://www.w3.org/2000/svg"><defs
     id="defs1" /><g
     id="layer1"
     transform="translate(98.113055,-352.87627)"><path
       d="m -23.113045,387.87629 a 39.999999,39.999999 0 0 0 -39.999998,40"
       style="fill:none;stroke:none;stroke-width:0.0132292;stroke-dasharray:none"
       id="path127" /><path
       d="m -23.113045,392.87628 a 34.999998,34.999998 0 0 0 -35.000009,35.00001"
       style="fill:none;stroke:none;stroke-width:0.0132292;stroke-dasharray:none"
       id="path128" /><path
       d="m -98.113052,352.87628 h 75.000007 v 75.00001 h -75.000007 z"
       style="fill:none;stroke:none;stroke-width:0.0132292;stroke-dasharray:none"
       id="path129" /><path
       d="m -50.613042,390.37629 a 10.000007,10.000007 0 0 0 -20.000013,0 10.000007,10.000007 0 0 0 20.000013,0 z"
       style="fill:none;stroke:none;stroke-width:0.0132292;stroke-dasharray:none"
       id="path130" /><path
       d="m -98.113052,392.87628 a 39.999999,39.999999 0 0 0 39.999998,-40"
       style="fill:none;stroke:none;stroke-width:0.0132292;stroke-dasharray:none"
       id="path133" /><path
       d="m -98.113052,387.87629 a 34.999998,34.999998 0 0 0 35.000009,-35.00001"
       style="fill:none;stroke:none;stroke-width:0.0132292;stroke-dasharray:none"
       id="path134" /><path
       style="fill:#000000;stroke:none;stroke-width:0.0356582;stroke-linejoin:round;stroke-dasharray:none"
       d="m -370.48854,1475.5794 v -8.8708 l 3.03094,-0.3673 c 1.66702,-0.202 5.79793,-0.5413 9.1798,-0.754 16.81833,-1.0579 38.30639,-7.8861 54.27972,-17.2485 37.41744,-21.9312 63.05278,-62.8515 65.16869,-104.0252 0.58666,-11.416 -0.44441,-10.3409 9.91743,-10.3409 h 8.90096 v 3.1337 c 0,4.6814 -1.33899,17.1296 -2.54767,23.685 -9.91102,53.7535 -48.79814,98.5637 -100.43796,115.736 -13.92689,4.6313 -32.20753,7.9228 -44.00166,7.9228 h -3.49025 z"
       id="path461"
       transform="scale(0.26458333)" /><path
       style="fill:#000000;stroke:none;stroke-width:0.0356582;stroke-linejoin:round;stroke-dasharray:none"
       d="m -236.77035,1511.9754 c -20.73986,-4.756 -33.66157,-25.4586 -28.4665,-45.6079 3.41717,-13.2536 14.3661,-24.0876 27.46313,-27.1748 12.67471,-2.9876 24.5768,0.2963 34.29266,9.4618 6.29512,5.9384 10.16329,13.4159 11.37589,21.9905 1.92352,13.6016 -4.93444,28.4948 -16.55479,35.9516 -8.23211,5.2825 -19.29729,7.3998 -28.11039,5.3788 z"
       id="path462"
       transform="scale(0.26458333)" /><path
       style="fill:#000000;stroke:none;stroke-width:0.0356582;stroke-linejoin:round;stroke-dasharray:none"
       d="m -237.63621,1608.0059 c 1.29532,-28.808 12.08607,-57.9 30.54484,-82.3493 5.72942,-7.5888 20.69793,-22.5573 28.28674,-28.2867 24.13986,-18.2252 53.37323,-29.1109 81.992657,-30.5318 l 8.736256,-0.4337 v 8.8889 8.8889 l -9.44942,0.8187 c -48.295043,4.1843 -89.331303,32.3909 -109.697033,75.4013 -7.54939,15.9435 -12.78883,37.8452 -12.78883,53.4592 v 3.2373 h -9.01703 -9.01703 z"
       id="path463"
       transform="scale(0.26458333)" /></g></svg>
