<?xml version="1.0" encoding="UTF-8" standalone="no"?>
<!-- Created with Inkscape (http://www.inkscape.org/) -->

<svg
   width="75.000008mm"
   height="74.999977mm"
   viewBox="0 0 75.000008 74.999977"
   version="1.1"
   id="svg1"
   xml:space="preserve"
   xmlns="http://www.w3.org/2000/svg"
   xmlns:svg="http://www.w3.org/2000/svg"><defs
     id="defs1" /><g
     id="layer1"
     transform="translate(98.113055,-105.37631)"><path
       d="m -98.113052,145.3763 h 8.452617 a 5,5 0 0 1 4.84124,3.74999 25,25 0 0 0 6.528488,11.42768 25,25 0 0 0 11.427671,6.52846 5,5 0 0 1 3.749993,4.84124 v 8.45261"
       style="fill:none;stroke:none;stroke-width:0.0132292;stroke-dasharray:none"
       id="path94" /><path
       d="m -98.113052,105.3763 h 75.000007 v 74.99998 h -75.000007 z"
       style="fill:none;stroke:none;stroke-width:0.0132292;stroke-dasharray:none"
       id="path95" /><path
       d="m -50.613042,142.87628 a 10.000007,10.000007 0 0 0 -20.000013,0 10.000007,10.000007 0 0 0 20.000013,0 z"
       style="fill:none;stroke:none;stroke-width:0.0132292;stroke-dasharray:none"
       id="path96" /><path
       d="m -45.613052,142.87628 a 15,15 0 0 0 -29.999993,0 15,15 0 0 0 29.999993,0 z"
       style="fill:none;stroke:none;stroke-width:0.0132292;stroke-dasharray:none"
       id="path97" /><path
       d="m -98.113052,140.37629 h 8.452617 a 10,10 0 0 1 9.68248,7.50001 20,20 0 1 0 24.364896,-24.36493 10,10 0 0 1 -7.499984,-9.68245 v -8.45262"
       style="fill:none;stroke:none;stroke-width:0.0132292;stroke-dasharray:none"
       id="path98" /><path
       d="m -23.113045,140.37629 h -8.452617 a 5,5 0 0 1 -4.84124,-3.75 25,25 0 0 0 -6.528488,-11.42767 25,25 0 0 0 -11.427671,-6.52846 5,5 0 0 1 -3.749993,-4.84124 v -8.45262"
       style="fill:none;stroke:none;stroke-width:0.0132292;stroke-dasharray:none"
       id="path99" /><path
       d="m -23.113045,145.3763 h -8.452617 a 5,5 0 0 0 -4.84124,3.74999 25,25 0 0 1 -6.528488,11.42768 25,25 0 0 1 -11.427671,6.52846 5,5 0 0 0 -3.749993,4.84124 v 8.45261"
       style="fill:none;stroke:none;stroke-width:0.0132292;stroke-dasharray:none"
       id="path100" /><path
       style="fill:#000000;stroke:none;stroke-width:0.0356582;stroke-linejoin:round;stroke-dasharray:none"
       d="m -237.95544,663.368 -0.24124,-18.05992 -2.1469,-4.19581 c -2.93709,-5.74016 -6.4468,-8.24201 -15.47494,-11.03117 -30.50763,-9.42505 -53.50019,-32.20473 -63.02241,-62.43891 -3.15383,-10.01379 -5.47248,-13.36108 -11.33196,-16.35924 l -4.19582,-2.1469 -18.05992,-0.24124 -18.05991,-0.24125 v -8.91036 -8.91036 l 19.79029,0.28664 c 17.07043,0.24725 20.28036,0.46886 23.35611,1.61248 5.85253,2.17607 11.17826,5.6734 15.43445,10.13558 4.74149,4.97095 7.19141,9.53925 10.05478,18.74888 6.53588,21.02174 19.8885,36.79248 39.40867,46.54545 20.15395,10.06963 45.90753,10.15374 66.33439,0.21666 44.61198,-21.70246 56.90258,-79.34699 25.03927,-117.43746 -9.11647,-10.89813 -21.15203,-18.65439 -37.411,-24.10934 -4.83765,-1.62306 -10.45381,-4.01275 -12.48036,-5.31043 -7.47083,-4.78389 -14.17046,-14.17883 -16.10836,-22.58887 -0.40421,-1.75417 -0.74277,-11.61365 -0.75236,-21.90995 l -0.0174,-18.72055 h 8.91455 8.91455 l 0.004,17.29422 c 0.002,9.51182 0.32608,18.45382 0.71976,19.8711 0.96847,3.48654 4.12988,8.05324 7.08368,10.23249 1.3369,0.98634 5.92399,2.92095 10.19351,4.29914 31.10097,10.03927 52.73071,31.64608 62.9081,62.84139 1.4212,4.3562 3.38296,9.00331 4.35947,10.3269 2.16318,2.93202 6.73802,6.09374 10.21463,7.05946 1.41728,0.39369 10.19881,0.71759 19.51451,0.71977 l 16.937643,0.004 v 8.85159 8.85159 l -18.007383,0.26033 c -17.16703,0.24819 -18.16615,0.33831 -21.40945,1.93124 -5.60138,2.75108 -8.73138,6.99291 -11.29855,15.31198 -8.08536,26.2011 -24.56998,45.86166 -48.49569,57.83889 -4.30475,2.15496 -10.62066,4.76588 -14.03534,5.80203 -8.235,2.49885 -10.90709,3.93139 -13.93798,7.47229 -4.35748,5.09075 -4.75089,7.31098 -4.75089,26.81213 v 17.34547 h -8.8516 -8.85159 z"
       id="path452"
       transform="scale(0.26458333)" /><path
       style="fill:#000000;stroke:none;stroke-width:0.0356582;stroke-linejoin:round;stroke-dasharray:none"
       d="m -236.32267,595.79151 c -6.12064,-0.79335 -12.82449,-3.02925 -19.7031,-6.57146 -8.45605,-4.35453 -18.12133,-14.20122 -22.70337,-23.12949 -4.71713,-9.19153 -6.3295,-15.71566 -6.39324,-25.86905 -0.16065,-25.58987 16.41747,-47.37183 41.57698,-54.62793 7.21585,-2.08107 22.81552,-1.91709 29.92215,0.31454 18.91769,5.94057 32.83141,19.83991 38.66371,38.62378 1.42469,4.58842 1.65684,6.81866 1.63315,15.68961 -0.0262,9.82802 -0.14604,10.68686 -2.4155,17.31729 -7.21937,21.09203 -24.98353,35.49133 -47.2257,38.28026 -6.52733,0.81847 -6.83315,0.81783 -13.35508,-0.0276 z m 16.52334,-18.83429 c 14.08115,-3.66768 24.95583,-15.04698 27.95051,-29.2475 1.32306,-6.27387 1.32361,-9.40981 0.003,-15.6896 -3.06506,-14.57197 -14.66267,-26.16959 -29.23465,-29.23464 -9.06128,-1.90595 -16.09714,-1.04563 -24.60415,3.0085 -6.63327,3.16117 -14.39971,10.66559 -17.30414,16.72035 -7.35939,15.34185 -4.62451,32.7838 6.95632,44.36462 4.75477,4.75478 11.50408,8.62202 17.64154,10.10831 5.18468,1.25556 13.70898,1.24178 18.59185,-0.03 z"
       id="path453"
       transform="scale(0.26458333)" /></g></svg>
