<?xml version="1.0" encoding="UTF-8" standalone="no"?>
<!-- Created with Inkscape (http://www.inkscape.org/) -->

<svg
   width="75.000008mm"
   height="75.000008mm"
   viewBox="0 0 75.000008 75.000008"
   version="1.1"
   id="svg1"
   xml:space="preserve"
   xmlns="http://www.w3.org/2000/svg"
   xmlns:svg="http://www.w3.org/2000/svg"><defs
     id="defs1" /><g
     id="layer1"
     transform="translate(98.113055,-22.876285)"><path
       d="m -98.113052,57.876293 h 8.452617 a 10,10 0 0 1 9.68248,7.500011 20,20 0 0 0 5.222769,9.142122 20,20 0 0 0 9.142148,5.222795 10,10 0 0 1 7.499984,9.682454 v 8.452617"
       style="fill:none;stroke:none;stroke-width:0.0132292;stroke-dasharray:none"
       id="path87" /><path
       d="m -98.113052,62.876283 h 8.452617 a 5,5 0 0 1 4.84124,3.750019 25,25 0 0 0 6.528488,11.427671 25,25 0 0 0 11.427671,6.528462 5,5 0 0 1 3.749993,4.84124 v 8.452617"
       style="fill:none;stroke:none;stroke-width:0.0132292;stroke-dasharray:none"
       id="path88" /><path
       d="m -98.113052,22.876284 h 75.000007 v 75.000008 h -75.000007 z"
       style="fill:none;stroke:none;stroke-width:0.0132292;stroke-dasharray:none"
       id="path89" /><path
       d="m -50.613042,60.376288 a 10.000007,10.000007 0 0 0 -20.000013,0 10.000007,10.000007 0 0 0 20.000013,0 z"
       style="fill:none;stroke:none;stroke-width:0.0132292;stroke-dasharray:none"
       id="path90" /><path
       d="m -45.613052,60.376288 a 15,15 0 0 0 -29.999993,0 15,15 0 0 0 29.999993,0 z"
       style="fill:none;stroke:none;stroke-width:0.0132292;stroke-dasharray:none"
       id="path91" /><path
       d="m -23.113045,62.876283 h -8.452617 a 10,10 0 0 1 -9.68248,-7.499985 20,20 0 0 0 -5.222769,-9.142148 20,20 0 0 0 -9.142148,-5.222769 10,10 0 0 1 -7.499984,-9.682453 v -8.452644"
       style="fill:none;stroke:none;stroke-width:0.0132292;stroke-dasharray:none"
       id="path92" /><path
       d="m -23.113045,57.876293 h -8.452617 a 5,5 0 0 1 -4.84124,-3.749993 25,25 0 0 0 -6.528488,-11.427671 25,25 0 0 0 -11.427671,-6.528488 5,5 0 0 1 -3.749993,-4.841213 v -8.452644"
       style="fill:none;stroke:none;stroke-width:0.0132292;stroke-dasharray:none"
       id="path93" /><path
       style="fill:#000000;stroke:none;stroke-width:0.0356582;stroke-linejoin:round;stroke-dasharray:none"
       d="m -128.53028,236.02934 c -6.26269,-1.68678 -12.36108,-5.23035 -17.02115,-9.89041 -5.00773,-5.00774 -7.85948,-10.16734 -10.61788,-19.21072 -5.39445,-17.68565 -16.38836,-32.46797 -31.44742,-42.28396 -6.85426,-4.46784 -10.0095,-5.91297 -20.82586,-9.53845 -4.42397,-1.48285 -9.83685,-3.77268 -12.02863,-5.0885 -4.89142,-2.93655 -10.75767,-9.26429 -13.36369,-14.415 -3.61545,-7.14583 -3.98755,-9.9605 -3.99672,-30.23236 l -0.008,-18.72055 h 8.87138 8.87137 l 0.22146,18.72055 c 0.2096,17.71755 0.30584,18.87828 1.79627,21.66464 2.86116,5.34893 7.04678,8.26574 16.02945,11.17036 16.00508,5.17538 28.42873,12.6728 39.5939,23.89411 11.01941,11.07483 18.31351,23.33113 23.54691,39.56592 2.8921,8.97175 5.68984,12.77923 11.48947,15.63619 3.16179,1.55753 4.23595,1.65179 21.33679,1.87245 l 18.007383,0.23234 v 8.86049 8.86049 L -106.43968,237.08 c -13.41874,-0.0343 -19.36751,-0.31723 -22.0906,-1.05066 z"
       id="path449"
       transform="scale(0.26458333)" /><path
       style="fill:#000000;stroke:none;stroke-width:0.0356582;stroke-linejoin:round;stroke-dasharray:none"
       d="m -241.11387,283.13729 c -20.58881,-4.47968 -37.37193,-20.9975 -42.76395,-42.08796 -1.66282,-6.50402 -1.69782,-18.86312 -0.0723,-25.54485 6.1891,-25.4409 28.71017,-43.28758 54.60382,-43.27045 25.59725,0.0169 46.58509,15.70489 54.3766,40.64534 1.41824,4.53976 1.67096,6.85879 1.67096,15.33302 0,11.02566 -1.16817,16.31165 -5.51059,24.93559 -7.54392,14.98205 -21.04612,25.77845 -37.03172,29.61069 -6.98198,1.67379 -18.52528,1.84673 -25.27278,0.37862 z m 19.36727,-17.5378 c 14.49492,-2.62776 26.78233,-14.76908 29.89778,-29.5423 1.32368,-6.27684 1.32368,-9.41277 0,-15.68961 -1.58659,-7.52346 -4.85435,-13.539 -10.27655,-18.91788 -24.23868,-24.04498 -64.95444,-7.26917 -64.95444,26.76269 0,10.18063 3.32676,18.4902 10.40774,25.99642 9.17586,9.72689 21.6542,13.79661 34.92547,11.39068 z"
       id="path450"
       transform="scale(0.26458333)" /><path
       style="fill:#000000;stroke:none;stroke-width:0.0356582;stroke-linejoin:round;stroke-dasharray:none"
       d="m -237.95544,351.71547 -0.24124,-18.05993 -2.1469,-4.19581 c -2.94738,-5.76024 -6.37873,-8.17648 -16.17551,-11.39023 -30.66842,-10.06051 -52.90215,-32.25777 -62.37762,-62.27534 -3.0104,-9.53668 -5.45906,-13.14735 -10.96686,-16.17116 l -3.89704,-2.13949 -18.36397,-0.23156 -18.36396,-0.23155 v -8.86128 -8.86128 l 18.36396,0.0174 c 10.10018,0.01 19.80812,0.34658 21.5732,0.74887 5.61419,1.27955 13.38798,5.61445 17.69914,9.86956 4.87382,4.81045 8.058,10.58342 10.96228,19.87478 3.9686,12.69629 9.11227,21.4085 18.26892,30.94341 9.89138,10.3 18.8518,15.66993 34.82382,20.86973 13.65842,4.4466 21.9979,11.93228 26.55158,23.83323 1.75526,4.58738 1.82231,5.37696 2.08291,24.53024 l 0.26926,19.79029 h -8.91036 -8.91036 z"
       id="path451"
       transform="scale(0.26458333)" /></g></svg>
