<?xml version="1.0" encoding="UTF-8" standalone="no"?>
<!-- Created with Inkscape (http://www.inkscape.org/) -->

<svg
   width="39.6875mm"
   height="39.6875mm"
   viewBox="0 0 39.6875 39.6875"
   version="1.1"
   id="svg1"
   xmlns="http://www.w3.org/2000/svg"
   xmlns:svg="http://www.w3.org/2000/svg">
  <defs
     id="defs1" />
  <g
     id="layer1"
     transform="translate(320.90055,-158.20303)">
    <rect
       style="fill:none;stroke-width:0.00853528;stroke-linejoin:round"
       id="rect39"
       width="39.6875"
       height="39.6875"
       x="-320.90054"
       y="158.20303" />
    <path
       id="path39"
       style="fill:#000000;stroke-width:0.0145831;stroke-linejoin:round"
       d="m -301.05679,170.10928 a 7.9375,7.9375 0 0 0 -7.9375,7.9375 7.9375,7.9375 0 0 0 7.9375,7.9375 7.9375,7.9375 0 0 0 7.9375,-7.9375 7.9375,7.9375 0 0 0 -7.9375,-7.9375 z m 0,2.64584 a 5.2916665,5.2916665 0 0 1 5.29166,5.29166 5.2916665,5.2916665 0 0 1 -5.29166,5.29167 5.2916665,5.2916665 0 0 1 -5.29167,-5.29167 5.2916665,5.2916665 0 0 1 5.29167,-5.29166 z" />
    <path
       id="path40"
       style="fill:#000000;stroke-width:0.0186056;stroke-linejoin:round"
       d="m -301.05698,164.81757 a 13.229167,13.229167 0 0 0 -13.22917,13.22916 13.229167,13.229167 0 0 0 11.90625,13.1346 v 6.70915 h 2.64584 v -6.70915 a 13.229167,13.229167 0 0 0 11.90625,-13.1346 13.229167,13.229167 0 0 0 -13.22917,-13.22916 z m 0,2.64583 a 10.583333,10.583333 0 0 1 10.58333,10.58333 10.583333,10.583333 0 0 1 -10.58333,10.58334 10.583333,10.583333 0 0 1 -10.58333,-10.58334 10.583333,10.583333 0 0 1 10.58333,-10.58333 z" />
  </g>
</svg>
