<?xml version="1.0" encoding="UTF-8" standalone="no"?>
<!-- Created with Inkscape (http://www.inkscape.org/) -->

<svg
   width="39.6875mm"
   height="39.687496mm"
   viewBox="0 0 39.6875 39.687496"
   version="1.1"
   id="svg1"
   xmlns="http://www.w3.org/2000/svg"
   xmlns:svg="http://www.w3.org/2000/svg">
  <defs
     id="defs1" />
  <g
     id="layer1"
     transform="translate(323.87992,-35.492919)">
    <rect
       style="fill:none;stroke-width:0.00853528;stroke-linejoin:round"
       id="rect23"
       width="39.6875"
       height="39.6875"
       x="-323.87991"
       y="35.49292" />
    <path
       id="path25"
       style="fill:#000000;stroke-width:0.0145831;stroke-linejoin:round"
       d="m -304.03618,47.399174 a 7.9375,7.9375 0 0 0 -7.9375,7.9375 7.9375,7.9375 0 0 0 7.9375,7.9375 7.9375,7.9375 0 0 0 7.9375,-7.9375 7.9375,7.9375 0 0 0 -7.9375,-7.9375 z m 0,2.64583 a 5.2916665,5.2916665 0 0 1 5.29166,5.29167 5.2916665,5.2916665 0 0 1 -5.29166,5.29167 5.2916665,5.2916665 0 0 1 -5.29167,-5.29167 5.2916665,5.2916665 0 0 1 5.29167,-5.29167 z" />
    <path
       id="path26"
       style="fill:#000000;stroke-width:0.00915952;stroke-linejoin:round"
       d="m -304.0358,64.597471 a 1.3229166,1.3229166 0 0 0 -1.32292,1.322917 v 9.2599 h 2.64584 v -9.2599 a 1.3229166,1.3229166 0 0 0 -1.32292,-1.322917 z" />
  </g>
</svg>
