<?xml version="1.0" encoding="UTF-8" standalone="no"?>
<!-- Created with Inkscape (http://www.inkscape.org/) -->

<svg
   width="39.6875mm"
   height="39.687515mm"
   viewBox="0 0 39.6875 39.687515"
   version="1.1"
   id="svg1"
   xmlns="http://www.w3.org/2000/svg"
   xmlns:svg="http://www.w3.org/2000/svg">
  <defs
     id="defs1" />
  <g
     id="layer1"
     transform="translate(414.33244,-227.27554)">
    <rect
       style="fill:none;stroke-width:0.00853528;stroke-linejoin:round"
       id="rect75"
       width="39.6875"
       height="39.6875"
       x="374.64493"
       y="-266.96304"
       transform="scale(-1)" />
    <path
       id="path75"
       style="fill:#000000;stroke-width:0.0145831;stroke-linejoin:round"
       d="m -394.4887,255.05677 a 7.9375,7.9375 0 0 0 7.9375,-7.9375 7.9375,7.9375 0 0 0 -7.9375,-7.9375 7.9375,7.9375 0 0 0 -7.93751,7.9375 7.9375,7.9375 0 0 0 7.93751,7.9375 z m 0,-2.64583 a 5.2916665,5.2916665 0 0 1 -5.29167,-5.29167 5.2916665,5.2916665 0 0 1 5.29167,-5.29167 5.2916665,5.2916665 0 0 1 5.29166,5.29167 5.2916665,5.2916665 0 0 1 -5.29166,5.29167 z" />
    <path
       id="path76"
       style="fill:#000000;stroke-width:0.00915952;stroke-linejoin:round"
       d="m -395.81174,227.27553 v 6.70915 a 13.229167,13.229167 0 0 0 -11.90625,13.1346 13.229167,13.229167 0 0 0 13.22917,13.22917 13.229167,13.229167 0 0 0 13.1625,-11.90625 h 6.68125 v -2.64583 h -9.3431 v 2.37401 a 10.583333,10.583333 0 0 1 -10.50065,9.53224 10.583333,10.583333 0 0 1 -10.58333,-10.58334 10.583333,10.583333 0 0 1 10.58333,-10.58333 h 1.32292 v -9.26042 z" />
  </g>
</svg>
