<?xml version="1.0" encoding="UTF-8" standalone="no"?>
<!-- Created with Inkscape (http://www.inkscape.org/) -->

<svg
   width="39.6875mm"
   height="39.687515mm"
   viewBox="0 0 39.6875 39.687515"
   version="1.1"
   id="svg1"
   xmlns="http://www.w3.org/2000/svg"
   xmlns:svg="http://www.w3.org/2000/svg">
  <defs
     id="defs1" />
  <g
     id="layer1"
     transform="translate(360.93284,-158.34382)">
    <rect
       style="fill:none;stroke-width:0.00853528;stroke-linejoin:round"
       id="rect66"
       width="39.6875"
       height="39.6875"
       x="-360.93283"
       y="158.34384" />
    <path
       id="path66"
       style="fill:#ffffff;stroke-width:0.0145831;stroke-linejoin:round"
       d="m -341.08908,170.2501 a 7.9375,7.9375 0 0 0 -7.9375,7.9375 7.9375,7.9375 0 0 0 7.9375,7.9375 7.9375,7.9375 0 0 0 7.9375,-7.9375 7.9375,7.9375 0 0 0 -7.9375,-7.9375 z m 0,2.64583 a 5.2916665,5.2916665 0 0 1 5.29166,5.29167 5.2916665,5.2916665 0 0 1 -5.29166,5.29167 5.2916665,5.2916665 0 0 1 -5.29167,-5.29167 5.2916665,5.2916665 0 0 1 5.29167,-5.29167 z" />
    <path
       id="rect68"
       style="fill:#ffffff;stroke-width:0.00915952;stroke-linejoin:round"
       d="m -342.41166,158.34382 v 9.26042 0.0946 a 10.583333,10.583333 0 0 1 1.3224,-0.0946 10.583333,10.583333 0 0 1 10.58334,10.58333 10.583333,10.583333 0 0 1 -0.10387,1.32292 h 1.2764 1.37873 6.70915 v -2.64583 h -6.68383 a 13.229167,13.229167 0 0 0 -11.83648,-11.83701 v -6.68383 z" />
  </g>
</svg>
