<?xml version="1.0" encoding="UTF-8" standalone="no"?>
<!-- Created with Inkscape (http://www.inkscape.org/) -->

<svg
   width="39.6875mm"
   height="39.687504mm"
   viewBox="0 0 39.6875 39.687504"
   version="1.1"
   id="svg1"
   xmlns="http://www.w3.org/2000/svg"
   xmlns:svg="http://www.w3.org/2000/svg">
  <defs
     id="defs1" />
  <g
     id="layer1"
     transform="translate(423.11112,44.626788)">
    <rect
       style="fill:none;stroke:none;stroke-width:0.00853528;stroke-linejoin:round"
       id="rect48"
       width="39.6875"
       height="39.6875"
       x="-423.11111"
       y="-44.626789" />
    <path
       id="path48"
       style="fill:#000000;stroke:none;stroke-width:0.0145831;stroke-linejoin:round"
       d="m -404.59029,-44.626733 v 12.028723 a 7.9375,7.9375 0 0 0 -6.61458,7.815027 7.9375,7.9375 0 0 0 7.9375,7.9375 7.9375,7.9375 0 0 0 7.81502,-6.614584 h 12.02873 V -26.1059 h -12.02873 a 7.9375,7.9375 0 0 0 -6.49211,-6.49211 v -12.028723 z m 1.32292,14.552083 a 5.2916665,5.2916665 0 0 1 5.29166,5.291667 5.2916665,5.2916665 0 0 1 -5.29166,5.291666 5.2916665,5.2916665 0 0 1 -5.29167,-5.291666 5.2916665,5.2916665 0 0 1 5.29167,-5.291667 z" />
  </g>
</svg>
