<?xml version="1.0" encoding="UTF-8" standalone="no"?>
<!-- Created with Inkscape (http://www.inkscape.org/) -->

<svg
   width="39.6875mm"
   height="39.6875mm"
   viewBox="0 0 39.6875 39.6875"
   version="1.1"
   id="svg1"
   xmlns="http://www.w3.org/2000/svg"
   xmlns:svg="http://www.w3.org/2000/svg">
  <defs
     id="defs1" />
  <g
     id="layer1"
     transform="translate(358.13679,-302.70949)">
    <rect
       style="fill:none;stroke-width:0.00853528;stroke-linejoin:round"
       id="rect76"
       width="39.6875"
       height="39.6875"
       x="-358.13681"
       y="302.7095" />
    <path
       id="path77"
       style="fill:#ffffff;stroke-width:0.0145831;stroke-linejoin:round"
       d="m -338.29305,314.61575 a 7.9375,7.9375 0 0 0 -7.9375,7.9375 7.9375,7.9375 0 0 0 7.9375,7.9375 7.9375,7.9375 0 0 0 7.93751,-7.9375 7.9375,7.9375 0 0 0 -7.93751,-7.9375 z m 0,2.64583 a 5.2916665,5.2916665 0 0 1 5.29167,5.29167 5.2916665,5.2916665 0 0 1 -5.29167,5.29167 5.2916665,5.2916665 0 0 1 -5.29166,-5.29167 5.2916665,5.2916665 0 0 1 5.29166,-5.29167 z" />
    <path
       id="rect78"
       style="fill:#ffffff;stroke-width:0.00915952;stroke-linejoin:round"
       d="m -339.61596,302.70969 v 9.2599 a 1.3229166,1.3229166 0 0 0 1.32291,1.32291 1.3229166,1.3229166 0 0 0 1.32292,-1.32291 v -9.2599 z" />
    <path
       id="rect80"
       style="fill:#ffffff;stroke-width:0.00920051;stroke-linejoin:round"
       d="m 321.23052,327.7924 a 1.3229166,1.3229166 0 0 0 1.32292,1.32291 1.3229166,1.3229166 0 0 0 1.32291,-1.32291 v -9.3431 h -2.64583 z"
       transform="rotate(90)" />
  </g>
</svg>
