<?xml version="1.0" encoding="UTF-8" standalone="no"?>
<!-- Created with Inkscape (http://www.inkscape.org/) -->

<svg
   width="39.6875mm"
   height="39.6875mm"
   viewBox="0 0 39.6875 39.6875"
   version="1.1"
   id="svg1"
   xmlns="http://www.w3.org/2000/svg"
   xmlns:svg="http://www.w3.org/2000/svg">
  <defs
     id="defs1" />
  <g
     id="layer1"
     transform="translate(418.17796,-301.38677)">
    <rect
       style="fill:none;stroke-width:0.00853528;stroke-linejoin:round"
       id="rect83"
       width="39.6875"
       height="39.6875"
       x="-418.17798"
       y="301.38678" />
    <path
       id="path83"
       style="fill:#000000;stroke-width:0.0145831;stroke-linejoin:round"
       d="m -398.33423,313.29302 a 7.9375,7.9375 0 0 0 -7.9375,7.9375 7.9375,7.9375 0 0 0 7.9375,7.9375 7.9375,7.9375 0 0 0 7.93751,-7.9375 7.9375,7.9375 0 0 0 -7.93751,-7.9375 z m 0,2.64583 a 5.2916665,5.2916665 0 0 1 5.29167,5.29167 5.2916665,5.2916665 0 0 1 -5.29167,5.29167 5.2916665,5.2916665 0 0 1 -5.29166,-5.29167 5.2916665,5.2916665 0 0 1 5.29166,-5.29167 z" />
    <path
       id="path84"
       style="fill:#000000;stroke-width:0.00915952;stroke-linejoin:round"
       d="m -399.65714,301.38696 v 9.2599 a 1.3229166,1.3229166 0 0 0 1.32291,1.32291 1.3229166,1.3229166 0 0 0 1.32292,-1.32291 v -9.2599 z" />
    <path
       id="path85"
       style="fill:#000000;stroke-width:0.00920051;stroke-linejoin:round"
       d="m -387.83358,319.90779 a 1.3229166,1.3229166 0 0 0 -1.32291,1.32292 1.3229166,1.3229166 0 0 0 1.32291,1.32291 h 9.3431 v -2.64583 z" />
  </g>
</svg>
