<?xml version="1.0" encoding="UTF-8" standalone="no"?>
<!-- Created with Inkscape (http://www.inkscape.org/) -->

<svg
   width="39.68763mm"
   height="39.687695mm"
   viewBox="0 0 39.68763 39.687695"
   version="1.1"
   id="svg1"
   xmlns="http://www.w3.org/2000/svg"
   xmlns:svg="http://www.w3.org/2000/svg">
  <defs
     id="defs1" />
  <g
     id="layer1"
     transform="translate(331.07087,-324.38228)">
    <rect
       style="fill:none;stroke-width:0.00853528;stroke-linejoin:round"
       id="rect98"
       width="39.6875"
       height="39.6875"
       x="-331.07089"
       y="324.38248" />
    <path
       id="rect99"
       style="fill:#ffffff;stroke-width:0.00915952;stroke-linejoin:round"
       d="m -312.54991,324.38227 v 9.26041 a 1.3229166,1.3229166 0 0 0 1.32291,1.32292 1.3229166,1.3229166 0 0 0 1.32292,-1.32292 v -9.26041 z m 11.82305,18.52083 a 1.3229166,1.3229166 0 0 0 -1.32292,1.32292 1.3229166,1.3229166 0 0 0 1.32292,1.32291 h 9.34361 v -2.64583 z m -10.50014,10.58385 a 1.3229166,1.3229166 0 0 0 -1.32291,1.32292 v 9.2599 h 2.64583 v -9.2599 a 1.3229166,1.3229166 0 0 0 -1.32292,-1.32292 z" />
    <circle
       style="fill:#ffffff;stroke-width:0.0133248;stroke-linejoin:round"
       id="circle105"
       cx="-311.22714"
       cy="344.22623"
       r="5.2916665" />
  </g>
</svg>
