<?xml version="1.0" encoding="UTF-8" standalone="no"?>
<!-- Created with Inkscape (http://www.inkscape.org/) -->

<svg
   width="39.6875mm"
   height="39.68763mm"
   viewBox="0 0 39.6875 39.68763"
   version="1.1"
   id="svg1"
   xmlns="http://www.w3.org/2000/svg"
   xmlns:svg="http://www.w3.org/2000/svg">
  <defs
     id="defs1" />
  <g
     id="layer1"
     transform="translate(328.4249,-126.09411)">
    <rect
       style="fill:none;stroke-width:0.00853528;stroke-linejoin:round"
       id="rect62"
       width="39.6875"
       height="39.6875"
       x="-328.42493"
       y="126.09424" />
    <path
       id="path62"
       style="fill:#ffffff;stroke-width:0.0145831;stroke-linejoin:round"
       d="m -308.58116,138.00049 a 7.9375,7.9375 0 0 0 -7.9375,7.9375 7.9375,7.9375 0 0 0 7.9375,7.9375 7.9375,7.9375 0 0 0 7.9375,-7.9375 7.9375,7.9375 0 0 0 -7.9375,-7.9375 z m 0,2.64583 a 5.2916665,5.2916665 0 0 1 5.29166,5.29167 5.2916665,5.2916665 0 0 1 -5.29166,5.29167 5.2916665,5.2916665 0 0 1 -5.29167,-5.29167 5.2916665,5.2916665 0 0 1 5.29167,-5.29167 z" />
    <path
       id="rect65"
       style="fill:#ffffff;stroke-width:0.00915952;stroke-linejoin:round"
       d="m -309.90408,126.09411 v 9.26042 a 1.3229166,1.3229166 0 0 0 1.32292,1.32292 1.3229166,1.3229166 0 0 0 1.32291,-1.32292 v -9.26042 z m 11.82357,18.52084 a 1.3229166,1.3229166 0 0 0 -1.32292,1.32291 1.3229166,1.3229166 0 0 0 1.32292,1.32292 h 9.3431 v -2.64583 z m -10.50065,10.58385 a 1.3229166,1.3229166 0 0 0 -1.32292,1.32291 v 9.2599 h 2.64583 v -9.2599 a 1.3229166,1.3229166 0 0 0 -1.32291,-1.32291 z" />
  </g>
</svg>
