<?xml version="1.0" encoding="UTF-8" standalone="no"?>
<!-- Created with Inkscape (http://www.inkscape.org/) -->

<svg
   width="39.6875mm"
   height="39.687576mm"
   viewBox="0 0 39.6875 39.687576"
   version="1.1"
   id="svg1"
   xmlns="http://www.w3.org/2000/svg"
   xmlns:svg="http://www.w3.org/2000/svg">
  <defs
     id="defs1" />
  <g
     id="layer1"
     transform="translate(326.44044,-54.864275)">
    <rect
       style="fill:none;stroke-width:0.00853528;stroke-linejoin:round"
       id="rect53"
       width="39.6875"
       height="39.6875"
       x="-326.44043"
       y="54.864273" />
    <path
       id="path53"
       style="fill:#ffffff;stroke-width:0.0145831;stroke-linejoin:round"
       d="m -307.91919,54.864351 v 12.028724 a 7.9375,7.9375 0 0 0 -6.6151,7.815026 7.9375,7.9375 0 0 0 6.6151,7.815027 v 12.028723 h 2.64583 v -12.02924 a 7.9375,7.9375 0 0 0 6.4916,-6.491593 h 12.02872 v -2.645833 h -12.01942 a 7.9375,7.9375 0 0 0 -6.5009,-6.501412 V 54.864351 Z m 1.3224,14.552084 a 5.2916665,5.2916665 0 0 1 5.29167,5.291666 5.2916665,5.2916665 0 0 1 -5.29167,5.291667 5.2916665,5.2916665 0 0 1 -5.29167,-5.291667 5.2916665,5.2916665 0 0 1 5.29167,-5.291666 z" />
  </g>
</svg>
