<?xml version="1.0" encoding="UTF-8" standalone="no"?>
<!-- Created with Inkscape (http://www.inkscape.org/) -->

<svg
   width="39.687695mm"
   height="39.687656mm"
   viewBox="0 0 39.687695 39.687656"
   version="1.1"
   id="svg1"
   xmlns="http://www.w3.org/2000/svg"
   xmlns:svg="http://www.w3.org/2000/svg">
  <defs
     id="defs1" />
  <g
     id="layer1"
     transform="translate(578.69343,-82.79701)">
    <rect
       style="fill:none;stroke-width:0.00853528;stroke-linejoin:round"
       id="rect140"
       width="39.6875"
       height="39.6875"
       x="-578.69342"
       y="82.797165" />
    <path
       id="path140"
       style="fill:#000000;stroke-width:0.0145831;stroke-linejoin:round"
       d="m -560.17239,82.797013 v 9.260417 a 1.3229166,1.3229166 0 0 0 1.32292,1.322917 1.3229166,1.3229166 0 0 0 1.32292,-1.322917 v -9.260417 z m 1.32292,11.90625 a 7.9375,7.9375 0 0 0 -7.9375,7.937497 7.9375,7.9375 0 0 0 7.9375,7.9375 7.9375,7.9375 0 0 0 7.9375,-7.9375 7.9375,7.9375 0 0 0 -7.9375,-7.937497 z m 0,2.645834 a 5.2916665,5.2916665 0 0 1 5.29167,5.291663 5.2916665,5.2916665 0 0 1 -5.29167,5.29167 5.2916665,5.2916665 0 0 1 -5.29167,-5.29167 5.2916665,5.2916665 0 0 1 5.29167,-5.291663 z m -19.84375,3.968753 v 2.64583 h 9.3431 a 1.3229166,1.3229166 0 0 0 1.32292,-1.32292 1.3229166,1.3229166 0 0 0 -1.32292,-1.32291 z m 30.34388,0 a 1.3229166,1.3229166 0 0 0 -1.32291,1.32291 1.3229166,1.3229166 0 0 0 1.32291,1.32292 h 9.34362 v -2.64583 z m -10.50013,10.58385 a 1.3229166,1.3229166 0 0 0 -1.32292,1.32291 v 9.2599 h 2.64584 v -9.2599 a 1.3229166,1.3229166 0 0 0 -1.32292,-1.32291 z" />
  </g>
</svg>
