<?xml version="1.0" encoding="UTF-8" standalone="no"?>
<!-- Created with Inkscape (http://www.inkscape.org/) -->

<svg
   width="39.6875mm"
   height="39.68763mm"
   viewBox="0 0 39.6875 39.68763"
   version="1.1"
   id="svg1"
   xmlns="http://www.w3.org/2000/svg"
   xmlns:svg="http://www.w3.org/2000/svg">
  <defs
     id="defs1" />
  <g
     id="layer1"
     transform="translate(316.6778,-106.25036)">
    <rect
       style="fill:none;stroke:none;stroke-width:0.00853528;stroke-linejoin:round"
       id="rect171"
       width="39.6875"
       height="39.6875"
       x="-316.6778"
       y="106.25049" />
    <path
       id="path171"
       style="fill:#ffffff;stroke-width:0.0145831;stroke-linejoin:round"
       d="m -298.15699,106.25036 v 9.26042 a 1.3229166,1.3229166 0 0 0 1.32291,1.32292 1.3229166,1.3229166 0 0 0 1.32292,-1.32292 v -9.26042 z m 1.32291,11.90625 a 7.9375,7.9375 0 0 0 -7.9375,7.9375 7.9375,7.9375 0 0 0 7.9375,7.9375 7.9375,7.9375 0 0 0 7.9375,-7.9375 7.9375,7.9375 0 0 0 -7.9375,-7.9375 z m 0,2.64584 a 5.2916665,5.2916665 0 0 1 5.29167,5.29166 5.2916665,5.2916665 0 0 1 -5.29167,5.29167 5.2916665,5.2916665 0 0 1 -5.29166,-5.29167 5.2916665,5.2916665 0 0 1 5.29166,-5.29166 z m 0,14.5526 a 1.3229166,1.3229166 0 0 0 -1.32291,1.32291 v 9.2599 h 2.64583 v -9.2599 a 1.3229166,1.3229166 0 0 0 -1.32292,-1.32291 z" />
  </g>
</svg>
