<?xml version="1.0" encoding="UTF-8" standalone="no"?>
<!-- Created with Inkscape (http://www.inkscape.org/) -->

<svg
   width="39.6875mm"
   height="39.687645mm"
   viewBox="0 0 39.6875 39.687645"
   version="1.1"
   id="svg1"
   xmlns="http://www.w3.org/2000/svg"
   xmlns:svg="http://www.w3.org/2000/svg">
  <defs
     id="defs1" />
  <g
     id="layer1"
     transform="translate(315.3548,-173.71913)">
    <rect
       style="fill:none;stroke-width:0.00853528;stroke-linejoin:round"
       id="rect179"
       width="39.6875"
       height="39.6875"
       x="-315.35483"
       y="173.71913" />
    <path
       id="path179"
       style="fill:#ffffff;stroke-width:0.0186056;stroke-linejoin:round"
       d="m -296.83405,173.71928 v 9.2599 h 1.32292 v 5.2e-4 a 10.583333,10.583333 0 0 1 10.58333,10.58333 10.583333,10.583333 0 0 1 -10.58333,10.58334 h -1.32292 v 9.26041 h 2.64584 v -6.68331 a 13.229167,13.229167 0 0 0 11.90625,-13.16044 13.229167,13.229167 0 0 0 -11.90625,-13.14235 v -6.7014 z" />
    <path
       id="path180"
       style="fill:#ffffff;stroke-width:0.0145831;stroke-linejoin:round"
       d="m -295.51109,185.62538 a 7.9375,7.9375 0 0 0 -7.9375,7.9375 7.9375,7.9375 0 0 0 7.9375,7.9375 7.9375,7.9375 0 0 0 7.93751,-7.9375 7.9375,7.9375 0 0 0 -7.93751,-7.9375 z m 0,2.64583 a 5.2916665,5.2916665 0 0 1 5.29167,5.29167 5.2916665,5.2916665 0 0 1 -5.29167,5.29167 5.2916665,5.2916665 0 0 1 -5.29166,-5.29167 5.2916665,5.2916665 0 0 1 5.29166,-5.29167 z" />
  </g>
</svg>
