<?xml version="1.0" encoding="UTF-8" standalone="no"?>
<!-- Created with Inkscape (http://www.inkscape.org/) -->

<svg
   width="39.687756mm"
   height="39.687534mm"
   viewBox="0 0 39.687756 39.687534"
   version="1.1"
   id="svg1"
   xmlns="http://www.w3.org/2000/svg"
   xmlns:svg="http://www.w3.org/2000/svg">
  <defs
     id="defs1" />
  <g
     id="layer1"
     transform="translate(141.82778,-259.2767)">
    <rect
       style="fill:none;stroke-width:0.00853528;stroke-linejoin:round"
       id="rect123"
       width="39.6875"
       height="39.6875"
       x="-141.82777"
       y="259.2767" />
    <path
       id="rect126"
       style="fill:#ffffff;stroke-width:0.00828789;stroke-linejoin:round"
       d="m -123.30669,259.27668 v 6.61458 h -4.05194 a 7.9375,7.9375 0 0 0 -7.9375,7.9375 v 10.58334 a 7.9375,7.9375 0 0 0 7.9375,7.9375 h 4.05194 v 6.61458 h 2.64584 v -6.61458 h 3.88555 a 7.9375,7.9375 0 0 0 7.9375,-7.9375 v -3.96875 h 6.69778 v -2.64584 h -6.69778 v -3.96875 a 7.9375,7.9375 0 0 0 -7.9375,-7.9375 h -3.88555 v -6.61458 z m -4.05194,9.26042 h 10.58333 a 5.2916665,5.2916665 0 0 1 5.29167,5.29166 v 10.58334 a 5.2916665,5.2916665 0 0 1 -5.29167,5.29166 h -10.58333 a 5.2916665,5.2916665 0 0 1 -5.29167,-5.29166 v -10.58334 a 5.2916665,5.2916665 0 0 1 5.29167,-5.29166 z" />
  </g>
</svg>
