<?xml version="1.0" encoding="UTF-8" standalone="no"?>
<!-- Created with Inkscape (http://www.inkscape.org/) -->

<svg
   width="39.68771mm"
   height="39.687565mm"
   viewBox="0 0 39.68771 39.687565"
   version="1.1"
   id="svg1"
   xmlns="http://www.w3.org/2000/svg"
   xmlns:svg="http://www.w3.org/2000/svg">
  <defs
     id="defs1" />
  <g
     id="layer1"
     transform="translate(141.72469,-124.65538)">
    <rect
       style="fill:none;stroke-width:0.00853528;stroke-linejoin:round"
       id="rect103"
       width="39.6875"
       height="39.6875"
       x="-141.72447"
       y="124.65537" />
    <path
       id="path103"
       style="fill:#ffffff;stroke-width:0.0145831;stroke-linejoin:round"
       d="m -123.20333,124.65544 v 6.61458 h -3.96927 a 7.9375,7.9375 0 0 0 -7.9375,7.9375 v 3.96875 h -6.61458 v 2.64584 h 6.61458 v 3.96875 a 7.9375,7.9375 0 0 0 7.9375,7.9375 h 3.96927 v 6.61458 h 2.64583 v -6.61458 h 3.96823 a 7.9375,7.9375 0 0 0 7.9375,-7.9375 v -3.96875 h 6.61459 v -2.64584 h -6.61459 v -3.96875 a 7.9375,7.9375 0 0 0 -7.9375,-7.9375 h -3.96823 v -6.61458 z m -3.96927,9.26042 h 10.58333 a 5.2916665,5.2916665 0 0 1 5.29167,5.29166 v 10.58334 a 5.2916665,5.2916665 0 0 1 -5.29167,5.29166 h -10.58333 a 5.2916665,5.2916665 0 0 1 -5.29167,-5.29166 v -10.58334 a 5.2916665,5.2916665 0 0 1 5.29167,-5.29166 z" />
  </g>
</svg>
