<?xml version="1.0" encoding="UTF-8" standalone="no"?>
<!-- Created with Inkscape (http://www.inkscape.org/) -->

<svg
   width="39.687508mm"
   height="39.6875mm"
   viewBox="0 0 39.687508 39.6875"
   version="1.1"
   id="svg1"
   xmlns="http://www.w3.org/2000/svg"
   xmlns:svg="http://www.w3.org/2000/svg">
  <defs
     id="defs1" />
  <g
     id="layer1"
     transform="translate(142.7735,-199.89636)">
    <rect
       style="fill:none;stroke-width:0.00853528;stroke-linejoin:round"
       id="rect107"
       width="39.6875"
       height="39.6875"
       x="-142.7735"
       y="-239.58386"
       transform="scale(1,-1)" />
    <path
       id="rect109"
       style="fill:#ffffff;stroke-width:0.00860622;stroke-linejoin:round"
       d="m -128.30431,232.96931 a 7.9375,7.9375 0 0 1 -7.9375,-7.9375 v -10.58333 a 7.9375,7.9375 0 0 1 7.9375,-7.9375 h 4.05195 v -6.61459 h 2.64583 v 6.61459 h 3.88555 a 7.9375,7.9375 0 0 1 7.9375,7.9375 v 3.96875 h 6.69727 v 2.64583 h -6.69727 v 3.96875 a 7.9375,7.9375 0 0 1 -7.9375,7.9375 z m 0,-2.64583 h 10.58333 a 5.2916665,5.2916665 0 0 0 5.29167,-5.29167 v -10.58333 a 5.2916665,5.2916665 0 0 0 -5.29167,-5.29167 h -10.58333 a 5.2916665,5.2916665 0 0 0 -5.29167,5.29167 v 10.58333 a 5.2916665,5.2916665 0 0 0 5.29167,5.29167 z" />
  </g>
</svg>
