<?xml version="1.0" encoding="UTF-8" standalone="no"?>
<!-- Created with Inkscape (http://www.inkscape.org/) -->

<svg
   width="39.687492mm"
   height="39.6875mm"
   viewBox="0 0 39.687492 39.6875"
   version="1.1"
   id="svg1"
   xmlns="http://www.w3.org/2000/svg"
   xmlns:svg="http://www.w3.org/2000/svg">
  <defs
     id="defs1" />
  <g
     id="layer1"
     transform="translate(142.8566,-55.259161)">
    <rect
       style="fill:none;stroke-width:0.00853528;stroke-linejoin:round"
       id="rect96"
       width="39.6875"
       height="39.6875"
       x="-142.85661"
       y="55.259159" />
    <path
       id="path45"
       style="fill:#ffffff;stroke-width:0.0145831;stroke-linejoin:round"
       d="m -128.30431,61.873743 a 7.9375,7.9375 0 0 0 -7.9375,7.9375 v 10.583333 a 7.9375,7.9375 0 0 0 7.9375,7.9375 h 3.96875 v 6.614583 h 2.64583 v -6.614583 h 3.96875 a 7.9375,7.9375 0 0 0 7.9375,-7.9375 V 69.811243 a 7.9375,7.9375 0 0 0 -7.9375,-7.9375 z m 0,2.645833 h 10.58333 a 5.2916665,5.2916665 0 0 1 5.29167,5.291667 v 10.583333 a 5.2916665,5.2916665 0 0 1 -5.29167,5.291667 h -10.58333 a 5.2916665,5.2916665 0 0 1 -5.29167,-5.291667 V 69.811243 a 5.2916665,5.2916665 0 0 1 5.29167,-5.291667 z" />
  </g>
</svg>
