<?xml version="1.0" encoding="UTF-8" standalone="no"?>
<!-- Created with Inkscape (http://www.inkscape.org/) -->

<svg
   width="39.6875mm"
   height="39.6875mm"
   viewBox="0 0 39.6875 39.6875"
   version="1.1"
   id="svg1"
   xmlns="http://www.w3.org/2000/svg"
   xmlns:svg="http://www.w3.org/2000/svg">
  <defs
     id="defs1" />
  <g
     id="layer1"
     transform="translate(194.70586,-382.22371)">
    <rect
       style="fill:none;stroke-width:0.00853528;stroke-linejoin:round"
       id="rect177"
       width="39.6875"
       height="39.6875"
       x="-194.70587"
       y="382.22369" />
    <path
       id="path177"
       style="fill:#000000;stroke-width:0.0145831;stroke-linejoin:round"
       d="m -180.23667,388.83834 a 7.9375,7.9375 0 0 0 -7.9375,7.9375 v 10.58333 a 7.9375,7.9375 0 0 0 7.9375,7.9375 h 10.58333 a 7.9375,7.9375 0 0 0 7.9375,-7.9375 v -10.58333 a 7.9375,7.9375 0 0 0 -7.9375,-7.9375 z m 0,2.64583 h 10.58333 a 5.2916665,5.2916665 0 0 1 5.29167,5.29167 v 10.58333 a 5.2916665,5.2916665 0 0 1 -5.29167,5.29167 h -10.58333 a 5.2916665,5.2916665 0 0 1 -5.29167,-5.29167 v -10.58333 a 5.2916665,5.2916665 0 0 1 5.29167,-5.29167 z" />
  </g>
</svg>
